<?xml version="1.0" encoding="utf-8"?>
<!-- Generator: Adobe Illustrator 27.7.0, SVG Export Plug-In . SVG Version: 6.00 Build 0)  -->
<svg version="1.1" id="Layer_1" xmlns="http://www.w3.org/2000/svg" xmlns:xlink="http://www.w3.org/1999/xlink" x="0px" y="0px"
	 viewBox="0 0 622.2 450.3" style="enable-background:new 0 0 622.2 450.3;" xml:space="preserve">
<style type="text/css">
	.st0{fill:;}
</style>
<path class="st0" d="M622.2,55.9v188.9c0,0-40.3,7.9-48.7,9c-8.3,1.1-34.2,9.4-53.1-8.7c-29.1-28.4-132.3-131.2-132.3-131.2
	c-13.3-10.8-32.1-11.8-46.4-2.3c-26.2,13.8-65.2,34.1-81.4,42c-17.9,10.4-40.8,4.4-51.2-13.4c-2.8-4.9-4.5-10.3-5-15.9
	c0.7-14.7,9.8-27.6,23.3-33.3c37-22.2,115.1-66.7,147.7-83.6c19.8-11.1,34-11.1,61.2,11.1c33.4,28.8,63.8,54,63.8,54
	c7.3,5.2,16.4,6.9,25.1,4.8C562.6,69.4,622.2,55.9,622.2,55.9z M211.1,375c7.4-16.9-0.4-36.5-17.2-43.9c-7-3.1-14.8-3.6-22.2-1.6
	c3.7-11.6,1-24.3-7.1-33.3c-8.9-8.5-21.5-11.6-33.3-8.3c3.7-11.6,1-24.3-7.2-33.3c-15-13.8-38.3-13.2-52.4,1.4
	c-15.3,14.7-25.2,41.3-11.1,57.1s29.3,6.1,41.3,3.3c-3.3,11.9-13.3,23-1,38.6c12.3,15.6,29.3,6.1,41.3,3.3
	c-3.3,11.9-12.9,24-1.1,38.4c11.8,14.4,31.6,6.8,44.4,2.8c-5,12.8-15.7,26.6-2,42.1s45.3,8.3,60.8-6.4c15.3-13.5,16.7-36.7,3.3-52
	C238,373.7,223.8,370.5,211.1,375z M492.8,277L373.6,158.3c-11.3-10.5-27.7-13.5-41.9-7.6c-16.7,7.3-38.1,17.3-54.3,24.9
	c-11.2,6.7-23.6,10.8-36.6,12.2c-34.3,0.3-62.4-27.2-62.7-61.5c-0.2-21.7,10.9-41.9,29.4-53.4c25.9-17.7,82.4-48,82.4-48
	C275.5,9.8,255.2,1.7,234.3,2.7c-38,0-117.6,52.2-117.6,52.2c-17.1,8.9-37.3,9.4-54.8,1.4L0,34.9v215.6c0,0,17.7,5.1,33.3,11.1
	c3.6-10.4,9.5-19.8,17.3-27.4c26.3-25.2,67.6-25.5,94.2-0.7c7.1,7.4,12.3,16.4,14.9,26.3c9.6,3,18.4,8.3,25.4,15.6
	c7.2,7.5,12.2,16.7,14.8,26.8c20.7,6.4,36.4,23.3,41.2,44.4c10.1,2.9,19.3,8.4,26.6,15.9c13.8,14.5,19.9,34.6,16.4,54.3l0,0
	c0,0,8.9,10,14.3,15.4c10.7,10.7,28,10.7,38.7,0c10.7-10.7,10.7-28,0-38.7c0,0,22.2,27.6,47.6,11.1c22.2-15.6,18.8-34,8.2-44.4
	c12.6,15,34.9,16.9,49.9,4.3c1.1-0.9,2.1-1.9,3.1-2.9c9.9-10,10.5-25.9,1.4-36.7c0,0,14.8,20.1,44.4,1.3c21-17.8,11.1-38.1,0-48.8
	L492.8,277z"/>
</svg>
