<?xml version="1.0" encoding="utf-8"?>
<!-- Generator: Adobe Illustrator 27.7.0, SVG Export Plug-In . SVG Version: 6.00 Build 0)  -->
<svg version="1.1" id="Layer_1" xmlns="http://www.w3.org/2000/svg" xmlns:xlink="http://www.w3.org/1999/xlink" x="0px" y="0px"
	 viewBox="0 0 89.9 92" style="enable-background:new 0 0 89.9 92;" xml:space="preserve">
<style type="text/css">
	.st0{fill:;}
	.st1{display:none;fill:;}
</style>
<g>
	<path class="st0" d="M61.2,48.9c-5.4-6.6-10.8-13.2-16.2-19.8c-1-1.2-2-2.6-2.9-3.8c1.8-3.4,2.2-7,1.5-10.5
		C42.3,7.6,38,2.7,30.9,0.7c-7.1-2-13.3,0.1-18.2,5.7C5.6,14.3,8,27.8,17.3,32.9c3.1,1.7,6.3,2.4,9.8,2.4c0.9,0,1.9-0.2,2.7,0.7
		c1.1,1.4,2.2,2.7,3.3,4.1c5,6.2,9.8,12.6,15.1,18.6c1.5,1.8,2.7,3.8,2.8,6.3c0.2,7-6.3,11.9-13.6,10.2c-4.2-1-6.6-4.2-9-7.3
		c-0.8-1-0.7-1.6,0.5-2.2c2-1,4-2.1,6.2-3.3c-1.6-0.8-3-1.3-4.2-2.1c-1.9-1.3-3.9-1.3-6.1-0.8c-5.4,1.1-10.2,0-14.5-3.6
		c-2.6-2.2-4.8-4.7-7.5-7c-0.8,1.6-1.4,3.1-2.3,4.5c-0.8,1.2-0.6,2.1,0.2,3.3C6.1,64.3,11.3,72.2,17,79.7c4,5.2,9,9,15.2,11
		c11.1,3.5,21.8,0.2,29.1-8.9C69,72.3,68.9,58.4,61.2,48.9z M52.7,85.9c-7.2,4.3-14.6,4.3-22.2,1.3C25,85,21.2,81,17.8,76.4
		C12.9,69.6,8.2,62.8,3.4,56c-0.5-0.7-1-1.4-0.2-2.2c0.9-0.8,1.4,0.1,2,0.7c3.2,3.3,6.5,6.3,11.1,7.5c2.8,0.7,5.6,0.6,8.4,0.1
		c0.9-0.2,1.8-0.3,2.7-0.4c0.6-0.1,1.3,0,1.4,0.7c0.1,0.7-0.5,0.9-1,1.1c-2.7,1.1-3.3,2-3,4c0.2,1.1,1.2,1.4,1.7,2.3
		c3.3,5.6,8.2,8.6,14.8,8.7c4.2,0,9.8-4.5,11.3-8.4c2.1-5.4,0.2-9.5-3.1-13.5c-3.9-4.8-8.1-9.5-11.9-14.4c-2.2-2.8-4.6-5.6-6.7-8.5
		c-0.5-0.6-1-0.8-1.7-0.7c-4.4,0.5-8.5-0.2-12.2-2.8c-6.5-4.5-7.7-14.4-4-20.3c4.8-7.5,14.2-9.2,21.3-5c3.1,1.8,7.6,7.8,6.7,13.4
		c0.1,2-0.2,4.2-1.2,6.1c-0.9,1.6,0.2,2.7,1.1,3.8c2.6,3.3,5.2,6.7,7.8,10c3.2,3.9,6.5,7.8,9.6,11.7c6.3,8,8,16.7,3.5,26.1
		C59.8,80,56.7,83.4,52.7,85.9z"/>
	<path class="st0" d="M58.5,49.7c-3.1-4-6.4-7.8-9.6-11.7c-2.7-3.3-5.2-6.6-7.8-10c-0.9-1.1-1.9-2.2-1.1-3.8c1.1-2,1.4-4.1,1.2-6.1
		c0.9-5.6-3.6-11.6-6.7-13.4c-7.1-4.2-16.6-2.5-21.3,5c-3.7,5.9-2.5,15.8,4,20.3c3.8,2.6,7.8,3.3,12.2,2.8c0.7-0.1,1.3,0.1,1.7,0.7
		c2.1,2.9,4.4,5.7,6.7,8.5c3.8,4.9,8,9.6,11.9,14.4c3.3,4,5.2,8.1,3.1,13.5c-1.5,3.9-7.1,8.4-11.3,8.4c-6.6,0-11.5-3-14.8-8.7
		c-0.5-0.8-1.5-1.2-1.7-2.3c-0.3-2,0.3-2.9,3-4c0.5-0.2,1.2-0.4,1-1.1c-0.2-0.7-0.9-0.8-1.4-0.7c-0.9,0.1-1.8,0.2-2.7,0.4
		c-2.8,0.5-5.6,0.6-8.4-0.1c-4.6-1.2-8-4.2-11.1-7.5c-0.5-0.5-1-1.4-2-0.7c-0.9,0.7-0.4,1.5,0.2,2.2c4.8,6.8,9.6,13.7,14.5,20.4
		C21.2,81,25,85,30.5,87.2c7.6,3,15.1,3,22.2-1.3c4.1-2.4,7.2-5.9,9.2-10.1C66.5,66.4,64.7,57.7,58.5,49.7z M25.6,25.1
		c-3.1,0-6.6-3.7-6.7-6.7c-0.2-3.8,3.1-8.4,7.2-7.9c4.4,0,7.6,3.1,7.5,7.4C33.4,22.2,30.2,25.1,25.6,25.1z"/>
	<path class="st0" d="M78.7,28.6c1.6-1.8,2.6-3.8,3.8-5.6c0.4-0.6,0.4-1.1-0.3-1.7c-2.9-2.3-6.2-3.9-9.8-4.7
		c-10.2-2.3-18.8,1.4-26.6,7.8c0.2,0.4,0.6,0.9,1,1.5c4.4,7.2,10,13.1,17.8,16.7c10.1,4.7,18.2,2.2,25.3-3
		C86.8,35.3,83.1,31.7,78.7,28.6z M84.1,40.2c-8,3.7-15.6,2.5-22.7-2.3c-5.1-3.4-9.2-7.7-12.3-13c8.7-7.6,26.6-8.6,30.4-2
		c-0.9,2.6-2.9,4.2-4.8,6.2c4.2,1.9,6.9,5.2,10,8.1C86.3,38.7,86.2,39.3,84.1,40.2z"/>
	<path class="st0" d="M84.1,40.2c-8,3.7-15.6,2.5-22.7-2.3c-5.1-3.4-9.2-7.7-12.3-13c8.7-7.6,26.6-8.6,30.4-2
		c-0.9,2.6-2.9,4.2-4.8,6.2c4.2,1.9,6.9,5.2,10,8.1C86.3,38.7,86.2,39.3,84.1,40.2z"/>
	<path class="st1" d="M26.1,12.3c-3.1-0.4-5.6,3.1-5.5,6c0.1,2.3,2.8,5.1,5.1,5.1c3.5,0,5.9-2.3,6-5.5
		C31.8,14.6,29.5,12.3,26.1,12.3z M26.1,20.8c-1.6,0-3.1-1.6-3.1-3.3c0-1.7,1.6-3,3.7-3c1.6,0,2.8,1.5,2.7,3.4
		C29.3,19.6,27.8,20.8,26.1,20.8z"/>
</g>
</svg>
