<?xml version="1.0" encoding="utf-8"?>
<!-- Generator: Adobe Illustrator 27.7.0, SVG Export Plug-In . SVG Version: 6.00 Build 0)  -->
<svg version="1.1" id="Layer_1" xmlns="http://www.w3.org/2000/svg" xmlns:xlink="http://www.w3.org/1999/xlink" x="0px" y="0px"
	 viewBox="0 0 428.2 787.1" style="enable-background:new 0 0 428.2 787.1;" xml:space="preserve">
<style type="text/css">
	.st0{display:none;fill:;}
	.st1{fill:;}
</style>
<g>
	<path class="st0" d="M-1000.3,572.6c-11.5-75.5-53.6-130.7-115.8-172.4c-19.3-13-40.8-22.5-58.1-38.6
		c-13.6-12.7-13.6-12.7,2.2-22.2c44.4-26.7,74.8-64.9,84.8-115.7c15.6-79.4-9.9-144.2-77.7-189.9c-47.4-32-100.2-37-153.4-18.9
		c-59.4,20.2-98.5,62-115.8,123.3c-19.4,68.8,8.8,149.3,66.8,190.4c8.2,5.8,19.7,8.6,22.9,20.3c3,10.7,5.7,21.5,9.3,32
		c16.8,48.8,47.2,88,86.9,120.2c21.6,17.5,47.8,28.6,68.2,47.7c26.4,24.7,35,59.8,20.2,94.3c-13.9,32.6-40,51.6-76,52.7
		c-36,1.1-62.2-16.4-79.4-47.8c-3.1-5.7-1.2-9,5.4-9.1c15.7-0.2,31.3-0.5,47-0.5c6.1,0,8.8-2.6,8.7-8.7c-0.2-20.3-0.3-40.7-0.1-61
		c0.1-7.5-3-10.2-10.3-10.7c-60.2-3.7-104.6-33-134.7-84.6c-14.1-24.2-19.4-51-19.9-78.5c-0.2-11.6-2.9-16.4-15.2-15.3
		c-12.1,1.1-24.3,0.6-36.5,0.2c-7.2-0.2-9.6,2.5-9.6,9.6c0.2,38.8,0.1,77.7,0.1,116.5h-0.5c0,30.8,0.1,61.7,0,92.5
		c-0.1,30.7,3.7,60.6,13.7,89.9c42,123.2,177.7,191.3,301.8,151.3C-1051.9,803.3-982.4,690.9-1000.3,572.6z M-1055.6,716.3
		c-36.6,60.2-89.8,96.8-161.7,103.7c-71,6.9-130.3-16.8-178.5-68.2c-32-34-50.6-74.9-53.8-121.7c-4.6-69.2-2.1-138.5-4.1-207.7
		c-0.1-3.5-1.6-9.5,3.2-9.7c5-0.2,3.6,5.8,4,9.3c8.7,80.4,70.4,147.8,149.9,163.4c10.5,2.1,6.1,10.3,6.6,16.1c0.5,5.6-4.1,5.5-8,5.5
		c-7.7,0-15.3,0-23,0c-6.2,0-12.4,0.6-18.5-0.1c-13.2-1.6-15.5,5-14.1,16.3c8,63.1,59,106.1,122.4,102.2
		c50.3-3,83.6-30.1,101.6-75.8c16.6-41.9,4.3-93-30.3-122.9c-18.8-16.2-41.3-27.9-61.2-43c-41.6-31.7-73.5-70.9-88.9-121.8
		c-3.2-10.8-7.3-21.4-7.8-32.9c-0.3-6.5-4.8-10.1-9.9-12.8c-52.3-28.1-81-72.2-82.5-131c-1.3-49.7,19.8-90.7,60.2-121.1
		c27.1-20.4,57.8-30.8,91.2-29.8c43.4,1.2,81,18.1,109,51.8c44.4,53.5,49.8,112.6,15.8,173.1c-15.9,28.3-40.2,48.4-70.3,61.4
		c-18.8,8.1-19.1,11.6-11.7,31.4c11.3,30,37.3,43.4,62.3,58.2c53.8,31.9,98.7,71.7,117.5,134.1
		C-1018,604.1-1022.9,662.7-1055.6,716.3z"/>
	<path class="st1" d="M417.8,510c-18.8-62.4-63.6-102.2-117.5-134.1c-25-14.8-51-28.1-62.3-58.2c-7.4-19.7-7.2-23.3,11.6-31.4
		c30-12.9,54.4-33,70.3-61.4c34-60.5,28.6-119.6-15.8-173.1c-28-33.7-65.6-50.6-109-51.8c-33.4-0.9-64.1,9.4-91.2,29.8
		C63.6,60.3,42.5,101.3,43.8,151c1.5,58.8,30.2,103,82.5,131c5.1,2.7,9.6,6.3,9.9,12.8c0.5,11.5,4.5,22.2,7.8,32.9
		c15.4,51,47.3,90.1,88.9,121.8c19.8,15.1,42.4,26.8,61.2,43c34.7,29.9,46.9,81,30.3,122.9c-18.1,45.7-51.4,72.8-101.6,75.8
		c-63.4,3.8-114.4-39.1-122.4-102.2c-1.4-11.3,0.9-17.9,14.1-16.3c6.1,0.7,62,0.1,68.2,0.1c7.7,0,15.3,0,23,0c4,0,8.6,0,8-5.5
		c-0.5-5.9,3.9-14.1-6.6-16.1c-79.5-15.6-190.9-83-199.6-163.4c-0.4-3.5,1-9.5-4-9.3c-4.8,0.2-3.3,6.2-3.2,9.7
		c2,69.2-0.5,138.6,4.1,207.7c3.1,46.9,21.8,87.7,53.8,121.7c48.3,51.5,107.5,75.1,178.5,68.2c71.8-6.9,125.1-43.5,161.7-103.7
		C431,628.6,435.9,570,417.8,510z M189.6,221.2c-38.4-1.3-70.2-35.2-68.7-73.2c1.6-39.7,34.6-71.6,72.6-70.3
		c40,1.4,71.6,34,70.1,72.3C262.1,192,230.4,222.5,189.6,221.2z"/>
	<path class="st0" d="M-1260.8,134.2c-26.1-0.9-48.8,21-49.9,48.3c-1.1,26.1,20.8,49.4,47.2,50.3c28,0.9,49.8-20,50.9-48.9
		C-1211.6,157.5-1233.3,135.1-1260.8,134.2z M-1261.1,204.8c-11.2,0.1-21.4-10.1-21.3-21.4c0-11.3,10.2-21.1,21.6-21
		c10.5,0.1,20.9,10.9,20.8,21.7C-1240,194.3-1250.5,204.6-1261.1,204.8z"/>
	<path class="st0" d="M214,149.9c0,10.3-10.6,20.6-21.1,20.8c-11.2,0.1-21.4-10.1-21.3-21.4c0-11.3,10.2-21.1,21.6-21
		C203.6,128.3,214,139.1,214,149.9z"/>
</g>
</svg>
