<?xml version="1.0" encoding="utf-8"?>
<!-- Generator: Adobe Illustrator 27.7.0, SVG Export Plug-In . SVG Version: 6.00 Build 0)  -->
<svg version="1.1" id="Layer_1" xmlns="http://www.w3.org/2000/svg" xmlns:xlink="http://www.w3.org/1999/xlink" x="0px" y="0px"
	 viewBox="0 0 20.7 23.8" style="enable-background:new 0 0 20.7 23.8;" xml:space="preserve">
<g>
	<path d="M19.2,8.9c0-6.5-8.9-8.9-8.9-8.9S1.5,2.4,1.5,8.9s0,7.4-1.5,8.9c0,0,2.1,5.9,7.4,5.9c0,0-1.5-1.5-1.5-8.9c0,0-3-0.6-3-5.9
		c3.8,0,5.9,3,5.9,3v5.9l1.5,1.5l1.5-1.5v-5.9c1.4-1.9,3.6-3,5.9-3c0,5.2-3,5.9-3,5.9c0,7.4-1.5,8.9-1.5,8.9c5.3,0,7.4-5.9,7.4-5.9
		C19.1,16.2,19.2,15.5,19.2,8.9z"/>
</g>
</svg>
