<?xml version="1.0" encoding="utf-8"?>
<!-- Generator: Adobe Illustrator 27.7.0, SVG Export Plug-In . SVG Version: 6.00 Build 0)  -->
<svg version="1.1" id="Layer_1" xmlns="http://www.w3.org/2000/svg" xmlns:xlink="http://www.w3.org/1999/xlink" x="0px" y="0px"
	 viewBox="0 0 533.3 666.7" style="enable-background:new 0 0 533.3 666.7;" xml:space="preserve">
<style type="text/css">
	.st0{fill:;}
</style>
<path class="st0" d="M133.3,0L0,200l133.3,466.7H400L533.3,200L400,0H133.3z M333.3,233.3H300v100c0,18.4-14.9,33.3-33.3,33.3
	s-33.3-14.9-33.3-33.3v-100H200c-18.4,0-33.3-14.9-33.3-33.3s14.9-33.3,33.3-33.3h33.3v-33.3c0-18.4,14.9-33.3,33.3-33.3
	s33.3,14.9,33.3,33.3v33.3h33.3c18.4,0,33.3,14.9,33.3,33.3S351.7,233.3,333.3,233.3z"/>
</svg>
