<?xml version="1.0" encoding="utf-8"?>
<!-- Generator: Adobe Illustrator 27.7.0, SVG Export Plug-In . SVG Version: 6.00 Build 0)  -->
<svg version="1.1" id="Layer_1" xmlns="http://www.w3.org/2000/svg" xmlns:xlink="http://www.w3.org/1999/xlink" x="0px" y="0px"
	 viewBox="0 0 85.9 85.4" style="enable-background:new 0 0 85.9 85.4;" xml:space="preserve">
<path d="M85.3,5.7C85,5,84.8,4.5,84.8,4.5l-2.5,2.1l-8.8,23l-0.5-1.9l-2.1-2.4l-1.9,2.2c0,0-0.9,3.5-1.4,5.2
	c-0.1,0.5-0.4,0.9-0.6,1.3c-0.3-0.4-0.7-0.7-0.8-1.2c-1.7-5.8-4.9-17.3-4.9-17.3L59,13.3l-1.6,1.2l-4.1,15.3l-2.1,0.8L2.5,0H0v1.9
	l31.4,49l0,1.6l-16,4.3l-1.8,1.5l1.7,1.5l14.8,4.4l4.3,2.1L29.9,68l-4.4,2l4.1,2.4c0,0,0.6,0.4,0.8,0.6c-0.2,0.1-0.6,0.3-0.6,0.3
	L7.6,81.6l-2.2,2.3l3,1.5h76.6l1-1V7.3C85.9,7,85.6,6.3,85.3,5.7z"/>
</svg>
