<?xml version="1.0" encoding="UTF-8"?>
<svg id="uuid-0f3eb675-e1d0-47e6-ab5d-4df330e324da" data-name="Layer 1" fill="" xmlns="http://www.w3.org/2000/svg" viewBox="0 0 416.81 325.45">
  <path d="m128.13,325.4c22.18,0,44.36-.09,66.54.05,7.98.05,15.76-1.22,17.38-10.17,6.62-36.66,12.09-73.38-11.87-106.72-14.86-20.69-35.09-33.9-59.13-41.06-11.32-3.37-15.48-6.87-8.1-18.73,25.59-41.11,11.65-101.65-28.81-128.41C63.73-6.38,17.29,10.66,3.79,57.18c-12.6,43.44,6.85,90.3,48.64,115.14,9.57,5.69,12.97,9.36,3.36,18.51-31.05,29.6-38.23,85.84-16.8,122.76,4.86,8.38,11.47,11.93,20.88,11.86,22.75-.17,45.5-.05,68.24-.05Zm288.68-181.64c-63.58-13.89-125.42-7.88-185.58,15.95-7.14,2.83-19.69,4.62-11.49,16.93,12.95,19.43,16.82,24.79,30.43,16.24,31.03-19.49,64.93-32.22,101-39.92,21.8-4.65,43.96-4.46,65.64-9.2Zm-74.63-86.01c-27.74-7.96-56.07-8.56-84.21-5.86-21.92,2.1-43.68,6.72-65.21,11.53-11.57,2.58-14.88,14.82-9.64,27.69,4.88,11.97,12.43,6.33,19.48,3.22,44.51-19.62,91.4-29.89,139.59-36.58ZM224.05,5.46c-21.18-7.02-42.2-6.55-63.25-2.64-5.31.99-13.42.58-12.72,7.98.74,7.81,8.89,8.17,14.99,7.05,20.39-3.76,40.66-8.21,60.98-12.4Z"/>
</svg>