<?xml version="1.0" encoding="utf-8"?>
<!-- Generator: Adobe Illustrator 27.7.0, SVG Export Plug-In . SVG Version: 6.00 Build 0)  -->
<svg version="1.1" id="Layer_1" xmlns="http://www.w3.org/2000/svg" xmlns:xlink="http://www.w3.org/1999/xlink" x="0px" y="0px"
	 viewBox="0 0 693.4 717.3" style="enable-background:new 0 0 693.4 717.3;" xml:space="preserve">
<style type="text/css">
	.st0{fill:;}
</style>
<g>
	<path class="st0" d="M160,22.2c22.2,22.2,66.7,155.6,66.7,222.2s-44.4,133.3,44.4,177.8S382.3,400,382.3,311.1
		S360,133.3,337.8,88.9s-44.4,0-44.4,0S271.1,0,248.9,0s-22.2,44.4-22.2,44.4S182.3,0,160,0S160,22.2,160,22.2z"/>
	<path class="st0" d="M137.8,311.1c66.7,0,88.9,88.9,133.3,88.9s22.2-66.7,66.7-66.7S560,222.2,560,88.9s66.7-66.7,66.7-22.2
		c22.2,0,44.4,35.2,44.4,66.7c0,22.2,0,44.4-22.2,66.7c22.2,0,44.4,44.4,22.2,66.7c22.2,66.7-22.2,133.3-66.7,155.6
		c0,22.2-44.4,66.7-88.9,44.4c0,0-22.2,66.7-66.7,44.4c0,0,67.8,37.4,88.9,44.4c66.7,22.2,155.6,22.2,155.6,22.2s0,22.2-44.4,44.4
		c0,0,22.2,22.2,0,44.4s-44.4,22.2-44.4,22.2s22.2,44.4-44.4,22.2s-133.3-88.9-133.3-88.9s-111.1,22.2-200-22.2
		C137.8,555.6,93.4,466.7,93.4,422.2S26.7,400,4.5,400s44.4-44.4,66.7-44.4C71.1,355.6,71.1,311.1,137.8,311.1z"/>
</g>
</svg>
