<?xml version="1.0" encoding="utf-8"?>
<!-- Generator: Adobe Illustrator 27.7.0, SVG Export Plug-In . SVG Version: 6.00 Build 0)  -->
<svg version="1.1" id="Layer_1" xmlns="http://www.w3.org/2000/svg" xmlns:xlink="http://www.w3.org/1999/xlink" x="0px" y="0px"
	 viewBox="0 0 296.1 238.8" style="enable-background:new 0 0 296.1 238.8;" xml:space="preserve">
<style type="text/css">
	.st0{fill:;}
</style>
<g>
	<path class="st0" d="M9.9,238.8c-1,0-5.2-2.6-6.1-3.6c-1.3-1.4-2.9-2.7-3.4-4.4c-1.5-4.4,1.6-6.7,5.1-7.6c18-4.2,36-8.4,54.1-11.9
		c18.8-3.7,37.6-7.3,56.6-9.6c23.7-2.9,47.5-4.3,71.3-6.4c4.1-0.4,8.3-0.5,12.4-1c1.3-0.2,3.6-1.4,3.5-1.9c-0.1-1.5-1.1-3.1-2.1-4.2
		c-8.1-9.4-17-18.2-24.3-28.2c-4.6-6.3-7.9-14.1-9.8-21.6c-2.5-10-3.8-20.4-4.2-30.7c-0.7-14.8,0.1-29.6-0.4-44.3
		c-0.1-2.1-3.1-5-5.5-6.1c-6.6-3.2-13.6-5.5-20.3-8.6c-1.3-0.6-2.9-4-2.5-4.4c1.9-2,4.2-3.7,6.7-4.9c6.3-3,12.9-5.5,19.2-8.5
		c0.6-0.3,0.7-3.4,0.1-4c-8.2-6.8-16.8-13.2-24.9-20.2c-1.2-1-0.7-4-0.7-6c0-0.2,1.8-0.6,2.8-0.6c18.7,0,37.3,0,56,0
		c17.7,0,35.4,0.1,53.1-0.1c7.1-0.1,10,5.5,13.6,9.7c4.9,5.7,9.1,12,13.5,18.1c6.2,8.5,12.3,17.1,18.4,25.6c1.2,1.6,2.7,3.2,3.3,5
		c2.5,7.2-4,11.4-6,17.1c-0.9,2.5-2.2,4.9-3.7,7.1c-6.7,9.4-16.8,6.6-25.4,5.6c-6.2-0.8-11.8-6-17.8-8.9c-4.3-2.1-8.8-4.5-13.4-5.2
		c-5.9-1-12.2-0.9-18.2-0.2c-1.8,0.2-4.5,4-4.6,6.3c-0.4,9.2-1.4,19.1,5.8,26.4c3.7,3.7,8.5,6.4,13.1,8.9c6.9,3.8,14,7.1,21,10.6
		c6.3,3.1,13,5.6,18.9,9.4c5.5,3.5,11.4,7.1,17,14c7.9,9.7,10.4,19.7,11.3,23.7c2.3,11.4,0.4,20.4-0.1,22.3
		c-3.5,15-13.1,24.1-19.1,29.8c-6.7,6.3-13.8,10.7-20,13.7 M238,45.7c1.8-1.1,5.1-2.6,7.4-5c0.8-0.9-0.4-5.6-1.7-6.1
		c-4.3-1.8-9-2.8-13.7-3.4c-1.3-0.2-4.1,1.8-4.3,3.1C225,39.7,230.9,45.7,238,45.7z"/>
	<path class="st0" d="M157.9,136.6c0.1,1,0.2,2-0.2,3.3c-2.5,7.9-20.7,8.6-29.1,8.6c0,0,0,0,0,0.1c-24.9,0-49.9,0.2-74.8-0.3
		c-2.8-0.1-6.6-3.1-7.9-5.8c-0.8-1.6,1.8-5.9,3.9-7.7c5.7-5,11.9-9.5,18-14.1c4.2-3.1,8.6-6,12.8-9.1c1.9-1.4,3.5-3.1,5.1-4.8
		c0.3-0.3,0.2-1.7,0.1-1.7c-1.4-0.4-3-1-4.3-0.8c-12.1,2.3-24.1,4.9-36.1,7.3c-10.8,2.2-21.5,4.6-32.4,6.3c-3.2,0.5-7.1-0.4-9.9-2
		c-1.7-0.9-3.3-5.4-2.4-6.7c2.3-3.5,6-6,9-9c9.8-9.8,19.3-19.7,29.2-29.3c8.2-7.9,16.5-15.6,25.2-22.8c4.7-3.9,21.3-2.1,26.3,1.5
		c9.8,7.1,19.9,13.8,29.8,20.9c16.8,12.1,20.2,14,22.6,16.3c0.8,0.8,1.7,1.8,2.8,3.2C150,95.4,153.5,102.2,157.9,136.6z"/>
</g>
</svg>
