<?xml version="1.0" encoding="utf-8"?>
<!-- Generator: Adobe Illustrator 27.7.0, SVG Export Plug-In . SVG Version: 6.00 Build 0)  -->
<svg version="1.1" id="Layer_1" xmlns="http://www.w3.org/2000/svg" xmlns:xlink="http://www.w3.org/1999/xlink" x="0px" y="0px"
	 viewBox="0 0 67.6 64.3" style="enable-background:new 0 0 67.6 64.3;" xml:space="preserve">
<g>
	<path d="M50.9,39.2c0,0.2-0.1,0.5,0,0.7c0.6,1.7,1.3,3.3,1.9,4.7c0.6-1.7-0.1-3.5-1-5.3C51.7,39.2,51.2,39.3,50.9,39.2z"/>
	<path d="M47,37.4c-0.1,0-0.6,0.5-0.6,0.6c0.6,1.6,1.3,3.1,2.5,5.9c-0.5-2.8-0.8-4.4-1.1-5.9C47.7,37.7,47.3,37.5,47,37.4z"/>
	<path d="M23.7,26.3c-0.2,0.1-0.4,0.5-0.4,0.6c1.1,2.6,3.6,4.4,5.8,3.4c2.6-1.1,5-1.2,7.8-1c0.2-0.1,0.7-0.2,1.1-0.3
		c-0.1-0.1-0.2-0.4-0.3-0.4c-1-0.3-2-0.7-3-0.7c-3.4-0.2-6.9,0.6-9.9-1.8C24.7,25.9,24.1,26.1,23.7,26.3z"/>
	<path d="M26.8,19.6c3.9,1.2,7.2,3.1,9.6,6.5c0.5,0.7,1.1,1.9,2,1.5c1.1-0.6,2.8-2,2.7-2.6c-0.6-2.6-2-5.1-2.9-7.7
		c-0.4-1.2-0.3-2.5-0.4-3.7c0.5,0.8,1.1,1.6,1.6,2.4c0.6,0.8,1.2,1.6,1.8,2.4c0.3,0.3,0.6,0.6,0.8,0.9c0-0.5,0.2-1.2-0.1-1.5
		c-1.1-1.2-0.5-2.7-0.9-3.9c-1-2.6-3.8-3.8-5.7-5.8c0,0-0.4,0.1-0.5,0.2c-0.5,1.3-0.5,1.3-2,0.3c-0.2,1.4-0.3,2.8-0.5,4.5
		c-1.1-1.2-2-2.2-2.9-3.1c-0.6-0.6-0.6-0.6-0.9-0.2c-0.5,0.6-0.8,0-1.1-0.3C24.5,6,21,3.6,16.4,3C16.2,3,16,3,15.8,3
		c0.1,0.1,0.1,0.3,0.2,0.4c1.1,1,2.3,2.1,4.3,4c-2.5-0.9-3.8-1.5-5.1-1.8c-0.8-0.2-1.7-0.1-2.6-0.1c0.1,0.3,0,0.7,0.2,0.9
		c0.4,0.5,0.9,0.9,1.4,1.4c-0.6-0.1-1.1-0.2-1.7-0.1C8.9,8.1,5.4,7.8,1.9,6.2C1.3,5.9,0.6,5.6,0,5.3c0.5,0.7,1.1,1.3,1.4,2
		c1.4,2.9,5.4,3.1,6.5,6c-0.6,0.1-1.2,0.1-1.8,0.2c-0.1,0-0.1,0.2-0.2,0.4c0.5,0.1,0.9,0.2,1.4,0.3c2.4,0.4,4.8,0.6,7,1.2
		C18.6,16.7,22.7,18.4,26.8,19.6z"/>
	<path d="M44.5,28.8c-0.5-1.3-1.3-1.7-2.2-1.8c-1.1-0.1-2.4,0-3.2,1.3c-1,1.5,0.7,0.8,1,1.2c1.4,1.8,2.8,3.5,4.3,5.2
		c0.6,0.6,1.4,1.1,2.1,1.6c0.4-1.3-0.8-1.9-1.5-2.6c-1.1-1-1.8-2.6-3.5-2.8c-0.2,0-0.4-0.5-0.5-0.8c0.2,0,0.5-0.2,0.7-0.1
		c2.4,0.8,4,2.7,6,4c1.1,0.7,1.2,3.3,2.4,2.3c2.2-1.7,2.3,0.6,3.3,1.1c0.2,0.1,0.2,0.6,0.4,1c0.8-1,1.7-2,2.5-3.1
		c0-0.1-0.3-0.5-0.6-0.7c-4-2.2-5.6-6.8-9.6-9.1c-1.3-0.7-2.2,0.7-3.1-0.2c-0.1,0.1-0.2,0.3-0.1,0.4c0.4,0.9,1.3,1.1,2.8,1.2
		c1.2,0.4,2.8,1.1,3.8,2.8c0.2,0.4,0.3,0.9,0.5,1.3C48.3,29.8,45.4,31,44.5,28.8z"/>
	<path d="M57.5,45.4c0.1-0.2,0.2-0.3,0.4-0.5c-0.5-1.5-0.9-3-1.3-4.5c-0.2,0.4-0.5,0.9-0.5,1.3C56.2,42.9,56.2,44.4,57.5,45.4z"/>
	<path d="M49.9,9.6c-0.2-0.9-0.4-2.2-0.7-3.6c-0.2-1.1-0.5-2.2-0.8-3.2c0,0.9,0,1.8-0.1,2.7c0,0.1,0,0.2-0.1,0.3
		c-0.4,4,0.8,7.7,3,10.9c2,2.9,5.1,5.2,2.8,9.3c-0.2,0.4,0.2,1.1,0.4,1.7c0,0.1,0.2,0.1,0.3,0.1c0-0.4-0.2-0.9-0.1-1.2
		c0.1-0.4,0.5-0.8,0.8-1.2c0.1,0.3,0.3,0.6,0.4,1c0.5,1.5-0.5,3.6,0.9,4.6c5.1,4,9,8.5,6.8,15.7c1.4-3.3,2.3-6.8,0.8-9.8
		c-1.3-2.6-3.9-4.6-6-6.9c-0.2-0.3-0.3-0.6-0.5-0.9c1.3,0,2.6-0.1,4,0c0.1,0,0.4,0.8,0.2,1c-0.3,0.6-1.5,1.1-0.3,1.9
		c0.9,0.6,1.6-0.1,2.1-0.8c0.7-1,0-1.5-0.7-2c-2.4-1.8-6.9-1.2-7-5.8c0-0.5,0.2-0.9,0.4-1.4c0-0.1,0.2-0.1,0.4-0.2
		c-0.1,0.4-0.3,0.7-0.3,1.1c0,0.2,0,0.6,0.1,0.6c0.3,0.1,0.9,0.2,1,0c2-1.9,1.5-4.3,0.9-6.5c-0.1-0.3-0.6-0.4-0.9-0.6
		c0,0.3,0,0.7-0.1,1c0,0.2,0,0.4,0,0.6c-0.1,0-0.2-0.1-0.3-0.1C55,14,50.5,11.2,52,5.7c0.1-0.4,0.2-0.7,0.3-1.1
		c0.1,0.1,0.2,0.1,0.3,0.2c-0.3-1.7-0.8-3.4-1.5-4.9C50.9,3.3,51.2,6.6,49.9,9.6z"/>
	<path d="M67.6,54.2C67.6,54.2,67.6,54.2,67.6,54.2C67.6,54.2,67.6,54.2,67.6,54.2C67.6,54.2,67.6,54.2,67.6,54.2z"/>
	<path d="M35.2,27c0.1,0,0.1-0.5,0-0.6c-1.5-2.1-3.6-3.4-5.8-4.6c-0.6-0.3-0.6,0.3-0.7,0.6C28.8,24.4,33.2,27.6,35.2,27z"/>
	<path d="M64.9,48c-0.4,0.5-0.7,1-1.1,1.4c-0.7,0.7-2.1,1.9-2.2,1.8c-1.1-0.9,0.3-1.5,0.5-2.3c0.6-3.1,1.1-6.1-1-10.5
		c1,4.7,1.1,8-0.1,11.1c-0.1,0.3-0.5,0.5-0.8,0.8c-0.2-0.3-0.4-0.7-0.5-1c-0.2-0.5-0.3-1.1-0.5-1.6c-0.3,0.5-0.6,1-1,1.5
		c-0.3,0.5-0.7,1.1-1,1.6c-0.3-0.6-0.6-1.3-1-1.9c-0.3-0.7-0.7-1.4-1-2.1c-0.3,0.2-0.6,0.4-0.8,0.7c-0.6,0.9-1.2,1.8-1.8,2.8
		c-0.4-1.3-0.8-2.5-1.2-3.8c-0.1-0.2,0-0.5-0.1-0.7c-0.3-0.6-0.6-1.1-0.9-1.7c-0.2,0.2-0.5,0.3-0.6,0.5c-0.4,0.7-0.8,1.4-1.2,2.1
		c-0.4-0.8-0.8-1.6-1.1-2.5c-1.3-4.1-3.8-7.6-7.6-9.5c-3.5-1.8-7.6-1.1-11.5-1c-2,0.1-1.8,1.7-1.9,3c-0.1,1,0.5,2.2,1.4,1.9
		c3.8-1.4,2.2,2.1,3,3.2c0.7,1,0.5,2.8,1.4,3.5c2.3,1.9,0.9,2.6-0.8,3.5c-1.7,1-1.1-1.2-2-1.4c-2.8-0.4-5.2-1.4-6-4.6
		c-0.2-0.7-1-1.4-2-1.2c-0.5,0.1-0.9,0.1-1.3,0.2c0-0.8-0.6-1.5-0.1-2.5c0.8-1.5,1.4-3.1,1.8-4.7c0.3-1,0.2-2.1,0.2-3.2
		c-3.6,0.2-7.2,0.4-10.7,0.6c-1.2,0.1-2.4,0-0.2,1c0.7,0.3,1,1.6-0.1,2.1c-1.7,0.8-2.3,2.4-2.4,3.9c-0.1,1.2,1.1,0.6,1.7,0.1
		c0.1,0.1,0.2,0.3,0.2,0.4c-1,2.7,1.3,3,2.7,3.9c1,0.7,1.9,1.4,0.5,2.4c-1.2,0.9-0.9,1.8,0.1,2.3c2.8,1.2,1.8,3.2,1.2,5.1
		c-0.2,0.7-0.4,1.4-0.6,2.1c-0.1,0.5-0.5,1.5,0.4,1.2c1.3-0.3,2.5-1.2,3.7-1.8c0.7-0.3,1.6-1.1,2.1-0.2c1.3,2.3,3.3,0.7,4.9,1.1
		c0.3,0.1,0.8-0.1,0.9,0c0.2,0.4,0.4,1,0.3,1.3c-0.6,0.9,0,0.9,0.6,1c2.1,0.2,4.2,0.1,6.2,0.6c1.1,0.3,1.9,1.9,3,2.1
		c2.7,0.5,5.2,1.2,7.3,3c0.9,0.8,2,0.8,2.8,0.3c0.8-0.4,0.7-1.5,0.3-2.4c0.3-0.2,1.2,0.6,0.9-0.4c-0.8-2.5-2.5-3.9-5.1-2.5
		c-1.4,0.8-2.2,0.5-3.1-0.4c-1.2-1.1-2.1-2.6-3.5-3.4c-3.5-2.2-2.4-3.7,0.6-5.1c0.7-0.3,1.1-1,0.8-2c-0.1-0.3,0-0.7,0.1-0.9
		c0-0.1,0.4-0.1,0.6-0.1c0,0.3,0.1,0.6,0.1,1c0.2,1,0,2.3,0.6,2.9c0.6,0.6,1.7,0,2.6-0.4c1-0.5,2.4-0.5,2.7,0.7
		c0.2,0.8-1,0.3-1.6,0.5c-0.4,0.2-0.5,0.4,0.1,0.8c2.3,1.5,3.3-0.7,4.7-1.7c0.2-0.2,0.5-0.3,0.7-0.5c0,0.3,0,0.5,0.1,0.8
		c0.5,1.4-0.6,3.6,1.4,4.3c1.3,0.5,1.8-1.2,2.7-1.9c0.3-0.2,0.5-0.4,0.8-0.7c0.1,0.3,0.2,0.7,0.3,1c0.1,0.7,0.2,1.4,0.4,2.1
		c0.4-0.2,0.7-0.3,1-0.6c0.3-0.2,0.5-0.6,0.8-0.9c0.2-0.2,0.8-0.7,0.7-0.1c-0.2,0.8-0.9,1.5-1.4,2.3c-0.2,0.3-1-0.9-0.9,0.2
		c0,0.5,0.5,0.9,0.8,1.4c0.4-0.4,0.9-1,1.3-1c1,0,0.7-4.7,2.8-0.8c0,0.1,0.4,0.1,0.5,0c1.4-1.8,2.8-3.6,4.3-5.3
		c0.3-0.3,0.6-0.6,0.9-1c0.2,0.8,0.4,1.5,0.5,2.3c0,0.2-0.2,0.7-0.2,0.7c-3.3-0.5-3.5,2.4-4.5,4.2c-0.3,0.4-1,0.9-0.2,1.4
		c0.7,0.4,1.4-0.3,1.4-0.9c0-2.6,3.2-1.7,3.7-3.7c0.2,0.1,0.5,0.3,0.5,0.4c0.3,1.2-2.1,2.6-0.4,3.2c1.1,0.4,0.5-2.2,2.1-3.4
		c-0.4-1.4-0.8-2.7-1.5-3.9C65.7,49.5,65.3,48.7,64.9,48z"/>
	<path d="M19.5,50.1c0.3,0.4,0.8,0.8,0.7,1c-0.4,1.8-2.4,1.2-3.4,2.2c-0.1-0.2-0.4-0.5-0.3-0.5C17.4,51.9,18.4,51.1,19.5,50.1z"/>
</g>
</svg>
