<?xml version="1.0" encoding="utf-8"?>
<!-- Generator: Adobe Illustrator 27.7.0, SVG Export Plug-In . SVG Version: 6.00 Build 0)  -->
<svg version="1.1" id="Layer_1" xmlns="http://www.w3.org/2000/svg" xmlns:xlink="http://www.w3.org/1999/xlink" x="0px" y="0px"
	 viewBox="0 0 179.3 192.5" style="enable-background:new 0 0 179.3 192.5;" xml:space="preserve">
<style type="text/css">
	.st0{fill:;}
</style>
<g>
	<path class="st0" d="M88.4,122.2c-6.9-0.1-13.7-1.2-20.3-3.1c-6.3-1.8-12.4-4.3-18.2-7.5C39.5,106,30.3,98.7,22,90.2
		C13.7,81.8,6.4,72.7,0.5,62.5c-0.9-1.6-0.3-2.4,0.4-3.5c6.6-11.2,14.6-21.2,23.9-30.3c6.9-6.7,14.5-12.6,23-17.4
		C55.4,7,63.3,3.6,71.9,1.8C83.8-0.7,95.8-0.8,107.6,2c11.6,2.8,22,8.2,31.7,15.1c10.3,7.4,19.3,16.2,27.5,25.9
		c3.6,4.3,6.9,8.9,10,13.5c0.9,1.3,1.6,2.6,2.4,3.9c0.2,0.3,0.2,0.6,0,0.9c-5,8.3-10.7,16.1-17.4,23.3c-5.4,5.8-11,11.5-17.3,16.4
		c-6.8,5.3-14.1,9.9-21.9,13.6c-6.4,3.1-13.2,5-20.2,6.4C97.7,122,93.1,122,88.4,122.2z M50.6,60c0,5.8,0.7,11,2.9,16
		c4.7,11.3,13,18.7,24.7,22.3c9.4,2.9,18.9,2.4,28.1-2c12.2-6,19.1-15.9,21.9-28.9c0.1-0.7,0-1.1-0.9-0.9c-5.3,1.6-10.6,1.9-16,0.7
		c-5.7-1.2-10.8-3.7-15.4-7.3c-6.2-5-10.1-11.4-12-19.2c-1.5-5.8-1.9-11.5,0-17.4c0.2-0.9,0-1.2-0.9-1c-3.7,0.9-7.6,1.7-10.9,3.7
		c-5.7,3.2-10.7,7.2-14.4,12.8C53,45.3,50.4,52.4,50.6,60z"/>
	<path class="st0" d="M7.4,124.3c0.9-0.1,1.2,0.4,1.8,0.5c3.9,0.8,7.8,1.8,11.5,2.9c3.2,0.9,6.5,1.7,9.9,2.5
		c6.4,1.7,13,3.5,19.4,5.3c7.2,2,14.5,3.8,21.8,5.8c4.7,1.3,9.3,2.4,13.9,3.8c1.4,0.5,2.9,0.8,4.8,0.3c7.5-2.2,15.2-4.1,22.7-6.1
		c5.2-1.4,10.4-2.9,15.8-4.2c9.3-2.3,18.3-5,27.6-7.3c4.2-1.1,8.4-2,12.4-3.4c0.4-0.2,1.1-0.3,1.4-0.1c0.3,0.4-0.3,0.6-0.7,0.8
		c-3.6,3-7.2,5.9-10.8,8.9c-4.3,3.6-8.8,7.3-13.1,10.9c-7.5,6.3-15.2,12.7-22.7,19c-7,5.9-14,11.7-21,17.4
		c-4.3,3.5-8.5,7.1-12.9,10.7c-0.4,0.3-0.7,0.5-1.1,0c-8.2-6.8-16.3-13.6-24.5-20.4c-10.2-8.4-20.3-16.8-30.4-25.3
		c-4.1-3.5-8.3-7.1-12.5-10.5c-4.4-3.6-8.8-7.4-13.3-11c-0.2-0.2-0.7-0.3-0.6-0.6C6.8,124.1,7.3,124.3,7.4,124.3z"/>
</g>
</svg>
