<?xml version="1.0" encoding="utf-8"?>
<!-- Generator: Adobe Illustrator 27.7.0, SVG Export Plug-In . SVG Version: 6.00 Build 0)  -->
<svg version="1.1" id="Layer_1" xmlns="http://www.w3.org/2000/svg" xmlns:xlink="http://www.w3.org/1999/xlink" x="0px" y="0px"
	 viewBox="0 0 64 58.7" style="enable-background:new 0 0 64 58.7;" xml:space="preserve">
<g>
	<path d="M55.5,3c0.5,0.1,0.4-0.3,0.4-0.5C56,2.1,55.7,2,55.3,2c-0.4,0-0.3,0.3-0.3,0.5C55,2.9,55.2,3.1,55.5,3z"/>
	<path d="M52,19.7c-0.1,0.3,0.1,0.5,0.4,0.4c0.3,0,0.5-0.1,0.5-0.5c0-0.5-0.3-0.6-0.7-0.6C51.9,19.1,52,19.5,52,19.7z"/>
	<path d="M39,5.5c0,0.9,0,1.6,0,2.3c0.1,1.7,1.4,4.2,4.1,4.5c3.1,0.4,6,1.5,8.6,3.3c2.1,1.5,3.7,3.5,4.8,5.9
		c0.2,0.3,0.3,0.7,0.8,0.3c1.6-1.5,3.1-3.1,4.4-4.9c0.2-0.3,0.1-0.4-0.1-0.7c-1-1.5-2.6-2.4-3.9-3.7c-0.9-0.8-1.6-1.7-2.6-2.3
		c-1.4-0.8-3.1-1.1-4.7-1.5c-1.8-0.4-3.5-1.1-5.3-1.3c-2.1-0.3-3.2-1.7-4.4-3c-0.9-1-0.1-2.8-1.4-3.8c-0.2-0.1,0.2-0.7-0.2-0.6
		c-0.3,0-0.6,0.4-0.6,0.9C38.8,2.5,39.2,4.1,39,5.5z"/>
	<path d="M55.3,55c-0.4,0.1-0.7,0.3-1,0.6c-0.9,0.8-1.7,1.5-1.8,2.9c0,0,0.1,0.2,0.1,0.2c0.2,0,0.5-0.1,0.7-0.2
		c0.9-0.7,1.8-1.5,2.6-2.3c0.2-0.2,0.7-0.2,0.4-0.6C56.1,55.2,55.9,54.8,55.3,55z"/>
	<path d="M55.7,35.7c-1.1,0.9-1.4,2.6-2.3,3.7c-2.4,3.3-5.4,5.8-9.3,7.1c-1.3,0.4-2.8,0.7-3.5,2.1c-0.9,1.7-1.7,3.6-2.5,5.4
		c-0.2,0.4-0.1,0.8,0,1.2c0,0.1,0.1,0.2,0.2,0.3c0.1,0,0.3-0.1,0.3-0.1c0.6-1,1.4-1.9,2.3-2.7c1.7-1.6,3.2-3.3,5.3-4.3
		c1.5-0.6,3-1.1,4.4-2c2.2-1.5,4.2-3.4,5.9-5.4c0.9-1.1,2.2-1.9,2.8-3.3c0.5-1.2,1-2.7,2.9-2.5c0,0,0.1,0,0.1-0.1
		c0.4-0.9,1.5-1.2,1.7-2.2v-2c-0.9,0.5-1.8,1-2.6,1.5C59.5,33.5,57.4,34.3,55.7,35.7z"/>
	<path d="M57.9,25.4c-0.8,0.6-1,1.3-0.9,2.2c0,1,0.6,1,1.1,0.6c0.9-0.7,1.9-1.5,2.7-2.4c1-1.1,2.5-1.7,3.2-3.1v-1.9
		C62.1,22.4,60,23.9,57.9,25.4z"/>
	<path d="M31.9,29.2c-0.2,1.7,0.9,3.2,1.6,4.9c0.1,0.2,0.3,0.3,0.5,0.4c0-0.2,0.1-0.4,0.1-0.6c0.2-2.1-0.5-4-1.2-5.8
		c-0.1-0.4-0.4-0.8-0.8-0.8c-0.3,0.1-0.3,0.6-0.3,1C31.9,28.5,31.9,28.7,31.9,29.2z"/>
	<path d="M12.2,39.6c1.1-0.5,2.2-0.2,3,0.6c2.6,2.5,5.4,4.8,8.7,6.4c5.4,2.6,10.9,1.9,16.4,0.1c1.4-0.5,2.4-1.6,3.6-2.5
		c1.7-1.4,3.3-2.8,4.6-4.6c0.1-0.1,0.1-0.2,0.1-0.3c-0.1,0-0.3,0-0.3,0c-0.5,0.3-1,0.8-1.6,1c-2.5,0.9-5,2-7.4,3.3
		c-1.9,1-3.8,1.9-5.8,2.3c-0.1,0-0.2,0-0.3,0c0,0,0-0.1,0-0.1c0.3-0.2,0.6-0.5,1-0.7c3-1.5,5.7-3.4,8.4-5.3c2.5-1.7,5.1-3.4,7.3-5.5
		c1.2-1.1,2.4-2.1,1.9-4c-0.1-0.4-0.4-0.9-0.9-0.7c-1.2,0.6-2.4,1.3-3.7,1.9c-0.1,0-0.2,0-0.3,0.1c0-0.1,0-0.2,0.1-0.3
		c1.2-1,2.4-2.1,3.6-3.1c0.4-0.4,0.8-0.8,0.8-1.4c0-1-0.3-1.9,0-2.9c0-0.2-0.2-0.5-0.3-0.6c-1-0.6-1.5-1.6-2.1-2.6
		c-1.4-2.6-3.8-4.5-6.3-6c-1.8-1.1-3.9-1.3-5.9-2.1c-1.1-0.5-2.4-0.7-3.2-1.4c-1-0.9-2-1.8-2.4-3.2c0-0.1-0.3-0.3-0.4-0.3
		c-0.2,0-0.3,0.2-0.3,0.4c-0.1,0.7-0.2,1.3-0.2,2c0,1-0.3,1.7-1.5,1.9c-1.2,0.3-2.1-0.3-3-0.9c-1.4-0.8-2.3-1.8-2.2-3.6
		c0.1-1.8,0-3.7,0.1-5.5c0-0.1,0-0.2-0.1-0.3c-0.1,0-0.1,0-0.2,0.1C22.8,2.9,22,3.8,22,5.2c0,0.5-0.2,1.1-1,0.8
		c-0.2-0.1-0.4-0.2-0.6,0c-0.2,0.2-0.1,0.5,0,0.7c0.1,0.5,0.6,1,0.3,1.5c-0.9,1.7-1.6,3.6-3.3,4.8c-0.9,0.6-1.9,0.6-2.7,0.3
		c-2.8-1.1-5-3.1-7.3-4.8C5.2,7,3,5.3,0.6,4.1C0.3,3.9,0.1,4,0,4.3v0.1c0.2,1,0.9,1.3,1.7,1.9c1.5,1,2.8,2.3,4.2,3.4
		c1.4,1.1,2.8,2,3.8,3.5c0.3,0.4,0.4,0.7,0,1.1c-0.3,0.3-0.2,0.5,0,0.8c0.6,1,0.9,2.1,0.3,3.2c-0.3,0.6-0.9,1-1.4,1.4
		c-1.1,1.2-2.3,2.5-3.1,4c-0.7,1.5-1.6,2.9-1.8,4.6c-0.2,1.3-1.3,1.8-2.7,1.5c-0.4-0.1-0.8-0.1-1,0.3v0.5c0.1,0.5,0.4,0.8,0.9,0.7
		c0.9-0.2,1.5,0,1.2,1.1c0,0.2,0,0.5,0,0.7c0,2.5,0.5,5.1-0.4,7.6c-0.5,1.3-0.1,2,1.3,2.1c1.7,0.1,2.7,1.1,3.8,2.1
		c1.2,1.1,2.4,2.2,3.6,3.3c0.5,0.4,0.9,0.7,1.2-0.2c0.2-0.4,0.5-0.3,0.8-0.1c1.4,1.4,3.2,2.3,5.1,2.9c1.8,0.6,3.6,1.3,4.9,2.8
		c0.3,0.4,0.7,0.6,1.2,0.4c0.5-0.2,1-0.4,1-1.1c0-0.2,0.1-0.4,0.4-0.4c0.4,0,1-0.1,1-0.5c0-0.5-0.4-0.9-0.9-1.1
		c-1.3-0.7-2.8-1.3-4.3-1.6c-4.6-0.9-7.5-3.6-8.8-8.1C11.8,40.7,11.4,39.9,12.2,39.6z M29.1,21.5c0-0.8,0.2-1.6,0.6-2.2
		c0.3-0.5,0.9-0.2,1.2,0.1c1.3,1.8,2.8,3.5,3.7,5.5c0.9,1.9,1.4,4,1.7,6.1c0.1,0.9,0.2,1.8,0.2,3c-0.4,1.9,0.2,4.3-0.7,6.5
		c-0.1,0.3-0.2,0.5-0.5,0.5c-0.3,0.1-0.3-0.2-0.4-0.4c-1.2-2.5-3-4.5-4.3-6.9c-1.3-2.3-1.7-4.8-1.4-7.4
		C29.3,24.7,29.1,23.1,29.1,21.5z M11.7,37.2c-0.1,0-0.2-0.2-0.3-0.3c-0.1-1.4-0.4-2.8,0-4.2c0-0.1,0.1-0.2,0.2-0.3
		c0.1,0.1,0.2,0.2,0.2,0.3c0.1,1.2,0.2,2.3,0.3,3.4c0,0.3,0,0.6-0.1,0.8C12,37,11.8,37.2,11.7,37.2z"/>
</g>
</svg>
