<?xml version="1.0" encoding="utf-8"?>
<!-- Generator: Adobe Illustrator 27.7.0, SVG Export Plug-In . SVG Version: 6.00 Build 0)  -->
<svg version="1.1" id="Layer_1" xmlns="http://www.w3.org/2000/svg" xmlns:xlink="http://www.w3.org/1999/xlink" x="0px" y="0px"
	 viewBox="0 0 28.1 21.1" style="enable-background:new 0 0 28.1 21.1;" xml:space="preserve">
<style type="text/css">
	.st0{display:none;}
</style>
<g>
	<path class="st0" d="M21.7,5c-0.9-0.2-2.1,0-2.7-1c-0.4-0.8-1.1-1.3-1.8-1.8c-4.3-2.9-9-2.9-13.4,0.2c-3.1,2.2-4.6,7-3.5,10.9
		c1.6,5.8,8.2,8.3,12,7.3c1.8-0.5,3.5-0.8,5.3,0.1c0.6,0.3,1.4,0.3,1.7,0.3c4.3,0.2,8.1-3.2,8.8-7.5C28.6,10,25.6,6,21.7,5z
		 M21.9,15.4c-1.1,0-2.1,0-3.2,0c-0.3,0-0.4-0.2-0.3-0.4c0.6-0.8,0.2-1.6,0.2-2.4c0-0.6,0.2-1.2-0.2-1.7c0,0,0-0.3,0.1-0.3
		c0.4-0.2,0.8-0.2,1.2,0c0.1,0.1,0.2,0.3,0.2,0.4c-0.1,1-0.2,2-0.2,3c-0.1,0.8,0.6,0.7,1,0.8c0.5,0,0.9-0.1,1.3,0
		c0.2,0,0.3,0.2,0.5,0.3C22.3,15.1,22.1,15.4,21.9,15.4z M23.2,8.4c-0.2,0.3-0.5,0.5-1,0.3c-2.8-1.2-5.6-0.2-6.9,2.5
		c-0.3,0.6-0.2,1.3-0.3,1.9c0,1.3,0.7,2.3,1.6,3.1c0.3,0.3,0.3,0.5,0,0.7c-0.3,0.2-0.1,1-0.9,0.5c-1.3-0.8-1.9-1.9-2.1-3.3
		c0-0.2-0.1-0.3-0.3-0.2C11.9,14.2,10.4,14,9,14c-0.2,0-0.4-0.1-0.5-0.2c-0.1-0.2,0-0.4,0.2-0.6c0.5-0.5,0.2-1.2,0.2-1.8
		c-0.2-1.3-0.2-2.5-0.1-3.8c0-0.3-0.6-0.5-0.2-0.7c0.5-0.3,1.2-0.2,1.7,0c0.4,0.2,0.1,0.6,0.1,0.9c0.1,1.5,0.3,2.9,0.1,4.4
		c0,0.2,0.3,0.5,0.6,0.5c0.8,0.1,1.8,0.6,2.2-0.4c0.6-1.7,1.2-3.3,2.8-4.4c0.2-0.2,0.3-0.4,0.1-0.7C14.6,5.1,12.6,4,10,4.3
		c-2.8,0.3-4.5,2-5.4,4.5c-0.8,2.1,0.3,5,2.1,6.3c0.3,0.2,0.5,0.6,1,0.8c0.2,0.1,0,0.2-0.2,0.2c-0.2,0-0.3,0.1-0.4,0.1
		c-0.5,0-1,0.2-1.4,0.5c-0.2,0.1-0.4,0.2-0.6,0c-2.5-2.2-3.5-5-2.8-8.2c0.8-3.6,3.3-5.8,7-6.4c3.2-0.5,6,0.5,8,3
		c0.4,0.5,0.9,0.9,1,1.5c0,0.1,0.3,0.2,0.5,0.2c1.3,0,2.6,0.1,3.8,0.8C23,7.8,23.3,8.1,23.2,8.4z"/>
	<path d="M22.5,15c-0.2,0.1-0.4,0.4-0.5,0.4c-1.1,0-2.1,0-3.2,0c-0.3,0-0.4-0.2-0.3-0.4c0.6-0.8,0.2-1.6,0.2-2.4
		c0-0.6,0.2-1.2-0.2-1.7c0,0,0-0.3,0.1-0.3c0.4-0.2,0.8-0.2,1.2,0c0.1,0.1,0.2,0.3,0.2,0.4c-0.1,1-0.2,2-0.2,3
		c-0.1,0.8,0.6,0.7,1,0.8c0.5,0,0.9-0.1,1.3,0C22.1,14.7,22.3,14.9,22.5,15z"/>
	<path d="M23.2,8.4c-0.2,0.3-0.5,0.5-1,0.3c-2.8-1.2-5.6-0.2-6.9,2.5c-0.3,0.6-0.2,1.3-0.3,1.9c0,1.3,0.7,2.3,1.6,3.1
		c0.3,0.3,0.3,0.5,0,0.7c-0.3,0.2-0.1,1-0.9,0.5c-1.3-0.8-1.9-1.9-2.1-3.3c0-0.2-0.1-0.3-0.3-0.2C11.9,14.2,10.4,14,9,14
		c-0.2,0-0.4-0.1-0.5-0.2c-0.1-0.2,0-0.4,0.2-0.6c0.5-0.5,0.2-1.2,0.2-1.8c-0.2-1.3-0.2-2.5-0.1-3.8c0-0.3-0.6-0.5-0.2-0.7
		c0.5-0.3,1.2-0.2,1.7,0c0.4,0.2,0.1,0.6,0.1,0.9c0.1,1.5,0.3,2.9,0.1,4.4c0,0.2,0.3,0.5,0.6,0.5c0.8,0.1,1.8,0.6,2.2-0.4
		c0.6-1.7,1.2-3.3,2.8-4.4c0.2-0.2,0.3-0.4,0.1-0.7C14.6,5.1,12.6,4,10,4.3c-2.8,0.3-4.5,2-5.4,4.5c-0.8,2.1,0.3,5,2.1,6.3
		c0.3,0.2,0.5,0.6,1,0.8c0.2,0.1,0,0.2-0.2,0.2c-0.2,0-0.3,0.1-0.4,0.1c-0.5,0-1,0.2-1.4,0.5c-0.2,0.1-0.4,0.2-0.6,0
		c-2.5-2.2-3.5-5-2.8-8.2c0.8-3.6,3.3-5.8,7-6.4c3.2-0.5,6,0.5,8,3c0.4,0.5,0.9,0.9,1,1.5c0,0.1,0.3,0.2,0.5,0.2
		c1.3,0,2.6,0.1,3.8,0.8C23,7.8,23.3,8.1,23.2,8.4z"/>
</g>
</svg>
