<?xml version="1.0" encoding="utf-8"?>
<!-- Generator: Adobe Illustrator 27.7.0, SVG Export Plug-In . SVG Version: 6.00 Build 0)  -->
<svg version="1.1" id="Layer_1" xmlns="http://www.w3.org/2000/svg" xmlns:xlink="http://www.w3.org/1999/xlink" x="0px" y="0px"
	 viewBox="0 0 40.8 40.8" style="enable-background:new 0 0 40.8 40.8;" xml:space="preserve">
<g>
	<g>
		<path d="M19.9,40.8c-1.9,0-3.9,0-5.8,0c-1.6,0-2.3-0.7-2.3-2.3c0-2.7,0-5.5,0-8.2c0-1.5,0-1.5-1.5-1.5c-2.4,0-4.9,0-7.3,0
			c-0.6,0-1.2,0-1.7-0.2C0.4,28.4,0,27.7,0,26.8c0-4.3,0-8.6,0-12.8c0-0.9,0.5-1.4,1.2-1.7c0.5-0.2,1.1-0.2,1.6-0.2
			c2.7,0,5.4,0,8.1,0c0.7,0,1-0.2,1-1c0-2.8,0-5.6,0-8.3c0-2.1,0.5-2.7,2.7-2.8c2.3-0.1,4.6,0,6.9,0c1.6,0,3.2,0,4.7,0
			c1.7,0,2.3,0.6,2.3,2.3c0,2.8,0,5.7,0,8.5c0,1.3,0,1.3,1.3,1.3c2.8,0,5.6,0,8.4,0c1.5,0,2.3,0.8,2.4,2.3c0.2,4.1,0.2,8.2,0,12.3
			c-0.1,1.4-0.9,2.2-2.4,2.2c-2.8,0-5.6,0-8.4,0c-1.1,0-1.2,0.1-1.2,1.2c0,2.8,0,5.6,0,8.4c0,1.5-0.7,2.3-2.3,2.3
			C24.1,40.8,22,40.8,19.9,40.8L19.9,40.8z"/>
	</g>
</g>
</svg>
