<?xml version="1.0" encoding="utf-8"?>
<!-- Generator: Adobe Illustrator 27.7.0, SVG Export Plug-In . SVG Version: 6.00 Build 0)  -->
<svg version="1.1" id="Layer_1" xmlns="http://www.w3.org/2000/svg" xmlns:xlink="http://www.w3.org/1999/xlink" x="0px" y="0px"
	 viewBox="0 0 21.3 25.5" style="enable-background:new 0 0 21.3 25.5;" xml:space="preserve">
<style type="text/css">
	.st0{display:none;}
</style>
<g>
	<path class="st0" d="M33.5,13.1c0.1-0.2-0.1-0.4-0.2-0.6c-0.6-0.6-1.2-1.3-1.9-1.9c-0.2-0.2-0.5-0.4-0.7-0.7
		c-0.4-0.4-0.8-0.9-1.3-1.3c-0.6-0.6-1.2-1.2-1.7-1.7c-0.4-0.4-0.8-0.8-1.2-1.2c-0.6-0.6-1.2-1.2-1.8-1.8c-0.4-0.4-0.8-0.8-1.2-1.2
		c-0.6-0.6-1.3-1.3-1.9-1.9C21,0.2,20.4-0.4,19.8-1c-1-1-1.9-1.9-2.9-2.9c-1-1-2-2-3-3c-0.7-0.7-1.4-1.3-2-1.9
		c-0.3-0.3-0.7-0.6-1-0.9c-0.5-0.5-0.7-0.5-1.2,0C9.3-9.4,8.9-9,8.5-8.5C7.8-7.9,7.2-7.2,6.5-6.6L4.8-4.9C4.4-4.5,4-4.1,3.6-3.7
		C3-3.1,2.4-2.5,1.8-1.9c-0.7,0.7-1.3,1.3-2,2C-0.8,0.7-1.4,1.3-2,1.9c-0.6,0.7-1.3,1.3-2,2c-0.6,0.6-1.1,1.2-1.7,1.7
		C-6.1,6-6.4,6.4-6.8,6.7C-7,7-7.3,7.2-7.6,7.5c-0.4,0.4-0.7,0.7-1.1,1.1C-9,8.9-9.4,9.3-9.8,9.7c-0.3,0.2-0.5,0.5-0.8,0.8
		c-0.6,0.7-1.3,1.4-2,2c-0.4,0.4-0.5,0.8-0.1,1.1c0.8,0.7,1.6,1.5,2.4,2.3c0.3,0.3,0.6,0.6,0.9,0.9c0.6,0.6,1.1,1.2,1.7,1.8
		c0.4,0.4,0.8,0.8,1.2,1.2c0.4,0.4,0.8,0.8,1.2,1.2c0.3,0.3,0.7,0.7,1,1c0.7,0.7,1.4,1.3,2,2c0.6,0.6,1.1,1.2,1.7,1.7
		c0.7,0.7,1.4,1.4,2.1,2c0.8,0.8,1.6,1.7,2.5,2.5c0.7,0.7,1.4,1.4,2.1,2.1c0.6,0.6,1.1,1.1,1.7,1.7c0.6,0.7,1.3,1.3,1.9,2
		c0.4,0.5,0.9,0.4,1.3,0.1c0.4-0.4,0.9-0.8,1.3-1.3c0.3-0.4,0.7-0.6,1.1-1c0.3-0.3,0.7-0.6,1-1c0.3-0.3,0.5-0.6,0.8-0.8
		c0.4-0.3,0.8-0.8,1.2-1.1c0.4-0.3,0.7-0.7,1-1.1c0.6-0.6,1.2-1.2,1.8-1.8c0.6-0.7,1.3-1.2,1.9-1.9c0.9-0.9,1.8-1.7,2.6-2.7
		c1.1-1.2,2.4-2.3,3.5-3.5c0.6-0.6,1.2-1.3,1.9-1.9c0.4-0.3,0.7-0.8,1-1.1c0.6-0.6,1.2-1.2,1.8-1.8c0.5-0.4,0.9-0.9,1.4-1.3
		C33.4,13.6,33.6,13.4,33.5,13.1z M20.9,17.3c-0.9,0.7-1.9,1.5-2.8,2.3c-0.8,0.7-1.6,1.5-2.5,2.2c-1.1,0.8-2.1,1.8-3.2,2.6
		c-0.5,0.4-1,0.7-1.5,1.1c-0.2,0.2-0.5,0.2-0.8,0.1c-0.9-0.4-1.7-0.9-2.5-1.5c-0.8-0.5-1.6-1-2.4-1.4c-0.6-0.3-1.2-0.7-1.7-1.1
		c-0.3-0.3-0.6-0.6-0.7-1.1C2.6,19.7,2.2,19,2,18.2c-0.5-1.5-1.1-2.9-1.9-4.3c-0.1-0.3-0.1-0.5,0-0.8c0.3-0.8,0.6-1.7,0.8-2.5
		C1.1,10,1.1,9.5,1.2,8.9c0-0.2,0-0.4,0.2-0.5c0.2-0.2,0.5-0.3,0.8-0.1c0.5,0.2,1,0.5,1.4,0.7c0.6,0.4,0.8,0.3,1.3-0.2
		c0.3-0.2,0.5-0.5,0.7-0.8C6,7.6,6.3,7.2,6.7,6.8c0.5-0.5,0.8-1.1,1.2-1.6C8,5.1,8.1,4.9,8.3,4.7C8.9,4,9.5,3.2,9.6,2.1
		c0-0.3,0-0.6,0-0.9c0-0.3,0-0.7,0-1c0-0.1,0-0.1,0.1-0.2c0.1,0,0.1,0,0.2,0.1c0.4,0.3,0.8,0.7,1.2,1.1c0.6,0.7,1.3,1.3,2.1,1.8
		c0.3,0.2,0.4,0.5,0.5,0.8c0.1,0.5,0.2,1,0.2,1.5c0,0.3,0,0.6-0.2,0.9c-0.2,0.4-0.5,0.6-0.8,0.8c-0.6,0.3-1.2,0.6-1.8,0.9
		c-1,0.5-2,1.2-2.8,2c-0.4,0.4-0.9,0.8-1.2,1.3c-0.7,0.9-1.2,1.9-1.6,3.1c-0.3,0.9,0,1.8,0.5,2.6c0.7,1,1.7,1.9,2.6,2.8
		c0.5,0.4,0.9,0.8,1.4,1.2c0.1,0.1,0.2,0.2,0.4,0.2c0.2,0.1,0.5,0.1,0.7,0c0.4-0.2,0.8-0.5,1.2-0.8c1.1-1,2.2-1.9,3.1-3
		c0.3-0.4,0.7-0.7,0.9-1.2c0.2-0.4,0.4-0.8,0.2-1.3c-0.1-0.2-0.2-0.4-0.3-0.6c-0.4-0.6-0.8-1-1.4-1.4c-0.6-0.4-1.3-0.3-1.9-0.1
		c-0.9,0.4-0.9,1.5-0.1,2c0.2,0.1,0.4,0.3,0.6,0.5c0.2,0.2,0.3,0.4,0.1,0.8c-0.1,0.2-0.2,0.3-0.3,0.4c-0.6,0.6-1.2,1.3-1.9,1.8
		c-0.4,0.3-0.8,0.3-1.2,0c-0.4-0.3-0.8-0.6-1.1-1c-0.4-0.5-0.9-1-1.2-1.6c-0.2-0.4-0.2-0.7,0-1.1c0.5-1,1.1-1.9,1.8-2.7
		c0.4-0.4,0.9-0.7,1.5-1c0.9-0.5,1.8-0.8,2.8-1c0.7-0.2,1.4-0.2,2,0.2c0.3,0.2,0.5,0.3,0.6,0.6c0.3,0.6,0.8,1.2,1.3,1.7
		c0.3,0.3,0.6,0.4,0.9,0.1c0.2-0.2,0.5-0.4,0.6-0.7c0.1-0.2,0.5-0.2,0.7,0.1c0.4,0.7,0.7,1.3,1,2c0.1,0.4,0.2,0.8,0.2,1.2
		c0,0.5,0,1,0.1,1.5C21.4,16.7,21.3,17,20.9,17.3z"/>
	<path d="M20.9,17.3c-0.9,0.7-1.9,1.5-2.8,2.3c-0.8,0.7-1.6,1.5-2.5,2.2c-1.1,0.8-2.1,1.8-3.2,2.6c-0.5,0.4-1,0.7-1.5,1.1
		c-0.2,0.2-0.5,0.2-0.8,0.1c-0.9-0.4-1.7-0.9-2.5-1.5c-0.8-0.5-1.6-1-2.4-1.4c-0.6-0.3-1.2-0.7-1.7-1.1c-0.3-0.3-0.6-0.6-0.7-1.1
		C2.6,19.7,2.2,19,2,18.2c-0.5-1.5-1.1-2.9-1.9-4.3c-0.1-0.3-0.1-0.5,0-0.8c0.3-0.8,0.6-1.7,0.8-2.5C1.1,10,1.1,9.5,1.2,8.9
		c0-0.2,0-0.4,0.2-0.5c0.2-0.2,0.5-0.3,0.8-0.1c0.5,0.2,1,0.5,1.4,0.7c0.6,0.4,0.8,0.3,1.3-0.2c0.3-0.2,0.5-0.5,0.7-0.8
		C6,7.6,6.3,7.2,6.7,6.8c0.5-0.5,0.8-1.1,1.2-1.6C8,5.1,8.1,4.9,8.3,4.7C8.9,4,9.5,3.2,9.6,2.1c0-0.3,0-0.6,0-0.9c0-0.3,0-0.7,0-1
		c0-0.1,0-0.1,0.1-0.2c0.1,0,0.1,0,0.2,0.1c0.4,0.3,0.8,0.7,1.2,1.1c0.6,0.7,1.3,1.3,2.1,1.8c0.3,0.2,0.4,0.5,0.5,0.8
		c0.1,0.5,0.2,1,0.2,1.5c0,0.3,0,0.6-0.2,0.9c-0.2,0.4-0.5,0.6-0.8,0.8c-0.6,0.3-1.2,0.6-1.8,0.9c-1,0.5-2,1.2-2.8,2
		c-0.4,0.4-0.9,0.8-1.2,1.3c-0.7,0.9-1.2,1.9-1.6,3.1c-0.3,0.9,0,1.8,0.5,2.6c0.7,1,1.7,1.9,2.6,2.8c0.5,0.4,0.9,0.8,1.4,1.2
		c0.1,0.1,0.2,0.2,0.4,0.2c0.2,0.1,0.5,0.1,0.7,0c0.4-0.2,0.8-0.5,1.2-0.8c1.1-1,2.2-1.9,3.1-3c0.3-0.4,0.7-0.7,0.9-1.2
		c0.2-0.4,0.4-0.8,0.2-1.3c-0.1-0.2-0.2-0.4-0.3-0.6c-0.4-0.6-0.8-1-1.4-1.4c-0.6-0.4-1.3-0.3-1.9-0.1c-0.9,0.4-0.9,1.5-0.1,2
		c0.2,0.1,0.4,0.3,0.6,0.5c0.2,0.2,0.3,0.4,0.1,0.8c-0.1,0.2-0.2,0.3-0.3,0.4c-0.6,0.6-1.2,1.3-1.9,1.8c-0.4,0.3-0.8,0.3-1.2,0
		c-0.4-0.3-0.8-0.6-1.1-1c-0.4-0.5-0.9-1-1.2-1.6c-0.2-0.4-0.2-0.7,0-1.1c0.5-1,1.1-1.9,1.8-2.7c0.4-0.4,0.9-0.7,1.5-1
		c0.9-0.5,1.8-0.8,2.8-1c0.7-0.2,1.4-0.2,2,0.2c0.3,0.2,0.5,0.3,0.6,0.6c0.3,0.6,0.8,1.2,1.3,1.7c0.3,0.3,0.6,0.4,0.9,0.1
		c0.2-0.2,0.5-0.4,0.6-0.7c0.1-0.2,0.5-0.2,0.7,0.1c0.4,0.7,0.7,1.3,1,2c0.1,0.4,0.2,0.8,0.2,1.2c0,0.5,0,1,0.1,1.5
		C21.4,16.7,21.3,17,20.9,17.3z"/>
</g>
</svg>
