<?xml version="1.0" encoding="utf-8"?>
<!-- Generator: Adobe Illustrator 27.7.0, SVG Export Plug-In . SVG Version: 6.00 Build 0)  -->
<svg version="1.1" id="Layer_1" xmlns="http://www.w3.org/2000/svg" xmlns:xlink="http://www.w3.org/1999/xlink" x="0px" y="0px"
	 viewBox="0 0 24.2 25" style="enable-background:new 0 0 24.2 25;" xml:space="preserve">
<style type="text/css">
	.st0{fill:;}
</style>
<path class="st0" d="M12.8,12.1c-0.3,4.1-4.3,3.5-5.8,1C5.9,11,6.5,6.6,10.8,6c9.5-1.3,11.3,14.4,0.2,15.4S-1.5,12.6,1,6.5
	S14.8-3.8,21.6,5c6.8,8.8-0.2,21.2-10.8,19.9c6.3-1,14.5-9.8,8-18.1C15.3,2.2,9.5,2.4,6.1,5.3C3.2,7.6,2.5,13,4.3,15.8
	c3,4.8,10.8,3,11.3-2c0.5-5-4.3-6.3-6-4S10.8,15.1,12.8,12.1L12.8,12.1z"/>
</svg>
