<?xml version="1.0" encoding="utf-8"?>
<!-- Generator: Adobe Illustrator 27.7.0, SVG Export Plug-In . SVG Version: 6.00 Build 0)  -->
<svg version="1.1" id="Layer_1" xmlns="http://www.w3.org/2000/svg" xmlns:xlink="http://www.w3.org/1999/xlink" x="0px" y="0px"
	 viewBox="0 0 24 25" style="enable-background:new 0 0 24 25;" xml:space="preserve">
<style type="text/css">
	.st0{fill:;}
</style>
<path class="st0" d="M5.3,18.8L8,21.5l-3,3c-1,0.7-1.8,0.6-2.5-0.2s-0.8-1.6-0.2-2.5C2.3,21.8,5.3,18.8,5.3,18.8z M19.8,2.8l3.8,0.4
	L24,7L11.4,18.9l1.7,1.7l-2.2,3.1c-0.9-1.9-2-3.4-3.1-4.5S5.1,17,3.2,16.1l3.1-2.2l1.6,1.6L19.8,2.8L19.8,2.8z M0,0l12.4,8.3L9.7,11
	C9.7,11,0,0,0,0z M6,0.8l9.9,4l-2.7,2.7L6,0.8L6,0.8z"/>
</svg>
