<?xml version="1.0" encoding="utf-8"?>
<!-- Generator: Adobe Illustrator 27.7.0, SVG Export Plug-In . SVG Version: 6.00 Build 0)  -->
<svg version="1.1" id="Layer_1" xmlns="http://www.w3.org/2000/svg" xmlns:xlink="http://www.w3.org/1999/xlink" x="0px" y="0px"
	 viewBox="0 0 28.5 25" style="enable-background:new 0 0 28.5 25;" xml:space="preserve">
<style type="text/css">
	.st0{fill:url(#SVGID_1_);}
</style>
<linearGradient id="SVGID_1_" gradientUnits="userSpaceOnUse" x1="-911.6985" y1="532.1204" x2="-911.6985" y2="531.1204" gradientTransform="matrix(28.5018 0 0 -25.0003 25999.2559 13303.1533)">
	<stop  offset="0.25" style="stop-color:#000000"/>
	<stop  offset="0.75" style="stop-color:#000000"/>
</linearGradient>
<path class="st0" d="M14.2,19.3l2.5,2.5l-2.8,2.8c-0.9,0.7-1.7,0.6-2.3-0.2s-0.7-1.5-0.2-2.3C11.4,22.1,14.2,19.3,14.2,19.3z
	 M24.6,7.4l3.5,0.4l0.4,3.5l-8.7,8.1l1.6,1.6l-2.1,2.9c-0.9-1.8-1.8-3.2-2.9-4.2s-2.5-2-4.2-2.9l2.9-2.1l1.5,1.5L24.6,7.4L24.6,7.4z
	 M3.2,14.7l2.5,2.5L2.9,20c-0.9,0.7-1.7,0.6-2.3-0.2s-0.7-1.5-0.2-2.3C0.4,17.6,3.2,14.7,3.2,14.7z M14.7,5.7l-0.1,4l-5.7,5.1
	l1.6,1.6l-2.1,2.9c-0.9-1.8-1.8-3.2-2.9-4.2s-2.5-2-4.2-2.9l2.9-2.1l1.4,1.5l5.1-5.7L14.7,5.7L14.7,5.7z M15.5,6.6l5,3.4L18,12.5
	l-2.5-2.6C15.5,9.9,15.5,6.6,15.5,6.6z M14.5,1.5l9.2,5.2l-2.5,2.5L14.5,1.5L14.5,1.5z M2.8,4l5.7,2.8l-1.7,2L2.8,4L2.8,4z M6,0
	l7,4.9L10.8,5L6,0L6,0z"/>
</svg>
