<?xml version="1.0" encoding="utf-8"?>
<!-- Generator: Adobe Illustrator 27.7.0, SVG Export Plug-In . SVG Version: 6.00 Build 0)  -->
<svg version="1.1" id="Layer_1" xmlns="http://www.w3.org/2000/svg" xmlns:xlink="http://www.w3.org/1999/xlink" x="0px" y="0px"
	 viewBox="0 0 26.6 21.3" style="enable-background:new 0 0 26.6 21.3;" xml:space="preserve">
<style type="text/css">
	.st0{fill:url(#SVGID_1_);}
	.st1{fill:#C0B9AD;}
</style>
<g>
	
		<linearGradient id="SVGID_1_" gradientUnits="userSpaceOnUse" x1="-1791.5303" y1="38.7292" x2="-1791.5303" y2="39.5794" gradientTransform="matrix(18.9451 0 0 25.0545 33950.1719 -970.3644)">
		<stop  offset="0.25" style="stop-color:#000000"/>
		<stop  offset="0.75" style="stop-color:#000000"/>
	</linearGradient>
	<path class="st0" d="M12,12.6c-0.4-0.5-0.2-1.6,0.1-2.6c1.5-0.9,2.5-2.6,2.5-4.7c0-3-2.3-5.4-5.1-5.4s-5,2.4-5,5.4
		c0,2,1,3.7,2.5,4.7c0.3,0.9,0.6,2,0.1,2.6c-0.8,0.9-3.8,0.9-4.7,2S0,21.3,0,21.3h9.5h9.4c0,0-1.5-5.5-2.3-6.6
		C15.8,13.4,12.7,13.4,12,12.6z"/>
	<path class="st1" d="M24.8,11.2c-0.6-0.9-2.8-0.9-3.3-1.4c-0.3-0.3-0.1-1.1,0.1-1.8c1.1-0.7,1.8-1.9,1.8-3.3c0-2.1-1.6-3.8-3.6-3.8
		s-3.6,1.7-3.6,3.8C16.2,6,16.9,7.3,18,8c0.2,0.7,0.4,1.4,0.1,1.8c-0.5,0.6-2.7,0.6-3.3,1.4c-0.1,0.1-0.2,0.3-0.2,0.4H15
		c0.3,0.1,0.6,0.2,0.9,0.3c0.4,0.2,0.8,0.3,1.2,0.6c0.4,0.3,0.9,0.6,1.2,1.1c0.1,0.2,0.4,0.5,0.5,0.7c0.2,0.3,0.3,0.6,0.4,0.9
		c0.1,0.3,0.1,0.4,0.2,0.7h0.5h6.7C26.5,15.9,25.4,12,24.8,11.2z"/>
</g>
</svg>
