<?xml version="1.0" encoding="utf-8"?>
<!-- Generator: Adobe Illustrator 27.7.0, SVG Export Plug-In . SVG Version: 6.00 Build 0)  -->
<svg version="1.1" id="Layer_1" xmlns="http://www.w3.org/2000/svg" xmlns:xlink="http://www.w3.org/1999/xlink" x="0px" y="0px"
	 viewBox="0 0 90.3 81.3" style="enable-background:new 0 0 90.3 81.3;" xml:space="preserve">
<g>
	<path d="M20.8,36.8c-3.8,0-7.6,0-11.5,0c-0.2,0-0.5,0.1-0.6-0.2c-0.1-0.2,0.2-0.3,0.2-0.5c7.9-7.9,15.7-15.7,23.5-23.5
		c4.1-4.1,8.2-8.2,12.3-12.3C45.3-0.2,45.6,0,46,0.4c2.4,2.4,4.8,4.8,7.1,7.1c8.1,8,16.1,16.1,24.1,24.1c1.5,1.5,2.8,2.9,4.3,4.5
		c0.2,0.2,0.4,0.3,0.3,0.6c-0.1,0.2-0.4,0.2-0.6,0.2c-7.6,0-15.2,0-22.7,0c-0.7,0-1.1-0.4-1.6-0.9c-1.8-1.8-3.5-3.6-5.3-5.3
		c-1.9-1.9-3.9-3.9-5.8-5.8c-0.2-0.2-0.4-0.6-0.8-0.2c-3.4,3.5-6.8,6.9-10.3,10.4c-0.5,0.5-1.1,1-1.5,1.5c-0.3,0.3-0.6,0.2-1,0.2
		C28.4,36.8,24.5,36.8,20.8,36.8z"/>
</g>
<g>
	<path d="M20.8,81.3c-3.8,0-7.6,0-11.5,0c-0.2,0-0.5,0.1-0.6-0.2c-0.1-0.2,0.2-0.3,0.2-0.5c7.9-7.9,15.7-15.7,23.5-23.5
		c4.1-4.1,8.2-8.2,12.3-12.3c0.5-0.5,0.8-0.2,1.2,0.1c2.4,2.4,4.8,4.8,7.1,7.1c8.1,8,16.1,16.1,24.1,24.1c1.5,1.5,2.8,2.9,4.3,4.5
		c0.2,0.2,0.4,0.3,0.3,0.6s-0.4,0.2-0.6,0.2c-7.6,0-15.2,0-22.7,0c-0.7,0-1.1-0.4-1.6-0.9c-1.8-1.8-3.5-3.6-5.3-5.3
		c-1.9-1.9-3.9-3.9-5.8-5.8c-0.2-0.2-0.4-0.6-0.8-0.2c-3.4,3.5-6.8,6.9-10.3,10.4c-0.5,0.5-1.1,1-1.5,1.5c-0.3,0.3-0.6,0.2-1,0.2
		C28.4,81.3,24.5,81.3,20.8,81.3z"/>
</g>
</svg>
