<?xml version="1.0" encoding="utf-8"?>
<!-- Generator: Adobe Illustrator 27.7.0, SVG Export Plug-In . SVG Version: 6.00 Build 0)  -->
<svg version="1.1" id="Layer_1" xmlns="http://www.w3.org/2000/svg" xmlns:xlink="http://www.w3.org/1999/xlink" x="0px" y="0px"
	 viewBox="0 0 21.8 22.5" style="enable-background:new 0 0 21.8 22.5;" xml:space="preserve">
<path d="M3.3,16.3l2.7,2.6l-3,3.1c-0.9,0.7-1.8,0.7-2.5-0.1c-0.7-0.8-0.8-1.6-0.2-2.5C0.4,19.4,3.3,16.3,3.3,16.3z M17.5,0l3.8,0.3
	l0.5,3.8L9.4,16.3l1.8,1.7L9,21.1c-1-1.9-2-3.4-3.2-4.5s-2.7-2.1-4.6-3l3-2.3l1.6,1.5L17.5,0C17.5,0,17.5,0,17.5,0z"/>
</svg>
