<?xml version="1.0" encoding="utf-8"?>
<!-- Generator: Adobe Illustrator 27.7.0, SVG Export Plug-In . SVG Version: 6.00 Build 0)  -->
<svg version="1.1" id="Layer_1" xmlns="http://www.w3.org/2000/svg" xmlns:xlink="http://www.w3.org/1999/xlink" x="0px" y="0px"
	 viewBox="0 0 31.3 31.4" style="enable-background:new 0 0 31.3 31.4;" xml:space="preserve">
<style type="text/css">
	.st0{display:none;fill:#;}
	.st1{fill:#;}
</style>
<g>
	<path class="st0" d="M31.2,13.5c-0.2-1.3-0.6-2.5-1-3.8c-0.2-0.5-0.4-1.1-0.4-1.6c0-0.3,0-0.5,0-0.8c-0.2-0.7-0.5-1.2-1-1.7
		c-0.2-0.3-0.5-0.5-0.8-0.8c-0.8-0.8-1.9-1.1-3-1.2c-0.7,0-1.4,0.1-2.1,0.4c-0.1,0-0.2,0.1-0.2,0.1c-0.1,0.2-0.3,0.2-0.4,0.3
		c-0.3,0.2-0.4,0.3-0.3,0.7c0.1,0.6,0.5,1,0.9,1.4c0.4,0.4,0.6,1,0.8,1.5c0.1,0.6,0.4,1.1,0.8,1.6c0,0.1,0.1,0.1,0.2,0.2
		c0.3,0.1,0.5,0.4,0.5,0.7c0,0.2-0.1,0.5-0.1,0.7c-0.1,0.5-0.5,1-0.8,1.4c-0.3,0.5-0.6,1-0.8,1.6c-0.1,0.2-0.1,0.3,0.2,0.4
		c0.1,0,0.1,0,0.2,0.1c0.1,0.1,0,0.6-0.1,0.6c-0.1,0.1-0.2,0.1-0.3,0c-0.2-0.1-0.4-0.2-0.5-0.2c-0.4-0.2-0.8-0.4-1.2-0.5
		c-0.4-0.1-0.8-0.3-1.1-0.5c-1.3-0.7-2.5-1.6-3.6-2.6c-0.2-0.2-0.4-0.3-0.7-0.3c-0.8,0-1.5-0.4-2-1c-0.8-0.8-1.7-1.6-2.4-2.5
		c-0.6-0.7-1.4-1-2.3-1.1c-0.3,0-0.5-0.1-0.6-0.3C8.8,6.2,8.8,5.9,8.7,5.6c0-0.3,0-0.7,0-1c0-0.6-0.1-1.1-0.3-1.7
		C8,1.7,7.1,0.9,6,0.4C5.5,0.1,5,0,4.4,0C3.1,0.1,2,0.6,1.1,1.5C0.7,1.9,0.5,2.3,0.3,2.8C0.3,3,0.2,3.3,0.1,3.5
		c-0.2,1-0.2,1.9,0.3,2.8C1,7.5,2,8.3,3.2,8.7c0.2,0.1,0.4,0.1,0.6,0.1c0.6,0,1.2-0.1,1.8-0.1c0.1,0,0.2,0,0.3,0.1
		C6.3,9,6.6,9.3,6.7,9.7c0.1,0.3,0.1,0.6,0.2,0.8c0.1,0.4,0.2,0.8,0.6,1.1c0.5,0.4,0.9,0.9,1.4,1.4c0.7,0.6,1.3,1.2,1.9,1.8
		c0.3,0.2,0.4,0.6,0.4,0.9c0,0.6,0.1,1.1,0.5,1.5c0.7,0.7,1.3,1.4,1.8,2.2c0.7,1.1,1.4,2.2,1.7,3.5c0,0.1,0.1,0.1,0.1,0.2
		c0.1,0.2,0.2,0.4,0.3,0.6c0.1,0.1,0.1,0.2,0,0.3c-0.1,0.1-0.2,0-0.2,0c-0.2-0.1-0.4-0.2-0.6-0.3c-0.3-0.2-1-0.3-1.1,0
		c-0.2,0.2-0.5,0.4-0.7,0.5c-0.7,0.4-1.3,0.8-2.1,0.9c-0.3,0.1-0.8-0.1-0.9-0.4c-0.2-0.5-0.6-0.7-1.1-0.8c-1-0.2-1.8-0.6-2.5-1.4
		c-0.1-0.1-0.3-0.3-0.4-0.4C5.6,22.1,5.3,22,5,22c-0.1,0-0.2,0-0.3,0.1c-0.2,0.3-0.5,0.5-0.6,0.8c-0.3,0.9-0.5,1.9-0.2,2.8
		C4,26.4,4.1,27,4.5,27.5c0.6,0.8,1.3,1.5,2.2,2c0.2,0.1,0.5,0.2,0.8,0.3c0.9,0,1.8,0.2,2.6,0.6c0.4,0.2,0.9,0.4,1.4,0.5
		c0.4,0.1,0.8,0.2,1.2,0.3c1.3,0.3,2.5,0.3,3.8,0.1c0.9-0.2,1.8-0.5,2.7-0.9c1.1-0.5,2.3-0.9,3.5-1.3c0.6-0.2,1.2-0.3,1.7-0.5
		c0.4-0.1,0.7-0.4,0.8-0.7c0.1-0.2,0.1-0.4,0-0.6c-0.6-1-1.3-1.8-2.3-2.4c-0.2-0.1-0.3-0.1-0.5-0.1c-0.2,0.1-0.5,0-0.7-0.1
		c-0.1-0.1-0.2-0.2,0-0.3c0.2-0.2,0.4-0.4,0.6-0.5c0.5-0.4,1-0.9,1.5-1.4c0.1-0.2,0.3-0.4,0.6-0.4c0.2,0,0.2-0.1,0.2-0.3
		c0.4,0.2,0.4,0.2,0.4,0.5c0,0.1,0,0.2,0,0.3c0,0.2,0,0.3,0.1,0.4c0.1,0.2,0.3,0.4,0.5,0.6c0.4,0.4,0.8,0.8,1.2,1.2
		c0.2,0.2,0.5,0.4,0.8,0.6c0.2,0.1,0.4,0.2,0.6,0c0.3-0.2,0.5-0.4,0.6-0.7c0.1-0.3,0.1-0.5,0.2-0.8c0.3-1.3,0.7-2.6,1.2-3.8
		c0.3-0.8,0.7-1.5,0.9-2.3C31.3,16.4,31.3,15,31.2,13.5z M22.5,25.7c0.1,0,0.1,0,0.2,0.1c0.5,0.2,0.9,0.5,1.3,0.8
		c0.3,0.2,0.4,0.5,0.4,0.8c0,0.2-0.1,0.3-0.2,0.3c-0.9,0.1-1.7,0.5-2.5,0.8c-0.3,0.1-0.5,0.2-0.8,0.2c-0.4,0.1-0.8,0.3-1.2,0.5
		c-1.2,0.6-2.5,1-3.8,1.1c-0.9,0.1-1.7,0-2.6-0.1c-0.9-0.1-1.7-0.4-2.6-0.6c-1.1-0.3-2.3-0.8-3.5-1c-0.7-0.1-1.3-0.5-1.7-1.1
		C5.3,27.2,5.1,27,5,26.8c-0.2-0.4-0.3-0.7-0.4-1.1c0-0.5-0.1-1-0.1-1.6c0-0.3,0-0.6,0.1-0.9C4.7,23,4.7,23,4.9,23
		c0.1,0,0.2,0.1,0.3,0.1c0.4,0.2,0.8,0.4,1.1,0.7c0.5,0.3,1,0.6,1.5,0.8c0.4,0.2,0.8,0.3,1.1,0.7c0.1,0.1,0.2,0.3,0.2,0.5
		c0,0.4,0.2,0.5,0.6,0.5c0.5-0.1,1-0.2,1.5-0.3c0.8-0.2,1.5-0.6,2.2-1c0.4-0.3,1-0.3,1.3,0c0.2,0.2,0.5,0.3,0.9,0.4
		c0.2,0.1,0.5,0.2,0.7,0.3c1,0.4,1.9,0.6,2.9,1c0.3,0.1,0.6,0.2,0.9,0.3c0.1,0,0.2,0.1,0.4,0.1c0.5,0.1,0.9-0.1,1.2-0.6
		C21.8,26,22.2,25.9,22.5,25.7z M24.6,20.9c-0.5,0.3-0.8,0.7-1.2,1.1c-0.6,0.6-1.2,1.3-1.9,1.9c-0.2,0.3-0.5,0.6-0.7,0.8
		c-0.1,0.1-0.3,0.2-0.5,0.1c-0.3-0.1-0.6-0.2-0.9-0.3c-0.3-0.1-0.6-0.2-0.9-0.3c-0.4-0.1-0.7-0.2-1.1-0.3c-0.9-0.2-1.5-0.9-1.8-1.8
		c-0.3-1-0.8-1.8-1.3-2.7c-0.5-0.8-1-1.4-1.5-2.2c-0.2-0.3-0.4-0.7-0.5-1c-0.1-0.3-0.2-0.6-0.2-0.9c0-0.3-0.2-0.6-0.5-0.8
		c-0.8-0.7-1.6-1.5-2.3-2.2C9,12,8.5,11.6,8.2,11.1C8,10.7,7.9,10.4,7.9,10c0-0.2,0-0.3-0.1-0.5C7.7,9.1,7.6,8.8,7.1,8.6
		C7,8.5,6.8,8.3,6.7,8.2C6.5,8,6.2,7.9,6,7.8c-0.2-0.1-0.4-0.1-0.6,0C5.1,7.8,4.8,7.9,4.5,7.9C3.1,7.8,2,7.3,1.3,6.1
		C0.9,5.5,0.7,4.8,0.8,4c0-0.4,0.2-0.7,0.3-1c0.3-0.5,0.6-1,1.1-1.4c0.7-0.4,1.3-0.8,2.2-0.8c0.2,0,0.5,0,0.7,0.1
		c0.3,0.1,0.7,0.2,1,0.4C7.2,2,7.9,3,7.9,4.3v0.1c0,0.4,0,0.8-0.1,1.2c-0.1,0.2,0,0.4,0.1,0.6c0.2,0.5,0.6,0.8,1,1.2
		C9.2,7.8,9.6,7.9,10,7.9c0.7,0,1.2,0.4,1.7,0.9c0.8,0.8,1.6,1.6,2.4,2.5c0.2,0.2,0.4,0.4,0.5,0.6c0.3,0.2,0.6,0.4,1,0.4
		c0.2,0,0.5,0.1,0.7,0.2c0.6,0.2,1,0.6,1.5,1c1,0.7,2,1.4,3.2,1.9c0.6,0.3,1.2,0.4,1.8,0.7c0.4,0.2,0.7,0.4,0.8,0.9
		c0.2,1,0.6,1.8,0.9,2.7c0.1,0.3,0.2,0.6,0.2,0.9C24.8,20.6,24.7,20.8,24.6,20.9z M30.4,15.9c0,0.2,0,0.5-0.1,0.7
		c-0.3,1.2-0.7,2.3-1.2,3.4c-0.1,0.2-0.2,0.4-0.2,0.6c-0.1,0.3-0.2,0.7-0.3,1c-0.3,0.7-0.6,1.4-0.8,2.1c-0.1,0.3-0.2,0.7-0.3,1
		c-0.5-0.3-1-0.6-1.3-1.1c-0.2-0.2-0.3-0.5-0.5-0.7c-0.1-0.2-0.1-0.3-0.2-0.5c0-0.1,0.1-0.2,0.1-0.2c0.2-0.2,0.4-0.4,0.7-0.5
		c0.3-0.2,0.5-0.4,0.6-0.8c0-0.1,0-0.2,0-0.3c-0.1-0.3-0.2-0.5-0.3-0.8c-0.3-0.6-0.5-1.3-0.7-2c-0.1-0.3-0.2-0.7-0.4-1
		c-0.2-0.4-0.2-0.8-0.3-1.1c-0.1-0.4-0.2-0.9-0.7-1.1c-0.1-0.1-0.1-0.2-0.1-0.2c0.1-0.3,0.1-0.5,0.3-0.8c0.4-0.5,0.6-1,0.9-1.6
		c0.1-0.2,0.1-0.4,0.2-0.6c0.1-0.5,0.3-1.1,0.3-1.7c0-0.3-0.1-0.5-0.3-0.6c-0.1-0.1-0.3,0-0.4,0c-0.2,0.1-0.3,0.1-0.4-0.1
		c-0.2-0.2-0.3-0.5-0.4-0.8C24.3,7.5,24,6.7,23.4,6c-0.3-0.3-0.4-0.7-0.6-1.1c-0.1-0.2,0-0.2,0.2-0.3c0.5-0.1,1.1-0.1,1.6,0
		c0.1,0,0.3,0,0.4,0c1.3,0,2.4,0.6,3.2,1.7c0.2,0.2,0.3,0.5,0.4,0.8c0.1,0.2,0.2,0.5,0.2,0.7c0.2,0.9,0.5,1.8,0.8,2.7
		c0,0,0,0.1,0,0.1c0.4,0.8,0.5,1.8,0.7,2.7C30.4,14.1,30.5,15,30.4,15.9z"/>
	<path class="st1" d="M24.4,27.4c0,0.2-0.1,0.3-0.2,0.3c-0.9,0.1-1.7,0.5-2.5,0.8c-0.3,0.1-0.5,0.2-0.8,0.2
		c-0.4,0.1-0.8,0.3-1.2,0.5c-1.2,0.6-2.5,1-3.8,1.1c-0.9,0.1-1.7,0-2.6-0.1c-0.9-0.1-1.7-0.4-2.6-0.6c-1.1-0.3-2.3-0.8-3.5-1
		c-0.7-0.1-1.3-0.5-1.7-1.1C5.3,27.2,5.1,27,5,26.8c-0.2-0.4-0.3-0.7-0.4-1.1c0-0.5-0.1-1-0.1-1.6c0-0.3,0-0.6,0.1-0.9
		C4.7,23,4.7,23,4.9,23c0.1,0,0.2,0.1,0.3,0.1c0.4,0.2,0.8,0.4,1.1,0.7c0.5,0.3,1,0.6,1.5,0.8c0.4,0.2,0.8,0.3,1.1,0.7
		c0.1,0.1,0.2,0.3,0.2,0.5c0,0.4,0.2,0.5,0.6,0.5c0.5-0.1,1-0.2,1.5-0.3c0.8-0.2,1.5-0.6,2.2-1c0.4-0.3,1-0.3,1.3,0
		c0.2,0.2,0.5,0.3,0.9,0.4c0.2,0.1,0.5,0.2,0.7,0.3c1,0.4,1.9,0.6,2.9,1c0.3,0.1,0.6,0.2,0.9,0.3c0.1,0,0.2,0.1,0.4,0.1
		c0.5,0.1,0.9-0.1,1.2-0.6c0.2-0.4,0.5-0.4,0.8-0.6c0.1,0,0.1,0,0.2,0.1c0.5,0.2,0.9,0.5,1.3,0.8C24.3,26.8,24.4,27.1,24.4,27.4z"/>
	<path class="st1" d="M30.4,15.9c0,0.2,0,0.5-0.1,0.7c-0.3,1.2-0.7,2.3-1.2,3.4c-0.1,0.2-0.2,0.4-0.2,0.6c-0.1,0.3-0.2,0.7-0.3,1
		c-0.3,0.7-0.6,1.4-0.8,2.1c-0.1,0.3-0.2,0.7-0.3,1c-0.5-0.3-1-0.6-1.3-1.1c-0.2-0.2-0.3-0.5-0.5-0.7c-0.1-0.2-0.1-0.3-0.2-0.5
		c0-0.1,0.1-0.2,0.1-0.2c0.2-0.2,0.4-0.4,0.7-0.5c0.3-0.2,0.5-0.4,0.6-0.8c0-0.1,0-0.2,0-0.3c-0.1-0.3-0.2-0.5-0.3-0.8
		c-0.3-0.6-0.5-1.3-0.7-2c-0.1-0.3-0.2-0.7-0.4-1c-0.2-0.4-0.2-0.8-0.3-1.1c-0.1-0.4-0.2-0.9-0.7-1.1c-0.1-0.1-0.1-0.2-0.1-0.2
		c0.1-0.3,0.1-0.5,0.3-0.8c0.4-0.5,0.6-1,0.9-1.6c0.1-0.2,0.1-0.4,0.2-0.6c0.1-0.5,0.3-1.1,0.3-1.7c0-0.3-0.1-0.5-0.3-0.6
		c-0.1-0.1-0.3,0-0.4,0c-0.2,0.1-0.3,0.1-0.4-0.1c-0.2-0.2-0.3-0.5-0.4-0.8C24.3,7.5,24,6.7,23.4,6c-0.3-0.3-0.4-0.7-0.6-1.1
		c-0.1-0.2,0-0.2,0.2-0.3c0.5-0.1,1.1-0.1,1.6,0c0.1,0,0.3,0,0.4,0c1.3,0,2.4,0.6,3.2,1.7c0.2,0.2,0.3,0.5,0.4,0.8
		c0.1,0.2,0.2,0.5,0.2,0.7c0.2,0.9,0.5,1.8,0.8,2.7c0,0,0,0.1,0,0.1c0.4,0.8,0.5,1.8,0.7,2.7C30.4,14.1,30.5,15,30.4,15.9z"/>
	<path class="st1" d="M24.5,19.6c-0.3-0.9-0.8-1.8-0.9-2.7c-0.1-0.5-0.4-0.7-0.8-0.9c-0.6-0.3-1.2-0.4-1.8-0.7
		c-1.2-0.5-2.2-1.2-3.2-1.9c-0.5-0.3-0.9-0.8-1.5-1c-0.2-0.1-0.4-0.2-0.7-0.2c-0.4,0-0.7-0.2-1-0.4c-0.2-0.2-0.4-0.4-0.5-0.6
		c-0.8-0.8-1.6-1.6-2.4-2.5c-0.5-0.5-1-0.9-1.7-0.9c-0.4,0-0.8-0.1-1.1-0.4c-0.4-0.3-0.8-0.7-1-1.2C7.8,6.1,7.7,5.9,7.8,5.7
		C7.9,5.3,8,4.9,7.9,4.5V4.3c0-1.4-0.7-2.4-1.9-3C5.8,1.2,5.4,1,5.1,0.9C4.9,0.8,4.6,0.8,4.4,0.8c-0.8,0-1.5,0.4-2.2,0.8
		C1.7,2,1.4,2.5,1.1,3C0.9,3.4,0.8,3.7,0.8,4c0,0.7,0.1,1.4,0.5,2.1C2,7.3,3.1,7.8,4.5,7.9c0.3,0,0.6-0.1,0.9-0.2
		c0.2-0.1,0.4,0,0.6,0C6.2,7.9,6.5,8,6.7,8.2C6.8,8.3,7,8.5,7.1,8.6c0.4,0.2,0.6,0.5,0.7,0.9c0,0.1,0,0.3,0.1,0.5
		c0,0.4,0.1,0.8,0.4,1.1C8.5,11.6,9,12,9.4,12.4c0.8,0.8,1.5,1.5,2.3,2.2c0.2,0.2,0.4,0.5,0.5,0.8c0,0.3,0.1,0.6,0.2,0.9
		c0.1,0.4,0.2,0.7,0.5,1c0.5,0.7,1,1.4,1.5,2.2c0.5,0.8,1,1.7,1.3,2.7c0.2,0.9,0.8,1.5,1.8,1.8c0.4,0.1,0.7,0.2,1.1,0.3
		c0.3,0.1,0.6,0.2,0.9,0.3c0.3,0.1,0.6,0.2,0.9,0.3c0.2,0,0.3,0,0.5-0.1c0.3-0.2,0.5-0.5,0.7-0.8c0.6-0.6,1.2-1.3,1.9-1.9
		c0.4-0.4,0.7-0.8,1.2-1.1c0.2-0.1,0.2-0.2,0.2-0.4C24.8,20.1,24.7,19.9,24.5,19.6z M6.3,5c0,0.3-0.1,0.5-0.4,0.7
		C5.8,5.7,5.7,5.8,5.7,5.9C5.3,6.2,4.9,6.4,4.5,6.5c-0.2,0.1-0.4,0-0.6-0.1C3.5,6.2,3.1,6,3,5.6c0-0.1-0.1-0.2-0.2-0.3
		C2.4,4.7,2.3,4.1,2.7,3.5c0.1-0.1,0.1-0.2,0.1-0.3C2.9,3,3.1,2.8,3.3,2.7C3.7,2.6,4,2.5,4.4,2.5c0.7-0.1,1.5,0.6,1.7,1.2
		C6.3,4.1,6.3,4.5,6.3,5z"/>
	<path class="st0" d="M6.1,3.7c-0.2-0.6-1-1.3-1.7-1.2C4,2.5,3.7,2.6,3.3,2.7C3.1,2.8,2.9,3,2.8,3.2c0,0.1-0.1,0.2-0.1,0.3
		C2.3,4.1,2.4,4.7,2.8,5.3C2.8,5.4,2.9,5.5,3,5.6C3.1,6,3.5,6.2,3.9,6.4c0.2,0.1,0.4,0.2,0.6,0.1c0.4-0.1,0.8-0.3,1.2-0.6
		c0.1-0.1,0.2-0.2,0.2-0.2C6.1,5.5,6.2,5.3,6.3,5C6.3,4.5,6.3,4.1,6.1,3.7z M5.1,5.5C4.7,5.8,4.1,5.7,3.8,5.3C3.6,5.2,3.4,5,3.3,4.8
		C3.3,4.6,3.2,4.3,3.2,4.2c0-0.6,0.2-0.9,0.8-0.9c0.3,0,0.6,0.1,0.9,0c0.2,0,0.3,0.1,0.4,0.2C5.3,3.8,5.5,4,5.5,4.3
		C5.6,4.7,5.4,5.2,5.1,5.5z"/>
</g>
</svg>
