<?xml version="1.0" encoding="utf-8"?>
<!-- Generator: Adobe Illustrator 27.7.0, SVG Export Plug-In . SVG Version: 6.00 Build 0)  -->
<svg version="1.1" id="Layer_1" xmlns="http://www.w3.org/2000/svg" xmlns:xlink="http://www.w3.org/1999/xlink" x="0px" y="0px"
	 viewBox="0 0 34.4 39.6" style="enable-background:new 0 0 34.4 39.6;" xml:space="preserve">
<style type="text/css">
	.st0{display:none;fill:#FFFFFF;}
</style>
<g>
	<path class="st0" d="M17,39.6c0.5-0.6,0.5-0.6,1.3-1c0.2-0.1,0.3-0.2,0.5-0.2c2.5-1.5,4.8-3.2,6.9-5.2c1.8-1.7,3.4-3.6,4.6-5.7
		c1-1.6,1.8-3.3,2.5-5.1c0.6-1.6,0.9-3.3,1.2-4.9c0.2-1,0.4-2.1,0.3-3.2c-0.1-1.2-0.1-2.4,0-3.6c0-0.8,0-1.5-0.1-2.3
		c-0.1-0.7-0.4-1-1.1-1.1c-0.9-0.2-1.7-0.3-2.6-0.5c-2.6-0.6-5.1-1.5-7.4-2.8c-1.8-1-3.5-2-5.1-3.3c-0.3-0.2-0.6-0.5-0.9-0.7
		c-0.2,0.3-0.5,0.6-0.8,0.8c-1.4,0.8-2.7,1.7-4.1,2.5c-1.7,1-3.4,1.8-5.2,2.5C5.1,6.5,3.2,7,1.2,7.2C0.3,7.2,0.1,7.5,0,8.3
		c0,1.1,0,2.3,0,3.4c0,1,0,2,0,2.9c0,1.5,0,3,0.3,4.5c0.6,2.6,1.6,5,2.9,7.3c1,1.7,2.1,3.3,3.4,4.8c1.2,1.4,2.6,2.7,4.1,3.9
		c1.6,1.3,3.3,2.3,5,3.3C16.3,38.8,16.9,38.9,17,39.6z"/>
	<path d="M19.3,31.6c0-0.6,0-1.2,0-1.8c0-0.4,0.1-0.4,0.4-0.5c0.3,0,0.5-0.1,0.8-0.1c0.4-0.1,0.6-0.5,0.5-0.9
		c-0.2-0.7-0.4-1.3-0.6-2c0-0.1-0.1-0.2-0.2-0.2c-0.6-0.2-1.2-0.4-1.8-0.4c-1.1,0-2.1,0-3.2,0c-0.5,0-0.9,0.2-1.3,0.4
		c-0.2,0.1-0.3,0.3-0.3,0.4c-0.1,0.6-0.3,1.1-0.5,1.7c-0.2,0.5,0.1,0.9,0.6,1c0.3,0,0.5,0.1,0.8,0.1c0.2,0,0.3,0.1,0.3,0.3
		c0,0.6,0,1.1,0,1.7c0,0.2,0,0.4,0.1,0.6c-0.1,0-0.1-0.1-0.1-0.1c-0.3,0.1-1.5-0.5-1.7-0.7c-0.2,5,6.1,4.7,8.2,3
		c0,0-0.1-2.2-0.1-2.9c-0.1,0.1-1.5,0.7-1.6,0.7C19.4,31.9,19.3,31.8,19.3,31.6z"/>
	<path d="M34.3,14.2c-0.1-1.2-0.1-2.4,0-3.6c0-0.8,0-1.5-0.1-2.3c-0.1-0.7-0.4-1-1.1-1.1c-0.9-0.2-1.7-0.3-2.6-0.5
		c-2.6-0.6-5.1-1.5-7.4-2.8c-1.8-1-3.5-2-5.1-3.3c-0.3-0.2-0.6-0.5-0.9-0.7c-0.2,0.3-0.5,0.6-0.8,0.8c-1.4,0.8-2.7,1.7-4.1,2.5
		c-1.7,1-3.4,1.8-5.2,2.5C5.1,6.5,3.2,7,1.2,7.2C0.3,7.2,0.1,7.5,0,8.3c0,1.1,0,2.3,0,3.4c0,1,0,2,0,2.9c0,1.5,0,3,0.3,4.5
		c0.6,2.6,1.6,5,2.9,7.3c1,1.7,2.1,3.3,3.4,4.8c1.2,1.4,2.6,2.7,4.1,3.9c1.6,1.3,3.3,2.3,5,3.3c0.5,0.3,0.9,0.4,1.4,1
		c0.5-0.6,0.7-0.5,1.1-1c0.2-0.1,0.3-0.2,0.5-0.2c2.5-1.5,4.8-3.2,6.9-5.2c1.8-1.7,3.4-3.6,4.6-5.7c1-1.6,1.8-3.3,2.5-5.1
		c0.6-1.6,0.9-3.3,1.2-4.9C34.2,16.3,34.5,15.3,34.3,14.2z M29.6,18c-0.1,0.7-0.3,1.4-0.6,2c-0.1,0.3-0.2,0.7-0.3,1
		c-0.5,1.5-1.2,2.9-2,4.2c-1.3,2.1-2.9,3.9-4.7,5.5c-0.5,0.4-1,0.8-1.4,1.1c0,0.9,0,1.8,0,1.8c-2,1-6,2-7-2c0,0-0.1-0.1-0.1-0.1
		c-1.6-1.2-3.1-2.6-4.4-4.2c-1.6-2-2.9-4.3-3.7-6.7c-0.8-2.3-0.9-4.7-0.9-7c0-0.6,0-1.2,0-1.8c0-0.5,0.1-0.6,0.5-0.7
		c2.3-0.4,4.5-1.2,6.6-2.2c1.4-0.7,2.8-1.5,4.2-2.3c0.2-0.1,0.4-0.3,0.6-0.5c0.4-0.5,0.9-0.3,1.4-0.1C17.8,6,18,6.1,18.1,6.2
		c0.9,0.7,1.9,1.3,3,1.9c2.4,1.3,4.9,2.2,7.5,2.8c0.2,0.1,0.5,0.1,0.7,0.2c0.4,0.1,0.5,0.3,0.5,0.6C29.9,13.8,29.9,15.9,29.6,18z"/>
	<path class="st0" d="M14.4,31.9c-0.1,0-0.1-0.1-0.1-0.1c-0.4,0.2-0.6-0.2-0.8-0.3c-1.6-1.2-3.1-2.6-4.4-4.2c-1.6-2-2.9-4.3-3.7-6.7
		c-0.8-2.3-0.9-4.7-0.9-7c0-0.6,0-1.2,0-1.8c0-0.5,0.1-0.6,0.5-0.7c2.3-0.4,4.5-1.2,6.6-2.2c1.4-0.7,2.8-1.5,4.2-2.3
		c0.2-0.1,0.4-0.3,0.6-0.5c0.4-0.5,0.9-0.3,1.4-0.1C17.8,6,18,6.1,18.1,6.2c0.9,0.7,1.9,1.3,3,1.9c2.4,1.3,4.9,2.2,7.5,2.8
		c0.2,0.1,0.5,0.1,0.7,0.2c0.4,0.1,0.5,0.3,0.5,0.6c0.1,2.1,0.1,4.2-0.2,6.3c-0.1,0.7-0.3,1.4-0.6,2c-0.1,0.3-0.2,0.7-0.3,1
		c-0.5,1.5-1.2,2.9-2,4.2c-1.3,2.1-2.9,3.9-4.7,5.5c-0.6,0.5-1.2,0.9-1.8,1.4c-0.2-0.2-0.3-0.3-0.3-0.6c0-0.7,0-1.5,0-2.2
		c0-0.5,0.1-0.5,0.6-0.6c0.3,0,0.7-0.1,1-0.2c0.5-0.2,0.8-0.6,0.6-1.1c-0.3-0.8-0.4-1.6-0.8-2.4c0-0.1-0.1-0.2-0.2-0.2
		c-0.7-0.3-1.4-0.4-2.2-0.4c-1.3,0-2.6,0-3.9,0c-0.6,0-1.1,0.2-1.6,0.5c-0.2,0.1-0.3,0.3-0.4,0.5c-0.2,0.7-0.4,1.4-0.7,2
		c-0.2,0.6,0.1,1.1,0.7,1.2c0.3,0.1,0.7,0.1,1,0.1c0.2,0,0.4,0.1,0.4,0.4c0,0.7,0,1.4,0,2.1C14.3,31.4,14.3,31.7,14.4,31.9z
		 M10.8,25.1c0.6,0,1.1-0.1,1.5-0.5c0.5-0.4,1.1-0.8,1.8-0.8c0.7,0,1.3,0,2-0.1c1.3-0.1,2.7,0,4,0.1c0.5,0,1.1,0.1,1.5,0.6
		c0.4,0.5,1,0.7,1.7,0.7c0.1,0,0.3,0,0.4,0c0.5,0.1,0.9,0,1.2-0.4c0.2-0.2,0.3-0.4,0.5-0.6c0.4-0.5,0.6-1,0.9-1.6
		c0.8-1.3,1.7-2.6,2.5-3.9c0.4-0.6,0.4-1.1,0-1.7c-0.3-0.4-0.6-0.8-0.9-1.3c-0.8-1.5-1.8-2.9-2.7-4.3c-0.2-0.4-0.6-0.6-1-0.7
		c-1-0.1-1.9,0-2.6,0.8c-0.3,0.3-0.6,0.5-1,0.5c-0.8,0.1-1.6,0.2-2.5,0.1c-1.3-0.1-2.6,0.1-4,0c-0.2,0-0.3,0-0.5-0.1
		c-0.4-0.1-0.7-0.4-1-0.7c-0.5-0.4-1-0.8-1.6-0.9c-1-0.1-1.8,0.2-2.3,1.2c-0.9,1.7-2,3.3-3.1,4.9c-0.5,0.9-0.5,1.6,0,2.4
		c1,1.4,1.9,2.9,2.8,4.3c0.3,0.5,0.5,0.9,0.9,1.3c0.2,0.2,0.5,0.3,0.8,0.3C10.5,25.1,10.7,25.1,10.8,25.1z M19.5,11.8
		c0.2,0,0.5-0.1,0.6-0.3c0.5-0.5,0.6-1.3,0.1-1.8C19.4,8.9,18.6,8,17.8,7c-0.3-0.4-0.7-0.4-1.1-0.2c-0.2,0.1-0.4,0.3-0.5,0.5
		c-0.8,0.9-1.5,1.9-2.4,2.7c-0.4,0.4-0.4,0.7-0.1,1.1c0.1,0.1,0.1,0.2,0.2,0.2c0.3,0.3,0.6,0.6,1,0.6c0.8,0,1.5-0.1,2.3-0.1
		C18,11.9,18.8,11.8,19.5,11.8z"/>
	<path d="M12,23.9c-0.1,0-0.3,0-0.4,0c-0.3,0.1-0.5,0-0.7-0.2c-0.3-0.3-0.6-0.7-0.8-1.1c-0.7-1.2-1.5-2.4-2.3-3.6
		c-0.5-0.7-0.5-1.3,0-2c0.8-1.3,1.8-2.6,2.5-4c0.4-0.8,1.1-1,1.9-0.9c0.5,0,0.9,0.4,1.3,0.7c0.2,0.2,0.5,0.5,0.8,0.5
		c0.1,0,0.2,0,0.4,0c1.1,0,2.2-0.1,3.3,0c0.7,0,1.3-0.1,2-0.1c0.3,0,0.6-0.2,0.8-0.4c0.6-0.7,1.3-0.7,2.1-0.6c0.4,0,0.7,0.3,0.9,0.6
		c0.8,1.2,1.5,2.3,2.2,3.5c0.2,0.4,0.5,0.7,0.7,1c0.4,0.5,0.4,0.9,0,1.4c-0.7,1.1-1.4,2.1-2.1,3.2c-0.3,0.4-0.4,0.9-0.8,1.3
		c-0.1,0.2-0.2,0.3-0.4,0.5c-0.3,0.3-0.6,0.4-1,0.3c-0.1,0-0.2,0-0.4,0c-0.5,0-1-0.2-1.4-0.6c-0.3-0.4-0.8-0.5-1.2-0.5
		c-1.1-0.1-2.2-0.1-3.3,0c-0.5,0-1.1,0.1-1.6,0.1c-0.6,0-1.1,0.3-1.5,0.7C12.9,23.8,12.5,23.9,12,23.9z"/>
	<path d="M18.9,11.7c-0.6,0-1.2,0-1.8,0c-0.6,0-1.1,0.1-1.7,0.1c-0.3,0-0.5-0.3-0.7-0.5c-0.1,0-0.1-0.1-0.1-0.2
		c-0.2-0.3-0.2-0.6,0-0.8c0.6-0.6,1.1-1.4,1.8-2C16.5,8.2,16.7,8,16.8,8c0.3-0.2,0.6-0.1,0.8,0.2c0.6,0.7,1.2,1.4,1.8,2
		c0.4,0.4,0.3,1-0.1,1.4C19.3,11.6,19.1,11.7,18.9,11.7z"/>
</g>
</svg>
