<?xml version="1.0" encoding="utf-8"?>
<!-- Generator: Adobe Illustrator 27.7.0, SVG Export Plug-In . SVG Version: 6.00 Build 0)  -->
<svg version="1.1" id="Layer_1" xmlns="http://www.w3.org/2000/svg" xmlns:xlink="http://www.w3.org/1999/xlink" x="0px" y="0px"
	 viewBox="0 0 28.8 32" style="enable-background:new 0 0 28.8 32;" xml:space="preserve">
<style type="text/css">
	.st0{display:none;}
</style>
<path d="M28.4,6c0,0-6,0-14-6c-8,6.1-14,6-14,6s-4,16,14,26C32.4,22,28.4,6,28.4,6z M14.4,26C3.1,19.8,5.6,9.8,5.6,9.8
	s3.7,0,8.7-3.7c5,3.8,8.7,3.7,8.7,3.7S25.6,19.8,14.4,26z"/>
<path class="st0" d="M14.4,26C3.1,19.8,5.6,9.8,5.6,9.8s3.7,0,8.7-3.7c5,3.8,8.7,3.7,8.7,3.7S25.6,19.8,14.4,26z"/>
</svg>
