<?xml version="1.0" encoding="utf-8"?>
<!-- Generator: Adobe Illustrator 27.7.0, SVG Export Plug-In . SVG Version: 6.00 Build 0)  -->
<svg version="1.1" id="Layer_1" xmlns="http://www.w3.org/2000/svg" xmlns:xlink="http://www.w3.org/1999/xlink" x="0px" y="0px"
	 viewBox="0 0 67.8 67.8" style="enable-background:new 0 0 67.8 67.8;" xml:space="preserve">
<g>
	<g>
		<path d="M11.1,43.3c-1.9,0-3.8,0-5.7,0c-0.7,0-1.4-0.1-2-0.6c-1.4-1-1.5-2-0.3-3.2c2.4-2.5,5.2-4.5,8-6.6c0.9-0.7,0.9-1.1,0-1.8
			c-1.8-1.3-3.6-2.7-5.3-4.1c-0.7-0.6-1.6-1.3-1.3-2.4c0.3-1.1,1.4-1.6,2.5-1.8c1.8-0.3,3.6-0.1,5.4-0.1c0.3,0,0.7,0.1,0.9-0.2
			c0.3-0.4-0.1-0.7-0.3-1C9.4,16.5,6,11.6,2.6,6.7C1.7,5.5,0.9,4.4,0.3,3.1c-0.4-0.9-0.6-1.8,0.2-2.5c0.8-0.8,1.7-0.7,2.6-0.2
			c2.3,1.1,4.2,2.8,6.3,4.2c4.1,2.8,8.1,5.6,12.1,8.4c0.3,0.2,0.6,0.6,1,0.4c0.3-0.2,0.2-0.7,0.2-1.1c-0.2-1.7-0.3-3.5,0-5.2
			c0.1-0.6,0.2-1.1,0.5-1.7C24.1,4,25,3.9,26.2,4.9c2,1.7,3.2,4.1,4.9,6c0.7,0.8,1.1,0.9,1.8,0c2-2.6,3.9-5.3,6.2-7.7
			c0.7-0.7,1.3-1.6,2.5-1.1c1.2,0.5,1.7,1.5,1.7,2.7c0.1,3.9,0.2,7.7,0.2,11.6c0,2.1-0.8,3.1-2.7,3.8C30.8,24.1,23.9,31,20.1,41
			c-0.6,1.5-1.4,2.2-3.1,2.3C15.1,43.3,13.1,43.3,11.1,43.3C11.1,43.3,11.1,43.3,11.1,43.3z"/>
		<path d="M20.3,58.7c0.3-7.9,2.8-15.7,8.1-22.6c6.7-8.7,15.4-13.7,26.2-15.4c3.4-0.5,6.8-0.5,10.2,0.1c1.3,0.2,2.6,0.5,2.9,2.1
			c0.2,0.9-1.1,2.2-2.7,2.6c-1.9,0.5-3.9,0.9-5.8,1.5c-5.4,1.7-10.2,4.3-14.8,7.7c-7.1,5.2-12.2,12-15.8,20c-1.3,2.9-2.3,6-2.9,9.1
			c-0.2,1-0.4,2.1-1.1,2.9c-0.5,0.6-1,1.3-2,1.1c-0.9-0.1-1.3-0.9-1.5-1.7C20.5,63.9,20.4,61.7,20.3,58.7z"/>
	</g>
</g>
</svg>
