<?xml version="1.0" encoding="utf-8"?>
<!-- Generator: Adobe Illustrator 27.7.0, SVG Export Plug-In . SVG Version: 6.00 Build 0)  -->
<svg version="1.1" id="Layer_1" xmlns="http://www.w3.org/2000/svg" xmlns:xlink="http://www.w3.org/1999/xlink" x="0px" y="0px"
	 viewBox="0 0 188.9 155.1" style="enable-background:new 0 0 188.9 155.1;" xml:space="preserve">
<style type="text/css">
	.st0{display:none;}
	.st1{display:inline;fill:;}
	.st2{fill:;}
</style>
<g>
	<g class="st0">
		<path class="st1" d="M67.4,31.8c0.1,0.3,0.2,0.6,0.3,1c0.1,0.4,0.4,0.6,0.7,0.6c0.2,0,0.4,0,0.6,0.1
			C68.5,32.9,67.9,32.4,67.4,31.8z M41.5,55.5L41.5,55.5z M34,53.6L34,53.6z"/>
		<path class="st1" d="M122,12.2c-3.5,3.9-6.7,8-10.2,11.9c-1.6,1.8-3,3.6-4.5,5.5c-0.5,0.6-0.9,1.2-1.4,1.8c-1.1,1.4-2.5,2.6-3.5,4
			c-0.1,0.1-0.2,0.3-0.3,0.4c-0.5,0.6-1,1.2-1.5,1.8c-1.3,1.5-2.7,3-3.8,4.6c-0.2,0.2-0.3,0.4-0.4,0.6c-0.2,0.2-0.3,0.4-0.5,0.6
			c-0.1,0.2-0.3,0.3-0.5,0.4c-0.1,0.2-0.2,0.3-0.3,0.5c0.2-0.2,0.4-0.3,0.6-0.5l0,0c1.9-1.6,3.3-3.6,4.6-5.7
			c0.6-0.8,1.2-1.5,1.9-2.3c0,0,0,0.1,0.1,0.1c0.6,0.4,0.8-0.3,1-0.8c0.4-1,1.1-1.8,1.8-2.5c0.9-0.9,1.8-1.9,2.8-3.1
			c-0.2,0-0.3,0-0.5,0c3.6-4.4,7.2-8.7,11-13c1.3-1.5,2.5-3.1,3.8-4.6c0.3-0.4,0.5-0.7,0.4-1.1C122.6,11.3,122.4,11.8,122,12.2z"/>
	</g>
	<g>
		<path class="st2" d="M85.4,75.8c0.9-4.4,1.5-7,1.9-9.8c0.4-2.6,0.9-5.1,1.4-7.7c0-0.1,0-0.3,0.1-0.4c0.3-0.6,0.2-1.7,1-1.9
			c0.4-0.1,0.7,0.2,0.9,0.6c-0.1,0-0.2,0-0.2-0.1c0.9,1.5,2.2,2.6,3.5,3.6c0.1,0.1,0.2,0.1,0.4,0.1h0c0.6,0.5,1.1,0.4,1.7-0.2
			c1.1-1.2,2.3-2.3,3.4-3.4c0.3-0.3,0.5-0.6,0.9-0.5c0.4,0.1,0.5,0.5,0.5,0.9c0.2,1.4,0.5,2.9,0.7,4.3c0,1.4,0.5,2.8,0.8,4.1
			c1,5.2,1.8,8.6,2.4,11.5l0.9,6.5c0.5,4.7,1.8,9.2,2.6,13.8c0.4,2.2,0.9,4.5,1.4,6.7c1.1,5.2,1.9,10.4,2.9,15.5
			c1.2,6.1,2.5,12.2,3.8,18.3c0.1,0.7,0,1.2-0.6,1.5c-2.3,1.8-4.6,3.6-6.9,5.3c-4.3,3.1-8.5,6.2-12.7,9.5c-1.6,1.2-2.3,1.3-3.8,0
			c-2.1-1.8-4.5-3.3-6.7-5c-4.2-3.3-8.6-6.4-12.9-9.6c-0.6-0.4-1-0.9-0.8-1.8c0.5-2.2,1.1-4.4,1.4-6.6c0.3-2.2,0.7-3.1,3.2-16.5
			c1.1-6.1,1.8-9.8,2.8-14.3C81.9,89.1,83.1,86.6,85.4,75.8z"/>
		<path class="st2" d="M135,83.9c2.4-1,4.9-2,7.3-3C139.8,81.9,137.4,82.8,135,83.9z M148,78.7c-0.3,0.1-0.6,0.3-0.9,0.4
			c0.7-0.2,1.3-0.5,2-0.7c0.5-0.2,0.7-0.4,0.8-0.7C149.7,78,149.1,78.2,148,78.7z M138.3,55.5c-1-0.1-2.1,0-3.1,0
			c-0.6,0-0.9,0.2-0.9,0.5c0.1-0.1,0.4-0.2,0.8-0.3c2.2-0.3,4.3,0.1,6.5,0c5.9,0.5,11.4-1.1,17-3c0.5-0.2,1-0.4,1.5-0.6
			C153.1,54.9,145.8,56,138.3,55.5z"/>
		<path class="st2" d="M34,53.6c-0.4-0.1-0.8-0.2-1.3-0.3c-0.2-0.1-0.4-0.2-0.6-0.2C32.7,53.3,33.3,53.5,34,53.6z"/>
		<path class="st2" d="M29.8,52.3c-1.2-0.5-2.5-0.9-3.7-1.5c-0.4-0.2-0.8-0.4-1.2-0.5c-0.4-0.2-0.9-0.4-1.3-0.6
			c-0.9-0.4-1.7-0.9-2.5-1.3c-0.4-0.2-0.8-0.5-1.2-0.7c-0.4-0.2-0.8-0.5-1.2-0.7c-0.4-0.2-0.8-0.5-1.2-0.7c-2-1.2-4.1-2.5-6.1-3.9
			c-2.9-1.9-5.6-4.1-8.5-6.1c-0.8-0.5-1.5-1.3-2.4-1.8c-0.2-0.1-0.4-0.3-0.4-0.5c0.2,0.1,0.3,0.2,0.5,0.3c5,4,10.3,7.7,15.8,11.1
			C20.6,47.9,25,50.4,29.8,52.3z"/>
		<path class="st2" d="M77.9,51.4c-1.8,5.4-3.2,11-4.9,16.5c-0.7,2.2-1.4,4.5-2,6.7c-0.1,0.1-0.2,0.2-0.2,0.3
			c-0.6,1.7-1.2,3.4-1.7,5.1c-0.8,2.6-1.5,5.2-2.2,7.8c-0.1,0.4-0.3,0.7-0.5,0.8c-0.2,0-0.3-0.1-0.5-0.1c-2.3-1-4.6-1.9-6.9-2.9
			c-2.8-1.2-5.7-2.4-8.6-3.4c-3.5-1.2-6.8-3-10.4-4.2c-0.6-0.2-0.7-0.5-0.3-1c1.8-2.1,3.4-4.3,5-6.5c2.4-3.3,5-6.5,7.5-9.8
			c1-1.4,2-2.8,3-4.1c0.6-0.8,0.5-1.1-0.6-1.1c-3.4,0-6.9-0.1-10.3,0c-0.9,0-1.8,0-2.7-0.1c-1-0.1-2.1-0.3-3-0.6
			c-1.5-0.5-3-0.8-4.6-1.3c-0.6-0.2-1.3-0.4-1.9-0.6c0.2,0.1,0.4,0.2,0.6,0.2c-0.2-0.1-0.5-0.2-0.7-0.2c-0.1,0-0.1,0-0.1-0.1
			c0,0-0.1,0-0.1,0c-0.4-0.1-0.8-0.2-1.1-0.4c-0.2-0.1-0.5-0.2-0.7-0.3c0,0,0,0-0.1,0c-4.8-1.9-9.2-4.4-13.5-7
			c-5.5-3.4-10.7-7.1-15.8-11.1C0.4,34,0.2,33.9,0,33.8c0,0,0,0,0-0.1c0.1-0.3,0.4-0.2,0.6-0.2c1.3-0.1,2.6-0.2,3.9-0.2
			c5.8,0,11.6,0.1,17.4,0.1c7.4-0.1,14.7-0.1,22.1-0.1c4.2,0,8.4,0.1,12.6,0.1c0.5,0,1.1,0.1,1.6,0c2-0.5,3.2,0.4,4.6,1.8
			c3.6,3.6,7,7.4,10.7,10.8c1.2,1.2,2.3,2.5,3.5,3.8c0.1,0.1,0.3,0.3,0.3,0.6c0.1,0.3,0,0.6-0.1,0.8C77.5,51.3,77.7,51.4,77.9,51.4z
			"/>
		<path class="st2" d="M122.6,10.9c0,0.4-0.2,0.8-0.6,1.3c-3.5,3.9-6.7,8-10.2,11.9c-1.6,1.8-3,3.6-4.5,5.5c-0.3,0-0.5,0.2-0.7,0.4
			c-1.4,1.6-2.8,3.2-4.1,4.8c-0.2,0.2-0.7,0.7-0.5,1c-0.5,0.6-1,1.2-1.5,1.8c0.1-0.2,0.2-0.4,0.4-0.6c-1.7,2.4-3.9,4.4-5.6,6.8
			c-0.4,0.2-0.8,0-1.1-0.4c-1.3-1.9-3.1-3.5-4.4-5.3c-1.8-2.6-4.2-4.7-6-7.3c-1-1.5-2.4-2.7-3.6-4.1c-3-3.8-6.3-7.4-9.4-11.1
			c-0.8-1-1.7-2-2.5-2.9c-0.9-1-1.3-1.9-0.5-3.2c1.6-2.6,3-5.4,4.4-8.1C72.7,0.5,73.6,0,74.5,0c6.7,0,13.4,0,20.1,0c0,0,0,0,0,0
			c6.5,0,13,0,19.5,0c1.6,0,2.5,0.5,3.4,1.9c1.6,2.6,2.8,5.4,4.6,7.8c0,0,0,0.1,0.1,0.1c0,0.1,0.1,0.1,0.1,0.2
			c0.1,0.2,0.2,0.3,0.2,0.5c0,0.1,0,0.1,0,0.2C122.6,10.8,122.6,10.8,122.6,10.9z"/>
		<path class="st2" d="M122.5,10.5c-0.1-0.2-0.1-0.3-0.2-0.5c0-0.1-0.1-0.1-0.1-0.2C122.4,10.1,122.5,10.3,122.5,10.5z"/>
	</g>
	<g>
		<path class="st2" d="M188.3,34.6c-4.1,3.2-8.3,6.2-12.6,9.1c-3.9,2.6-7.9,4.8-12.1,6.9c-0.4,0.2-0.8,0.4-1.2,0.6
			c-0.8,0.3-1.5,0.7-2.3,1c0,0-0.1,0-0.1,0.1c-6.9,2.8-14.2,3.9-21.7,3.4c-1-0.1-2.1,0-3.1,0c-0.6,0-0.9,0.2-0.9,0.5
			c-0.3,0.2-0.2,0.6,0.1,1.1c0.2,0.2,0.3,0.5,0.5,0.7c2.4,3.3,4.9,6.5,7.3,9.8c2.4,3.1,4.8,6.2,7.2,9.2c0.3,0.4,0.4,0.7,0.4,0.9l0,0
			c-0.1,0.3-0.7,0.5-1.8,1c-0.3,0.1-0.6,0.3-0.9,0.4c-0.5,0.2-1.1,0.4-1.6,0.6c-1.1,0.4-2.1,0.8-3.2,1.3c-2.5,1-4.9,1.9-7.3,3
			c0,0,0,0-0.1,0c-1.4,0.6-2.8,1.1-4.2,1.7c0,0,0,0-0.1,0c-0.9,0.3-1.8,0.6-2.6,0.9c-1.4,0.5-2.7,1.3-4.1,1.8
			c-0.9,0.3-1.2,0.1-1.4-0.9c-0.5-2.1-1.2-4.1-1.8-6.1c-0.6-2.3-1.1-4.7-1.8-7c-0.7-2.3-1.5-4.5-2.2-6.8c-1-3.4-1.9-6.9-2.9-10.3
			c-0.4-1.5-0.9-2.9-1.5-4.3c-0.3-0.7-0.1-1.5-0.4-2.2c-0.2-0.4-0.1-0.9,0.2-1.2c3.7-3.7,7.5-7.3,11-11.2c1.3-1.4,2.8-2.6,4-4.1
			c0.5-0.6,1.3-1.1,2.2-1.1c9.8,0,19.6,0,29.4,0v0.1c4.1,0,8.2-0.1,12.3,0c5.6,0.2,11.3,0,16.9-0.1c0.4,0,0.9-0.1,1,0.3
			C189.1,34.1,188.6,34.3,188.3,34.6z"/>
		<path class="st2" d="M134.9,84c-1.4,0.6-2.8,1.2-4.2,1.7C132.1,85.1,133.5,84.5,134.9,84z"/>
		<path class="st2" d="M147.1,79.1c-1.6,0.7-3.2,1.3-4.8,1.9c1-0.4,2.1-0.8,3.2-1.3C146,79.5,146.5,79.3,147.1,79.1z"/>
		<path class="st2" d="M162.4,51.1c-0.8,0.4-1.5,0.7-2.3,1C160.9,51.7,161.6,51.4,162.4,51.1z"/>
	</g>
	<path class="st2" d="M83.2,87.1L83.2,87.1z"/>
</g>
</svg>
