<?xml version="1.0" encoding="utf-8"?>
<!-- Generator: Adobe Illustrator 27.7.0, SVG Export Plug-In . SVG Version: 6.00 Build 0)  -->
<svg version="1.1" xmlns="http://www.w3.org/2000/svg" xmlns:xlink="http://www.w3.org/1999/xlink" x="0px" y="0px"
	 viewBox="0 0 201.3 211.7" style="enable-background:new 0 0 201.3 211.7;" xml:space="preserve">
<style type="text/css">
	.st0{display:none;}
</style>
<g id="Layer_1">
	<g>
		<path d="M70.8,35.5c6.7-7.7,20.1-10.6,28.8-16c2.3-0.6,6.8-5.3,7.6-5.3c6.3-2.5,18.5,4,22.3,10.2c4.4,6.8,9.8,8.4,15.5,8.7
			c11-11,21.9-22,32.9-32.9C170.4,0,163.1,0.1,155.2,1c-3.8,6.3-16.4,20.9-10.6,2.2c-1.1,0.2-2.7,0.7-4.6,1.5c-4.5,2-5.1,3.9-7.5,4
			c-3,0.1-3-2.9-7.5-4c-0.8-0.2-1.4-0.3-1.9-0.3c-1.7,0-2.4,0.4-3.9,0.5c-1.4,0.1-2.4-0.1-3.1-0.3c-4-0.7-11.3,0.2-13,0.4
			C95.9,5.9,90.5,7.8,89,8.4c-5.4,2-9.9,4.5-13.4,6.8c-3.1,0.8-7.7,2.5-12.5,5.8c-4,2.8-6.6,5.6-7.6,6.8L66.6,39
			C67.7,37.7,69.1,36.6,70.8,35.5z"/>
		<path d="M190.1,51.4c-0.2-2.1-0.3-3.7-0.3-5.2c-4.5,4.5-9,9.1-13.6,13.6c0.4,3.3,0.6,6.2,0.7,7.9c1.6,10,6.6,28.3-4.3,36.2
			l-4.5,4.8c-2.6,3.1-9.4,8.4-12.2,10.8c-7.6,11.7,19.7-5.4,10.6,15.1c-0.6,1-1,2-1.3,3l20.7,20.7c-0.2-1.9-0.5-3.9-1.1-5.9
			c-2.3-7.9-6.1-9-6-14.9c0.1-7.2,5.8-10.4,4.3-16.6c-0.7-2.7-2.4-4.6-3.6-5.7c3.1-2.7,7.9-7.6,11.3-15.1c5.8-13,3.4-25,2.3-29.1
			C191.5,63.1,190.6,56.4,190.1,51.4z"/>
		<path d="M44.2,99.4c-0.8-2.6,0.3-6.6-0.8-9.7c-0.7-3.4,1.3-6.7,2.5-9.4c0.9-0.5,1.8-1,2.5-1.6L35.8,66.1c-1.2,0.6-2.4,1.2-3.7,2.5
			c-8.8,9-5.3,31.6,5.9,40.7c1.5,1.3,7,5.8,10.8,3.9c1.3-0.7,2.1-1.9,2.6-3C51,105.4,45.4,103.8,44.2,99.4z"/>
		<path d="M141.1,171.3c-5.6,3.7-11.3,3.5-13.1,3.4c-2.5-1-5.1-2-7.8-2.9c-3.7-1.3-7.4-2.5-10.9-3.6c-1.9-1.4-4.6-3.7-7.7-6.9
			c-3.4-3.5-4.2-5-6-5.4c-2.3-0.6-6,0.7-12.2,9.4c5.5,1.7,18.1,6.3,29,18.5c9.7,10.8,13.1,22.3,14.4,27.9c1.3-2.2,3.8-7.1,3.6-13.7
			c-0.2-10.5-6.9-17.1-8.4-18.5c1.3,0.9,4.1,2.8,8.2,3.3c4.6,0.5,8.2-1,9.6-1.7c1.7-0.1,4.1-0.6,6.8-1.9c0.5-0.3,1.1-0.5,1.5-0.8
			C145.8,176,143.4,173.7,141.1,171.3z"/>
		<path d="M100.4,42.6c8.6,2.2,14.5,9.1,18.2,17c3.3-3.3,6.5-6.5,9.8-9.8c-13.4-7.4-0.6-10.7,10.5-10.5c0.2-0.2,0.5-0.5,0.7-0.7
			c-7.8-2.8-16.2-10.3-22.3-14.3c-3.5-3.4-13.1-1.7-14.4,3.9c-6-2.8-7.9,3.5-13.3,3.7c-0.9-3-13.2,5.5-13.2,9.5
			C79.2,43.3,99.3,50.3,100.4,42.6z"/>
		<path d="M106.4,65.1c-4.2-3.6-7-13.5-14.1-11.1c-2.3,0.8-9.6-3-15.4-4.7l12.5,12.5c5.4,2.2,10,5.4,11.3,11.3l2.2,2.2
			c2.2-2.2,4.3-4.3,6.5-6.5C108.2,66.1,112.5,62.6,106.4,65.1z"/>
		<path d="M163.8,72.2c3.9-1.8,7-3.5,6.9-4.5c-0.3-0.6-0.5-1.1-0.7-1.6C167.9,68.1,165.9,70.2,163.8,72.2z"/>
		<path d="M159,77.1c-7.4,7.4-14.7,14.8-22.1,22.1c-0.1,0.2-0.3,0.4-0.6,0.6c-1.5,1.5-2.9,2.9-4.4,4.4l8.9,8.9
			c2.5-1.6,3.4-3.9,4.3-7.4c4.1-1.7,4.3-4.3-0.3-6.4c-9-5.8,21.2,4.6,15.8-12.3C153,84.2,160.1,79.8,159,77.1z"/>
		<path d="M85.1,151.8c-0.3,0-0.6,0.1-0.9,0.2c-3.3,3.3-6.6,6.6-9.8,9.9c1-0.5,2-1,3-1.4C81.1,158.8,91.2,154.5,85.1,151.8z"/>
		<path d="M33.5,112.7c1.4,0.2,3.4-6.2,5.1-12.4c0.9-3,1.5-3.7,1.9-3.6c1.1,0.1,2,5.4,1.2,10.5c-0.4,2.7-1.3,4.7-1.4,5.1
			c-3.9,9.2-11,30.6-14.9,40.6c16.2-16.2,32.4-32.4,48.6-48.6c-1-1-2-2-3-3c-0.8,0.8-1.7,1.6-2.3,2.3c-5.5,3.2-21.6,29.4-22.6,24.2
			c1.7-8.7,10.1-14.7,4.6-22.3c-1.1-2-2.2-4.2-3-6.6c-3-8.5-2.8-16.5-1.8-22.6c-0.8-0.8-1.5-1.5-2.3-2.3c-3,3.9-5,7.5-6.4,10.3
			c-0.5,1.1-4.2,8.8-5.2,19.5C31.8,106.8,32.3,112.6,33.5,112.7z"/>
		<path d="M23.2,155.2c0.5-2.5,1.6-6.7,3.6-13.8c-0.7,0.9,4.4-9.4,0.2-7.5c-1.5,1.4-2.2,2.1-2.6,2.6c-3.2,9.4-6.7,18.3-10.1,27.6
			C17.3,161.1,20.2,158.1,23.2,155.2z"/>
		<path d="M54.7,87.9c1.3,3.9,2.5,1.4,3.9,1c-2.2-2.2-4.3-4.3-6.5-6.5C51.3,83.6,51.8,85.4,54.7,87.9z"/>
	</g>
	<path class="st0" d="M-570.6,165.2c-0.2-0.2-0.8-0.3-1.6-0.9c-0.3-0.2-0.6-0.4-0.8-0.7c-0.3-0.3-0.9-0.9-1.1-1.7
		c-0.1-0.5,0-0.9,0.2-1.6c0.1-0.3,0.5-1.9,1.5-3.1c0.3-0.4,0.4-0.7,0.6-1.2c0.1-0.2,0.1-0.4,0.1-0.6c-0.1-0.3-0.3-0.5-0.4-0.6
		c-0.3-0.3-0.7-0.3-0.7-0.3c-0.3,0-0.5,0-0.7,0.1c-0.8,0.3-1.3,0.8-1.3,0.8c-0.6,0.7-1.7,1.3-3.8,2.5c-0.6,0.3-1.8,0.8-4.2,1.7
		c-0.1,0-0.5,0.2-1,0.1c-0.2,0-0.4-0.1-0.5-0.2c-0.2-0.2-0.3-0.3-0.4-0.4c0-0.1-0.1-0.2-0.1-0.4s0.1-0.4,0.2-0.5
		c0.4-0.6,0.6-0.8,0.6-0.8c1.7-1.7,1.9-2.3,3.9-3.9c1.7-1.3,3.3-2.3,4.2-3.6c0.1-0.2,0.6-0.9,0.7-1.7c0-0.4,0-0.8-0.1-0.8
		c-0.1-0.4-0.3-0.7-0.4-0.8c-0.4-0.6-0.7-1.2-1.1-1.8c-0.6-1-0.7-2.2-0.8-3.3c-0.1-1.9,0.4-2.3,0.5-5.4c0.1-1.6,0-2.2-0.5-2.5
		c-0.4-0.3-1.1-0.2-2.3,0c-3.5,0.7-3.7,0.7-4.2,0.7c-0.9,0.1-1.2-0.1-4.1-0.8c-2.9-0.7-4.4-1.1-5.9-1.4c-1.1-0.2-4.5-0.9-5.7-1.8
		c-0.5-0.4-1-0.8-1-0.8c-0.5-0.4-0.6-0.6-1-0.9c-1.2-1.1-1.5-1.1-2-1.8c-0.2-0.3-0.5-0.7-0.5-1.2c-0.1-0.6,0.1-1,0.2-1.3
		c0-0.1,0.2-0.5,0.5-0.9c0.4-0.5,0.9-0.9,1.6-1.2c1.1-0.6,1.9-0.7,2.2-0.8c3-1.3,0.7-13.8-0.7-13.8c-0.1,0-0.4,0.1-0.7,0
		c-0.4-0.1-0.7-0.3-0.9-0.5c-0.7-0.6-1.1-1.3-1.1-1.4c-0.8-1.7-3.4-4.1-3.7-4.4c-1.2-1.1-2.6-2.5-4.9-3c-0.6-0.2-1.7-0.4-3-0.3
		c-1.1,0.1-2.2,0.2-3.2,0.3c-0.3,0-0.8,0.1-1.2-0.2c-0.3-0.2-0.3-0.3-0.8-1c-0.4-0.5-0.7-0.8-1-0.9c-0.5-0.2-1-0.1-1.3,0.1
		c-0.1,0.1-0.4,0.2-0.4,0.5c0,0.1,0,0.2,0.1,0.3c0.2,0.4,0.4,0.4,0.7,0.7c0.1,0.1,0.1,0.3,0.1,0.4c0,0,0,0.1-0.1,0.1
		c-0.2,0.2-0.4,0.3-0.4,0.3c-2.2,0.7-4,2.3-6.1,3.3c-2.5,1.2-2.1,1.2-6.2,3.2c-1.6,0.8-2.4,1.2-3.2,1.5c-1.1,0.4-2.2,0.9-3.3,1.3
		c-0.2,0.1-0.6,0.2-1.1,0.6c-0.2,0.1-0.7,0.5-1.2,1.1c-0.3,0.3-1.1,1.3-1.4,2.4c0,0-0.1,0.5-0.5,0.9c-0.1,0.1-0.2,0.2-0.4,0.2
		s-0.3,0-0.4,0c-0.5-0.1-1-0.1-1.4-0.3c-0.8-0.2-2,0.2-3.3,0.8c-1.4,0.6-2.7,1-4.2,2.1c-0.5,0.4-1.2,0.9-2,1.8
		c-1.1,1.2-1.7,1.8-2,2.5c0,0-0.2,0.5-0.8,1c-0.1,0.1-0.3,0.3-0.5,0.3c-0.3,0-0.4-0.2-0.5-0.2c-0.5,0-0.7,2.1-1.5,4.4
		c-0.5,1.2-0.8,1.5-1.1,1.7c-0.5,0.3-1.2,0.1-1.5,0.7c-0.1,0.1-0.1,0.2-0.2,0.4c-0.2,0.7,0,1.3,0.1,1.6c0.3,1.2-0.1,2.4-0.3,3.3
		c-0.1,0.4-0.3,0.8-0.6,1.3c0,0-0.4,0.6-1.3,1.4c-0.1,0.1-0.2,0.2-0.2,0.2c-0.1,0.1-0.2,0.2-0.2,0.2c-1.7,1.5-2.8,3.4-2.8,3.4
		c-0.2,0.3-0.5,0.8-0.7,1.6c-0.5,1.5-0.6,2.7-0.9,6.6c0,0.6-0.1,1-0.4,1.5c-0.2,0.3-0.9,1.1-1,1.2c-0.5,0.5-1,1-1.4,1.4
		s-0.7,0.6-0.7,0.6l0,0c-1.5,1.8-1.8,2.3-1.8,2.3c-1.4,2-2.2,5.4-2.4,6c-0.2,0.8-0.3,1.3-0.4,1.7c-0.3,2-0.4,3.5-0.5,4.7
		c-0.2,4.7-0.2,7.1,0.5,9.8c0.7,2.3,1.5,3.8,1.8,4.2c0.9,1.4,1.8,2.3,3.6,3.9c0.3,0.3,1.1,1,2.2,1.2c0.3,0.1,0.6,0.1,0.7,0
		c0.8-0.1,1.2-0.6,1.5-0.8c0.8-0.8,0.9-1.6,1-1.7c0-0.1,0-0.2,0-0.2s0-0.2,0-0.4c-0.1-1.2-1.1-2.3-1.1-2.3c-0.2-0.2-0.4-0.4-0.8-0.7
		c0,0-0.4-0.3-0.6-0.5l0,0c-0.1-0.1-0.1-0.1-0.1-0.1l0,0c-0.1,0-2.2-2.5-2.4-2.8c0,0-0.1-0.1-0.1-0.2c-0.4-0.7-0.9-1.9-0.9-1.9
		s-0.2-0.4-0.2-0.7c0,0,0,0,0-0.1l0,0c0-0.4,0-0.8,0-0.8c0-0.1,0-0.1,0-0.2c0-0.8,0-2.4,0-3.2c0-0.2,0-0.4-0.1-0.7
		c0-0.1,0-0.2,0-0.3c0-0.2-0.1-0.6-0.2-1c0-0.2-0.1-0.6-0.2-0.9c0-0.1,0-0.1,0-0.1c-0.4-1.4,0.4-3.8,0.4-3.8
		c0.1-0.3,0.2-0.5,0.4-0.9c0,0,0.1-0.3,0.4-0.8c0.2-0.5,0.6-1.3,1.1-2.2l0,0c0,0,3.8-2.6,5.8-5.4c1.1-1.5,2.1-2.9,1.8-4.6
		c-0.2-1.1-0.9-2-0.8-3.8c0-0.1,0.1-0.7,0.2-1.3c0.5-1.6,1.4-2.7,2.8-4.2c0.6-0.7,0.9-0.9,1.4-1.6c0.4-0.5,0.7-1.1,1.1-1.9
		c0.7-1.5,0.9-2.5,1.3-4.1c0.6-2.1,1.1-4,2.3-5.9c0.7-1.2,1.5-2,1.9-2.4c1.2-1.2,2.4-1.9,2.7-2.1s0.5-0.3,0.6-0.3
		c2.1-1.1,3.3-2.8,5.8-4.7c1.7-1.2,3.5-2.2,4.4-2.6c0.5-0.3,0.8-0.6,1.2-0.6c2.2,0.1,4-0.5,5.7-1.4s3.3-2.1,5-3.1
		c1.3-0.8,2.7-1.5,4.1-2.2c1.3-0.8,2.6-1.7,3.6-2.9c0.1-0.1,0.3-0.2,0.5-0.3c0.2-0.1,0.4-0.1,0.6-0.1c3.7-0.6,7.2,0,10.3,1.5
		s5.8,4,7.7,7.2c0.4,0.6,0.9,1.1,1.4,1.6s1,1,1.3,1.8c0.5,1.5,0.5,2.6,0,3.4c-0.6,0.8-1.7,1.3-3.5,1.3c-1.6-0.8-3.5-0.6-5.4-0.8
		c-1.9-0.2-3.9-0.7-5.4-2.7c-0.4-0.6-1.2-1.1-2-1.5c-0.8-0.5-1.7-0.9-2.5-1.2c-1.2-0.5-2-0.4-2.5,0.1s-0.9,1.4-1.1,2.3
		c-0.1,0.7-0.4,1.2-0.8,1.5c-0.4,0.3-0.9,0.4-1.4,0c-1.9-1.2-3.5-1-4.9-0.4c-1.5,0.6-2.8,1.7-4.2,2.5c-0.3,0.2-0.6,0.4-0.9,0.6
		c-0.3,0.2-0.6,0.4-0.9,0.5c-1,0.4-1.8,0.5-2.5,0.2c-0.8-0.3-0.3-1.4-1.3-2.2c-0.4-0.4-0.9-0.4-0.9-0.4c-0.7-0.1-1.3,0.3-1.4,0.4
		c-0.7,0.5-1.3,1.6-1.1,2.4c0.2,0.7,0.9,0.8,4.2,2.2c1.8,0.7,2.2,0.9,3.4,1.2c0,0,1.9,0.5,3.6,0.3c0.4-0.1,0.7-0.2,0.8-0.3
		c0.1-0.1,0.3-0.2,0.5-0.5c0.3-0.5,0.3-0.9,0.5-1.6c0.1-0.6,0.3-1.3,0.8-1.6c0.6-0.4,1.4-0.1,1.8,0.1c4.9,2,7.6,4.7,7.6,4.7
		c2.4,2.4,4.2,4.8,5.6,7c1.2,1.8,3.3,5.3,5.2,10.1c2.3,6.2,2,8.8,2.9,10.9c0,0,0.4,0.9,0.3,2.1c0,0.4-0.1,0.7-0.3,1.1
		c-0.3,0.4-0.6,0.5-0.7,0.6c-0.2,0.1-0.6,0.3-1.1,0.2c-0.3-0.1-0.6-0.3-0.8-0.5c-0.8-0.8-1.2-1.7-1.2-1.7c-0.6-1.5-1.8-2.5-3.1-3.8
		c-0.7-0.7-1.4-1.3-2.6-1.9c-0.7-0.3-0.7-0.2-1.7-0.7c-1.8-0.9-2.3-1.4-2.6-1.9c-0.2-0.3-0.3-0.5-0.3-0.8c-0.1-0.7,0.1-1.4,0.7-2.8
		c0,0,0.1-0.2,0.1-0.5c0-0.2,0-0.4-0.1-0.5s-0.3-0.1-0.4-0.1c-0.2,0-0.4,0.1-0.5,0.1c-1.2,0.5-1.8,0.9-2.4,0.8
		c-0.3,0-0.5-0.2-0.8-0.5c-1.2-0.9-1.6-2.3-1.7-2.6c-0.7-2-1.9-3.3-3.6-5c-1.5-1.6-2.9-2.5-3.5-2.7c0,0-1.3-0.5-1.7-0.6
		c0,0-0.1-0.1-0.2-0.1c0,0-0.1,0-0.2,0c-1.1-0.1-2.5,0.4-2.5,0.4c-0.8,0.3-1.7,0.1-3.4-0.3c-2.6-0.6-2.8-1.7-5.5-2.2
		c-1.6-0.3-2.3-0.1-2.6,0c-1.3,0.6-1.8,2-1.9,2.4c-0.1,0.3-0.5,1.6,0.1,2.9c0.5,1.1,1.5,1.7,2.2,2c2.4,1.2,4.4,1.8,6.7,2.4
		c0.8,0.2,4,1.1,6.7,2.4c0.4,0.2,1.3,0.6,2.1,1.5s1.2,1.7,1.3,2.1c1.2,2.8,2.4,6.1,2.9,7.5c1.2,3.2,1.9,3.6,3.2,7.3
		c0.6,1.7,0.8,2.6,0.9,3.8c0,0.5,0,1.6,0,3.8c0,1.9-0.1,2.1,0.1,2.5c0.2,0.8,0.5,1.7,0.8,2.5c0,0,0.1,0.3,0.1,0.7s-0.2,0.5-0.2,0.6
		c0,0-0.2,0.1-0.3,0.2c-0.1,0-0.2,0-0.3-0.1c-0.2-0.1-0.3-0.2-0.5-0.5c-0.3-0.6-2.1-1.9-2.7-2.2c-1.1-0.7-1.1-0.4-3.1-1.5
		c-1.4-0.7-2.1-1.1-2.8-1.7c-1.1-1-1.7-2.2-1.9-2.8c-1.5-3.3-1.4-2-4.3-7.7c0,0-2.2-4.3-4.9-7.4c-0.3-0.4-0.6-0.5-0.8-0.6
		c-0.4-0.2-0.8-0.2-1-0.2c-1.2,0-4-0.4-4.9-0.6c-1.8-0.4-1.5-0.9-4.5-1.9c-2.3-0.8-3-0.6-3.4-0.5c-0.8,0.3-2,1.2-2.5,2.4
		c-0.1,0.2-0.3,0.8-0.7,1.5c-0.2,0.2-0.4,0.6-0.8,0.7c-0.2,0.1-0.3,0-0.4,0c-0.8,0.1-1.4,1.9-1.2,2.9c0.1,0.5,0.4,0.9,0.4,0.9
		c0.1,0.1,0.2,0.2,0.3,0.3c0.2,0.2,0.5,0.1,0.6,0.1s0.3,0,0.6-0.1c0.2-0.1,0.3-0.2,0.4-0.4c0.3-0.4,0.4-0.8,0.4-1l0,0
		c0.1-0.5,0.8-2,2.4-2.7c0.2-0.1,0.5-0.2,0.9-0.3c0.9-0.1,1.7,0.1,2.5,0.5c2.2,1.1,4,3.2,4.2,3.4c0.5,0.6,1.7,2.1,3.1,4.5
		c1.5,2.7,2.4,5.1,3.2,7.2c0.1,0.3,0.5,1.3,1.1,2.8c0.7,1.7,0.6,1.6,0.7,1.7c0.1,0.3,0.2,0.8,0.4,1.3c0.2,0.6,0.4,1.2,0.7,1.6
		c0.1,0.2,0.4,0.6,0.5,1.3c0,0.3,0.1,0.6-0.1,0.8c-0.1,0.2-0.2,0.3-0.3,0.3c-0.1,0.1-0.2,0.2-0.5,0.2c-0.3,0.1-0.5,0-0.8-0.1
		c-0.5-0.2-0.9-0.6-1.1-0.7c0.4,0.5,1.5,1.7-2.1-2c-1.3-1.4-1.5-1.6-2-2s-0.8-0.7-1.3-1.1c-1-0.7-1.5-0.7-2.7-1.4
		c-0.8-0.4-1.3-0.9-1.6-1.1c-1.2-0.9-2.2-1.7-2.8-3c-0.2-0.5-0.6-1.6-0.9-2.6c-0.1-0.2-0.3-1-0.7-1.4c-0.2-0.2-0.6-0.5-0.9-0.6
		c0,0-0.3-0.1-0.8-0.1s-1.2,0.1-2.1,0.4l0,0c0,0,0,0-0.1,0l0,0c-0.1,0-0.2,0.1-0.2,0.1c-0.3,0.1-0.8,0.2-0.8,0.2
		c-0.4,0.1-0.8,0.2-1.1,0.2h-0.1c-1.1,0.2-1.7,0.2-2.2,0.5c-0.3,0.1-0.7,0.3-1,0.6l0,0c-0.1,0.1-0.4,0.4-0.6,0.9
		c-0.1,0.2-0.3,0.7-0.2,1.3c0,0.1,0.1,0.4,0.3,0.9c0.3,0.7,0.7,0.8,1.5,1.6c0.6,0.6,0.9,0.9,1.2,1.4c0,0.1,0.3,0.6,0.5,1
		c0.1,0.3,0.2,0.4,0.3,0.6c0.3,0.5,0.5,0.7,0.7,0.8c0.3,0.1,0.7-0.2,0.9-0.4c0.4-0.4,0.5-0.7,1-1c0.1-0.1,0.2-0.1,0.4-0.2
		c0.1,0,0.4,0,0.9,0.3c0.3,0.2,1,0.6,1.2,1.3c0.1,0.3,0,0.8-0.1,1.8c-0.1,0.9-0.2,1.1,0,1.3c0.1,0.2,0.5,0.2,1.3,0.2
		c0.7,0,1,0,1.5,0.2c0.2,0.1,0.3,0.2,0.4,0.2c0.4,0.3,0.6,0.6,0.6,0.8c0.1,0.2,0.2,0.4,0.2,0.8c0,0.2-0.1,0.4-0.2,0.6
		c-0.2,0.5-0.6,0.9-0.8,1l0,0c-0.8,0.6-1.8,1.8-1.8,1.8c-0.3,0.4-0.1,0.1-1.8,1.8c-2.1,2.2-4.7,5-5.2,5.5c-3.4,3.6-5.1,5.5-5.2,5.6
		c0,0-1.8,2.3-4.9,6.8c-0.1,0.1-0.5,0.7-1,1.5c-0.2,0.2-0.4,0.5-0.6,0.8c-0.2,0.2-0.5,0.7-1.1,1.5c0,0-0.3,0.4-0.8,1
		c-0.5,0.5-1.1,1.2-1.6,1.8c-0.4,0.4-0.6,0.5-0.7,0.6c-0.1,0.1-0.2,0.1-0.4,0.2c-0.2,0-0.4-0.1-0.5-0.1s-0.2-0.1-0.4-0.3
		c0-0.1-0.1-0.2-0.2-0.5c-0.1-0.5,0.1-0.9,0.1-1c1.6-3.8,2.3-5.7,2.4-5.8c0.8-1.3,1.8-3.2,2.7-5.6c1-2.4,1.4-3.7,1.3-5.2
		c-0.2-2.3-1.5-4.2-1.9-4.8c-0.9-1.3-1.7-1.8-2.5-3.5c-0.4-0.9-0.6-1.7-0.7-2.2c-0.2-0.9-0.2-1.6-0.1-2.3c0.2-3.5,0.8-4.7,0.3-5.1
		c-0.5-0.4-2,0.6-3.1,1.8c0,0-2.3,2.5-3.5,12c0,0,0,0,0,0.1c-0.1,0.4-0.1,0.8-0.2,1.4c-0.1,0.2-0.1,0.3-0.1,0.7
		c-0.3,1.6-0.4,1.9-0.4,2.2c0,0.6,0.1,1,0.2,1.3c0.1,0.2,0.3,0.4,0.4,0.4c0.3,0.2,0.6,0.3,0.8,0.3c0.1,0,0.4,0,0.7-0.1
		c0.2-0.1,0.4-0.2,0.5-0.3c0.4-0.4,0.6-0.9,0.6-1.1c0-0.1,0.1-0.2,0.2-0.5c0-0.1,0.1-0.1,0.1-0.2c0.1-0.3,0.3-0.7,0.4-1
		c0.3-0.9,0.4-1.1,0.5-1.4c0.1-0.1,0.1-0.2,0.2-0.3c0.2-0.3,0.4-0.6,0.8-0.8c0.5-0.2,0.9-0.1,1.1-0.1c0.2,0,0.6,0.1,0.8,0.4
		c0.3,0.3,0.3,0.6,0.3,0.9c0.1,1.2,0.2,1.9,0.1,2.7c-0.2,1.2-0.6,2.2-0.7,2.6c-1.2,3.1-2.6,5.7-3.5,7.6c-0.7,1.3-0.7,1.4-1,2
		c-0.9,2-1.6,3.6-2.1,4.6c-0.2,0.5-0.4,0.9-0.4,1c-1.4,3.7-5,8.8-8,14.9c0,0-3,6-5.3,9.1c0,0,0,0-0.1,0.1c0,0-0.5,0.7-1.3,1.8
		c0,0-0.5,0.9-1,1.8c-0.5,0.9-1,1.8-1,1.8l0,0c0,0,0,0.1-0.1,0.2c-0.1,0.2-0.3,0.4-0.3,0.4c-0.1,0.1-0.2,0.2-0.3,0.2s-0.2,0-0.3,0
		s-0.2-0.1-0.3-0.3c-0.1-0.1-0.1-0.2-0.1-0.3s0-0.2,0.2-0.7c0,0,0-0.1,0.1-0.2c0-0.2,0.1-0.3,0.1-0.3c0.1-0.4,2.5-8.9,3-10.6
		c0.1-0.5,0.3-1,0.4-1.8c0.1-0.6,0.2-0.8,0.3-1.4c0.1-0.5,0.2-1,0.5-1.8c0,0,0.7-2.5,1.9-6.1l0,0c0,0,0.2-0.2,0.2-0.8
		c0-0.2,0-0.3-0.1-0.4c-0.1-0.1-0.2-0.2-0.2-0.3c0,0-0.4-0.3-0.8-0.2c-0.3,0-0.6,0.2-0.7,0.4c-1.5,1.4-2.2,2-2.6,2.6
		c-0.6,0.9-1,1.3-1.1,2.1c-0.1,0.3-0.2,0.9-0.2,1.5c0,0.3,0,0.8-0.2,1.5c0,0.1,0,0.1,0,0.2c-0.2,0.8-0.6,1.4-0.6,1.6
		c-0.7,1.1-1.8,4-2.7,6.4c-0.3,0.7-0.4,1.1-0.7,1.8c-0.7,2-0.8,2.8-1.4,4.9c-0.1,0.3-0.5,1.4-1,2.9c-0.6,1.7-1,2.3-1.8,4.2
		c-0.5,1.2-0.8,2-1.2,3.2c-1.2,3-2.4,6.3-3.5,10.5c0,0-1.3,4.8-1.9,6.4c-0.1,0.4-0.4,1-0.6,1.5s-0.4,1-0.5,1.1
		c-0.2,0.3-0.2,0.5-0.3,0.6c0,0-0.9,1.9-2,4s-2.3,4.3-2.9,5.1l0,0l0,0c0,0-0.1,0.1-0.1,0.2c-0.2,0.4-0.9,2-1,2.1v0.1l-0.4,2.7
		c0,0-0.1,0.8,0.5,1.3l0,0c0.5,0.4,1.1,0.3,1.5,0.2c0.2-0.1,0.5-0.1,0.9-0.3c0,0,2-0.8,2.3-1.3l0,0c0,0,2-1.5,2.6-2
		c0.1-0.1,0.2-0.1,0.2-0.1c0.1-0.1,0.1-0.1,0.1-0.1c2.4-2.1,11-6.8,11-6.8h0.1c0.3-0.2,0.9-0.5,1.6-0.9c0.6-0.4,1.2-0.7,1.5-0.9
		c0.1,0,0.1-0.1,0.1-0.1c1.1-0.7,5-3,8-4.7c0.7-0.4,1-0.6,1.4-0.8c0.1-0.1,0.3-0.2,0.6-0.4c0,0,0.3-0.2,0.7-0.4c1.6-0.9,5.1-3,5.1-3
		c1.3-0.8,2.5-1.4,4.8-2.7c3-1.7,7.5-4.2,12.9-6.8c2.6-1.3,3.9-1.9,4.7-2.3c0,0,2-0.8,3.7-1.7c0.1-0.1,0.3-0.1,0.3-0.1s0,0,0.1,0
		c0.5-0.2,0.9-0.5,0.9-0.5l0,0c0.1,0,0.3-0.2,0.5-0.3s0.3-0.2,0.5-0.3l0,0c1.3-0.7,7.1-3.8,8.9-4.6c0,0,0.1,0,0.2-0.1
		c0.7-0.3,1.3-0.6,1.6-0.7c0.9-0.4,1.6-0.7,2-0.9s0.8-0.3,0.9-0.4c0.3-0.1,0.5-0.2,0.6-0.3c0.6-0.3,0.9-0.5,0.9-0.5
		c2.6-1.2,4.1-2.6,4.1-2.6c0.4-0.3,0.8-0.8,1-1.5c0.1-0.3,0.1-0.5,0.1-0.6c0-0.5-0.2-0.9-0.3-1.1c-0.1-0.2-0.3-0.4-0.6-0.6
		c-0.3-0.1-0.6-0.2-0.7-0.2c-0.1,0-0.2,0-0.2,0c-0.2,0-0.4,0-0.4,0s-0.7,0.1-1,0.2l0,0c0,0-2.3,0.6-2.8,0.8c-0.1,0-0.4,0.1-0.5,0.2
		l0,0c0,0-0.1,0-0.2,0.1c-0.7,0.2-1.6,0.6-1.6,0.6l0,0c-0.7,0.3-1.3,0.5-1.5,0.5c-1.8,0.6-5.1,1.9-6.4,2.7l0,0
		c-0.2,0.1-0.9,0.6-1.9,0.5c-0.3,0-0.6,0-0.8-0.2c-0.4-0.2-0.6-0.7-0.7-0.9c-0.1-0.2-0.2-0.6-0.1-1c0.1-0.3,0.3-0.6,0.5-0.8
		c0.8-0.8,1.6-1.1,1.6-1.1c0.5-0.2,2.6-1.7,6.7-4.6c0.3-0.2,1.1-0.8,1.3-1l0,0c0,0,0.2-0.2,0.4-0.3c2.4-1.8,4.5-3.7,4.5-3.7
		c2.1-2,7.1-5.3,13-9.3c7.8-5.3,12.8-8.2,13.5-8.5c0.1,0,0.4-0.1,0.8-0.4c0.2-0.2,0.5-0.4,0.7-0.7c0.2-0.2,0.3-0.4,0.3-0.6
		c0.1-0.4-0.1-0.8-0.2-1.1c-0.2-0.5-0.6-0.8-0.8-0.9c-0.3-0.2-0.6-0.2-0.6-0.2c-0.7,0-1.6,0.5-1.7,0.5l-0.1,0.1l0,0
		c-1.3,0.9-4,1.9-4,1.9c-1,0.4-1.9,0.8-2.9,1.1c-1.1,0.4-2.2,0.8-3.2,1.3s-2,1.1-3.6,1.4c0,0-0.1,0-0.2,0c-2.2,0.3-2.6,0.4-3.2,0.6
		c-0.1,0.1-0.3,0.2-0.8,0.4c-0.4,0.2-2.9,1.5-3.7,1.6c-0.2,0-0.3,0-0.4,0c-0.3,0-0.4,0-0.5-0.1s0-0.2,0-0.5c0-0.1,0.1-0.3,0.1-0.3
		c0.2-0.4,0.8-1,1.4-1.4c0.6-0.4,1.1-0.7,1.1-0.7l0,0c0,0,0.3-0.1,0.6-0.4c0.7-0.5,1-1,1.1-1.1c0,0,0.1-0.2,0.2-0.3
		c0.1-0.2,0.1-0.2,0.2-0.3c0.1-0.1,0.1-0.2,0.1-0.2l0,0c0.3-0.5,6.4-4.6,6.4-4.6c0.5-0.3,0.8-0.6,1.3-1c2.5-1.9,4.2-3.6,4.8-4.1
		c3.3-3.3,7.5-6.2,10.5-8.2c1.4-1,2.7-1.8,5.4-3.5c1.7-1.1,2.9-1.8,3.8-2.2c0.3-0.1,0.6-0.3,1.1-0.5c0.2-0.1,0.6-0.4,1.2-0.8
		c1.2-0.8,2.7-1.4,3.8-1.9s2-0.8,2-0.8c0.7-0.5,4.9-0.7,4.9-0.7s0.4,0,1.4,0.1c0.1,0,0.3,0.1,0.6,0.2c0.3,0.2,0.4,0.3,0.5,0.4
		c0,0,0.1,0.2,0,0.3c0,0.1-0.1,0.2-0.2,0.3c-0.1,0.1-0.1,0.1-0.2,0.2c-0.2,0.2-0.4,0.3-0.4,0.3c-1.8,1.2-2.6,1.5-2.6,1.5
		c-0.9,0.4-1.7,0.4-3,0.6c-0.5,0-1,0.1-1.6,0.3c-0.7,0.2-1.2,0.6-1.4,0.8c-1.6,1.2-3.4,2.8-4.5,3.7c-2.1,1.6-4.3,2.5-5.1,2.9
		c-0.3,0.1-1.6,0.7-3.1,1.5c-0.4,0.2-0.7,0.4-0.8,0.4c-0.9,0.5-1.6,1-2.1,1.4c0,0-0.3,0.2-0.5,0.3c-2.9,2.1-4.8,3.6-4.8,3.6
		s-4.6,3.8-5.2,4c0,0-0.2,0.1-0.3,0.2c-0.1,0-0.2,0.1-0.3,0.3c-0.1,0.1-0.2,0.2-0.2,0.4c0,0.1,0.1,0.2,0.1,0.3c0,0,0.1,0.3,0.5,0.4
		l0,0c0,0,0,0,0.1,0s0.1,0,0.1,0c0.2,0,0.5,0.2,0.5,0.2l1.3,0.1c0,0,0.2,0,0.4-0.1c0.2,0,0.2,0,0.4,0s0.3-0.1,0.3-0.1
		c0.1,0,0.4-0.1,0.7-0.2c0.5-0.2,0.9-0.5,1.6-0.8c0.2-0.1,0.5-0.2,0.9-0.3c0.6-0.2,1-0.2,1.7-0.2c0.5-0.1,0.8-0.2,1.5-0.3
		c0,0,2-0.5,3.8-1.4l0,0c0.8-0.6,1.6-1.1,1.6-1.1c0.2-0.1,0.3-0.2,0.6-0.3c0.2-0.1,0.3-0.1,0.4-0.1c0.1,0,0.2-0.1,0.5-0.1
		c0.1,0,0.1,0,0.2,0c0.3,0,1.1-0.2,1.5-0.4c0.4-0.1,0.9-0.2,1.5-0.1c0.3,0.1,0.5,0.2,0.6,0.3c0.3,0.2,0.4,0.5,0.4,0.7
		c0.3,0.8-0.1,1.6-0.1,1.7c-0.3,0.6-0.7,0.9-1.2,1.3c-0.2,0.2-1,0.7-1.9,1.4s-2.1,1.6-3.1,2.6c-1.8,1.7-3.2,3.2-4.1,4.9
		c-0.5,0.8-0.5,1.2-0.4,1.5c0.2,0.4,0.8,0.5,1.4,0.6c4,0.6,6,0.6,6,0.6c0.8,0,1.3,0,2.1,0.1c0.9,0,1.2,0.1,2,0.1
		c0.3,0,1.1,0.1,1.9,0c1.5-0.1,3.1-0.2,4.7-1.1c0.3-0.2,0.7-0.4,1.2-0.9c1.2-1.1,1.6-2.6,1.7-3.2c0.2-0.8,0.2-1.4,0.7-2.5
		c0.1-0.4,0.2-0.6,0.4-0.8c0.1-0.3,0.5-1,1.2-1.6c0.3-0.3,0.3-0.1,1.5-0.8c1.4-0.8,1.9-1.2,2.2-1.9c0-0.1,0-0.1,0-0.1
		c0.3-0.8,0.1-1.4-0.1-2.7c-0.2-1.3-0.2-1.9,0.1-2.5c0.1-0.1,0.1-0.2,0.2-0.2c0.6-0.7,1.4-1,1.7-1.1c0.8-0.3,2.1-0.9,2.7-1.8
		c0.2-0.3,0.4-1.2,0.9-3.1c0.4-1.7,0.5-2,0.8-2.3c0.4-0.4,0.9-0.7,2.1-1.3c0.8-0.4,1.2-0.6,1.3-0.9c0.1-0.4-0.1-0.8-0.3-1.3
		c-0.4-0.7-0.7-1-1.4-1.7c0,0-1.1-1.1-1.9-1.2l0,0c-0.2,0-0.7-0.1-1.1-0.3c-0.2-0.1-0.4-0.2-0.5-0.4s-0.1-0.4-0.1-0.5
		c0-0.2,0.1-0.3,0.1-0.4c0.1-0.2,0.3-0.3,0.5-0.5c0.5-0.3,1-0.3,1.1-0.3c0,0,0.1,0,0.2,0c0.8,0,3.4,0,4.1,0.3l0,0c0,0,2.4,0.2,4.4,0
		c1.6-0.1,2.7-0.2,3.7-0.7C-570,172.9-569.2,166.1-570.6,165.2z M-591.9,157c-0.1,1.3-1.2,2.8-2.6,4c-1.4,1.2-3.1,2.1-4.6,2.1
		c-0.1-0.1-0.3-0.1-0.6-0.2c-0.2-0.1-0.5-0.3-0.6-0.5c-0.2-0.3-0.2-0.6,0-0.8s0.4-0.4,0.6-0.6c1-0.9,1.9-1.7,2.9-2.6
		c1-0.8,2-1.7,2.9-2.5c0.2-0.2,0.5-0.4,0.8-0.5s0.6-0.1,0.8,0.2c0.2,0.1,0.2,0.4,0.3,0.7C-591.9,156.5-591.9,156.8-591.9,157z"/>
</g>
<g id="Layer_2">
	<path d="M72.5,98.8C57.8,84.1,43.1,69.5,28.5,54.8C11,37.3-6.4,19.9-23.8,2.5c-4.6-4.6-11.6,2.5-7.1,7.1l96.4,96.4l-46.7,46.7
		C1.2,170.2-16.4,187.8-34,205.4c-4.6,4.6,2.5,11.6,7.1,7.1L72.5,113l22.9,22.9L2.6,228.8c-4.6,4.6,2.5,11.6,7.1,7.1l92.9-92.9
		l104,104c4.6,4.6,11.6-2.5,7.1-7.1c-34.7-34.7-69.4-69.4-104-104"/>
	<line x1="102.5" y1="128.8" x2="79.6" y2="105.9"/>
	<path d="M133.7,111.8l60.8,60.8c17.8,17.8,35.7,35.7,53.5,53.5c4.6,4.6,11.6-2.5,7.1-7.1c-38.1-38.1-76.2-76.2-114.3-114.3
		l94.8-94.8c4.6-4.6-2.5-11.6-7.1-7.1l-94.8,94.8c-7.6-7.6-15.3-15.3-22.9-22.9L212.6-27.1c4.6-4.6-2.5-11.6-7.1-7.1L103.7,67.6
		L64.9,28.8C47.1,11,29.2-6.9,11.4-24.7c-4.6-4.6-11.6,2.5-7.1,7.1l92.4,92.4"/>
	<line x1="103.7" y1="81.8" x2="126.6" y2="104.7"/>
</g>
</svg>
