<?xml version="1.0" encoding="utf-8"?>
<!-- Generator: Adobe Illustrator 27.7.0, SVG Export Plug-In . SVG Version: 6.00 Build 0)  -->
<svg version="1.1" id="Layer_1" xmlns="http://www.w3.org/2000/svg" xmlns:xlink="http://www.w3.org/1999/xlink" x="0px" y="0px"
	 viewBox="0 0 21.5 21" style="enable-background:new 0 0 21.5 21;" xml:space="preserve">
<style type="text/css">
	.st0{display:none;}
</style>
<g>
	<path class="st0" d="M33.9,11.5c-0.1-0.2-0.2-0.4-0.5-0.5c-0.1,0-0.2,0-0.3-0.1c-0.1-0.3-0.4-0.4-0.5-0.7c0-0.1-0.2-0.2-0.3-0.2
		c-0.4-0.2-0.8-0.3-1-0.7c0-0.1-0.1-0.1-0.2-0.2c-0.6-0.3-0.8-0.9-1.3-1.2c0,0,0-0.1,0-0.1c-0.2-0.3-0.5-0.7-0.8-0.9
		c-0.5-0.4-0.9-0.9-1.4-1.3c-0.7-0.7-1.5-1.4-2.2-2.1c-0.2-0.2-0.3-0.4-0.5-0.5c-0.2-0.1-0.4-0.3-0.5-0.5c0-0.1-0.1-0.2-0.3-0.3
		c-0.2-0.1-0.3-0.3-0.5-0.4c-0.1-0.1-0.2-0.2-0.2-0.3c-0.6-0.5-1.2-1.2-1.8-1.7c-0.3-0.2-0.5-0.6-0.8-0.9c-0.4-0.4-1-0.7-1.3-1.2
		c0,0-0.1,0-0.1-0.1c-0.4-0.3-0.9-0.7-1.2-1.1c-0.1-0.2-0.1-0.5-0.5-0.4c0,0,0,0-0.1,0c-0.3-0.3-0.7-0.6-1-0.9
		C16-5.6,15.2-6.3,14.5-7c-0.5-0.5-0.9-0.9-1.4-1.4c-0.5-0.5-1-1-1.4-1.5c-0.1-0.1-0.3-0.2-0.2-0.4c-0.2,0-0.3,0.1-0.5-0.1
		c-0.1-0.1-0.3-0.1-0.5,0c-0.1,0-0.2,0.2-0.3,0c-0.1-0.2,0-0.3,0.1-0.4c0.3-0.3,0.7-0.2,1.1-0.2c0.2,0,0.1,0.2,0.2,0.4
		c0.3,0.4,0.6,0.7,1,1.1C13-9,13.4-8.5,13.9-8c0.1,0.1,0.2,0.3,0.5,0.3c0.4-0.1,0.6,0,0.5,0.5c0,0.2,0,0.3,0.3,0.2
		c0.1,0,0.2,0,0.3,0.1c0.1,0.1,0.2,0.2,0.3,0.4c0.1,0.1,0.2,0.3,0.3,0.2c0.1-0.1-0.1-0.2-0.1-0.2c-0.8-0.8-1.6-1.6-2.4-2.4
		c-0.8-0.8-1.5-1.5-2.3-2.2c-0.3-0.3-0.5-0.3-0.8,0c-0.1,0.1-0.2,0.3-0.4,0.4c-0.5,0.5-1,1-1.5,1.5c-1.3,1.3-2.6,2.7-3.9,4
		C4.4-5.3,4.2-5.3,4.4-5.1C4.5-5,4.7-5,4.8-5.2C5-5.4,5.3-5.7,5.5-5.9c1-1,2-1.9,2.9-2.9c0.4-0.4,0.9-0.9,1.3-1.3
		c0.1-0.1,0.2-0.1,0.3-0.1c0.1,0,0,0.1,0,0.1C9.9-9.9,9.9-9.7,9.7-9.6C9.3-9.3,9-8.9,8.6-8.5C8.1-8.1,7.8-7.7,7.3-7.3
		C7-6.9,6.6-6.5,6.2-6.1c-0.3,0.3-0.6,0.6-1,0.9c-0.4,0.3-0.7,0.7-1.1,1C3.4-3.3,2.7-2.4,1.8-1.8C1.6-1.6,1.4-1.4,1.2-1.2
		C0.9-0.9,0.6-0.6,0.3-0.3C-0.1,0-0.5,0.4-0.9,0.8C-1.3,1.2-1.6,1.6-2,2c-0.9,0.9-1.8,1.7-2.7,2.6C-4.8,4.6-5,4.6-5.1,4.7
		c-0.1,0.4-0.4,0.4-0.7,0.5c-0.1,0.1-0.4,0.1-0.1,0.3c0,0,0,0.1,0,0.1c-0.2,0.1-0.3,0.4-0.6,0.4c-0.1,0-0.2,0-0.1,0.1
		c0.2,0.3-0.1,0.4-0.3,0.5C-7.2,6.8-7.4,7-7.6,7.2C-7.9,7.6-8.4,7.7-8.7,8c0,0,0,0,0,0c-0.3,0-0.5,0.3-0.7,0.5
		c-0.1,0.1-0.1,0.3,0.1,0.4c0.1,0,0.2,0.1,0.1,0.1c-0.3,0.4-0.5,0.8-1,0.9c-0.1,0-0.3,0.1-0.2,0.2c0.2,0.2,0,0.2-0.1,0.3
		c-0.2,0.1-0.1-0.1-0.2-0.1c0,0-0.1-0.1-0.1,0c-0.2,0.1-0.3,0.3-0.5,0.5c-0.1,0.1,0,0.2,0.1,0.2c0,0,0,0.1,0,0.1
		c-0.1,0.1-0.3,0.2-0.5,0.1c-0.4-0.2-0.6,0.1-0.7,0.3c-0.2,0.2,0.1,0.4,0.2,0.5c1,1,2,2,3,3.1c0.5,0.5,1,1,1.6,1.2
		c0.4,0.2,0.7,0.5,1,0.8c0.5,0.5,1,1,1.6,1.4c0.9,0.7,1.9,1.2,2.7,2c0.4,0.4,0.9,0.7,1.3,1c1.8,1.2,3.5,2.4,5.2,3.7
		c2,1.6,4.1,3,6,4.7c0.4,0.4,0.6,0.3,1.1,0c1.2-1,2.5-1.9,3.7-2.8c1.3-0.9,2.5-2,3.8-3c1.4-1.1,2.8-2.2,4.2-3.3
		c1.7-1.2,3.3-2.5,4.8-3.8c1.1-0.9,2.1-2,3.2-2.9c0,0,0.1-0.1,0.2,0c0.1,0.2,0.2,0.1,0.2,0c0-0.2,0.1-0.2,0.3-0.2
		c0.1,0,0.2,0,0.3-0.1c0.6-0.5,1.2-1,1.7-1.6C33.8,11.8,34,11.7,33.9,11.5z M21.5,6.8c0,0.2,0,0.3,0,0.5c0,0,0,0,0,0
		c0,0.4,0,0.8,0,1.2c0,0.3-0.2,0.6-0.3,0.9c-0.3,0.6-0.6,1.3-0.7,2c-0.1,0.7,0.1,1.3,0.7,1.8c0.2,0.1,0.3,0.3,0.3,0.5
		c0,1.1,0.1,2.2,0.1,3.3c0,0.7,0,0.7-0.6,0.4c-0.3-0.1-0.6-0.3-0.9-0.4c-0.2-0.1-0.3-0.1-0.4,0.1c-0.1,0.3-0.2,0.7-0.4,1
		c-0.1,0.5-0.5,0.9-0.8,1.2c-0.5,0.4-1.1,0.8-1.7,1.1c0,0-0.1,0.1-0.2,0c0-0.2-0.1-0.3,0.1-0.5c0.4-0.4,0.7-0.9,1-1.5
		c0.3-0.7,0.6-1.4,0.6-2.2c0-1.2,0.1-2.4-0.1-3.6c-0.5-2.6-1.9-4.6-4.3-6c-0.4-0.2-0.8-0.4-1.1-0.7c-0.2-0.2-0.2-0.3-0.1-0.6
		c0.5-0.7,1.2-1.2,1.8-1.8c0.1-0.1,0.2-0.2,0.3-0.3c0.1-0.1,0.1-0.2,0-0.2C14.7,3,14.6,3,14.5,3c-0.7,0.1-1.4,0.1-2.1,0.3
		c-0.7,0.2-1.4,0.3-2,0.6C8.5,4.9,7.3,6.4,6.6,8.4C6.5,8.8,6.4,9.3,6.3,9.7c0,0.1,0,0.2,0,0.2c0.1,0.1,0.2,0,0.2-0.1
		c0.6-0.3,1.3-0.7,2-0.8c1.9-0.3,3.6,0.2,5.1,1.4c0.9,0.8,1.3,1.8,1.5,2.9c0.5,2.2,0,4.2-1.4,5.9c-0.9,1-2.1,1.5-3.4,1.6
		c-1.1,0.1-2.2,0.2-3.2-0.2c-1.3-0.4-2.4-1.1-3.4-2c-1.3-1.1-2.1-2.6-2.8-4.1C0.3,13.2,0,11.8,0,10.2c0-2,0.6-3.8,1.5-5.5
		c0.2-0.4,0.3-0.7,0.6-1C2.4,3.4,2.7,3.3,3,3.4C3.3,3.5,3.5,3.6,3.5,4c0,0.4-0.1,0.9,0,1.3c0,0.1,0,0.1,0,0.2
		c0.1,0.2,0.1,0.5,0.4,0.5c0.2,0,0.3-0.2,0.4-0.4C5,3.9,6.2,2.7,7.6,1.7c0.7-0.5,1.5-1,2.3-1.4C10.3,0.1,10.8,0,11.3,0
		c1,0,1.9,0,2.9,0.1c0.9,0.1,1.7,0.4,2.4,0.8c0.9,0.4,1.7,0.9,2.5,1.4c0.4,0.3,0.7,0.5,1,0.8c0.2,0.2,0.2,0.4,0.3,0.6
		c0.3,0.7,0.6,1.3,1,1.9C21.6,6,21.5,6.4,21.5,6.8z"/>
	<path d="M21.5,6.8c0,0.2,0,0.3,0,0.5c0,0,0,0,0,0c0,0.4,0,0.8,0,1.2c0,0.3-0.2,0.6-0.3,0.9c-0.3,0.6-0.6,1.3-0.7,2
		c-0.1,0.7,0.1,1.3,0.7,1.8c0.2,0.1,0.3,0.3,0.3,0.5c0,1.1,0.1,2.2,0.1,3.3c0,0.7,0,0.7-0.6,0.4c-0.3-0.1-0.6-0.3-0.9-0.4
		c-0.2-0.1-0.3-0.1-0.4,0.1c-0.1,0.3-0.2,0.7-0.4,1c-0.1,0.5-0.5,0.9-0.8,1.2c-0.5,0.4-1.1,0.8-1.7,1.1c0,0-0.1,0.1-0.2,0
		c0-0.2-0.1-0.3,0.1-0.5c0.4-0.4,0.7-0.9,1-1.5c0.3-0.7,0.6-1.4,0.6-2.2c0-1.2,0.1-2.4-0.1-3.6c-0.5-2.6-1.9-4.6-4.3-6
		c-0.4-0.2-0.8-0.4-1.1-0.7c-0.2-0.2-0.2-0.3-0.1-0.6c0.5-0.7,1.2-1.2,1.8-1.8c0.1-0.1,0.2-0.2,0.3-0.3c0.1-0.1,0.1-0.2,0-0.2
		C14.7,3,14.6,3,14.5,3c-0.7,0.1-1.4,0.1-2.1,0.3c-0.7,0.2-1.4,0.3-2,0.6C8.5,4.9,7.3,6.4,6.6,8.4C6.5,8.8,6.4,9.3,6.3,9.7
		c0,0.1,0,0.2,0,0.2c0.1,0.1,0.2,0,0.2-0.1c0.6-0.3,1.3-0.7,2-0.8c1.9-0.3,3.6,0.2,5.1,1.4c0.9,0.8,1.3,1.8,1.5,2.9
		c0.5,2.2,0,4.2-1.4,5.9c-0.9,1-2.1,1.5-3.4,1.6c-1.1,0.1-2.2,0.2-3.2-0.2c-1.3-0.4-2.4-1.1-3.4-2c-1.3-1.1-2.1-2.6-2.8-4.1
		C0.3,13.2,0,11.8,0,10.2c0-2,0.6-3.8,1.5-5.5c0.2-0.4,0.3-0.7,0.6-1C2.4,3.4,2.7,3.3,3,3.4C3.3,3.5,3.5,3.6,3.5,4
		c0,0.4-0.1,0.9,0,1.3c0,0.1,0,0.1,0,0.2c0.1,0.2,0.1,0.5,0.4,0.5c0.2,0,0.3-0.2,0.4-0.4C5,3.9,6.2,2.7,7.6,1.7
		c0.7-0.5,1.5-1,2.3-1.4C10.3,0.1,10.8,0,11.3,0c1,0,1.9,0,2.9,0.1c0.9,0.1,1.7,0.4,2.4,0.8c0.9,0.4,1.7,0.9,2.5,1.4
		c0.4,0.3,0.7,0.5,1,0.8c0.2,0.2,0.2,0.4,0.3,0.6c0.3,0.7,0.6,1.3,1,1.9C21.6,6,21.5,6.4,21.5,6.8z"/>
	<path class="st0" d="M-3.2,2.8c-0.1,0-0.2,0-0.2-0.1c-0.1-0.1,0-0.1,0.1-0.2C-2.9,2-2.5,1.6-2.1,1.2C-1.6,0.6-1,0.1-0.4-0.5
		c0.6-0.6,1.3-1.3,1.9-1.9c0.1-0.1,0.3-0.1,0.4-0.3c0-0.1,0.1,0.1,0.1,0.1c0.1,0.1,0.1,0.3,0,0.4C1.8-2.2,1.6-2.2,1.5-2.1
		C1.4-2.1,1.4-2,1.3-2C1.1-1.2,0.4-0.9,0-0.3c-0.3,0.4-0.8,0.7-1.1,1.1c-0.3,0.4-0.7,0.7-1,1C-2.3,2-2.4,2.1-2.5,2.3
		C-2.7,2.5-2.9,2.7-3.2,2.8z"/>
	<path class="st0" d="M3.1-3.6c-0.1,0-0.4-0.2-0.2,0.2C2.9-3.2,2.6-3,2.5-2.9c-0.1,0.1-0.3,0-0.5,0c-0.1,0,0-0.1,0-0.1
		C2.4-3.4,2.7-3.7,3-4C3.1-4.1,3.3-4.1,3.4-4c0.1,0,0.1,0.1,0,0.2C3.4-3.7,3.3-3.6,3.1-3.6z"/>
</g>
</svg>
