<?xml version="1.0" encoding="utf-8"?>
<!-- Generator: Adobe Illustrator 27.7.0, SVG Export Plug-In . SVG Version: 6.00 Build 0)  -->
<svg version="1.1" id="Layer_1" xmlns="http://www.w3.org/2000/svg" xmlns:xlink="http://www.w3.org/1999/xlink" x="0px" y="0px"
	 viewBox="0 0 581.6 697.8" style="enable-background:new 0 0 581.6 697.8;" xml:space="preserve">
<style type="text/css">
	.st0{fill:;}
</style>
<path class="st0" d="M237.2,0l-6.3,54l51.1,40L319,15.8C290.6,1.5,263.9,0.6,237.2,0L237.2,0z M144.5,57.7
	c-37.9,4.6-67.1,24.8-92,52.8h0l150.6,97.8C203.2,208.3,144.5,57.7,144.5,57.7z M354.1,100.9l29.2,133.6l-142.3-37.3l63.4,130.6
	L84.6,188.1c-6.2,7.6-12,15.6-17.5,23.9c-45,67.9-65.7,158-67,244.9c62.7,30.7,99.8,62.7,115.7,96.2c14.3,30.1,8.6,61-9.9,84.8
	c39.4,36.5,107.2,58.8,176.8,59.9c70,1.1,140.6-18.9,185.4-60.6c-9.4-10.8-16.3-22.4-19.5-35.1c-4.4-17-1.5-35.2,8.1-52
	c18.4-32.1,58.8-61.3,125.1-93.3c-1.4-82.3-21.6-172.2-66.4-241.3C478.6,159.1,426.8,116.4,354.1,100.9L354.1,100.9z M167.7,364.7
	c43.4,0,78.5,35.2,78.5,78.5s-35.2,78.5-78.5,78.5c-43.4,0-78.5-35.2-78.5-78.5S124.3,364.7,167.7,364.7z M401.2,364.7
	c43.4,0,78.5,35.2,78.5,78.5s-35.2,78.5-78.5,78.5s-78.5-35.2-78.5-78.5S357.9,364.7,401.2,364.7z M284.4,499.3
	c21.5,45.3,38.5,90.7,47,136c-23.1,20.1-64.5,23.1-93.9,0C248.9,589.9,262.6,544.6,284.4,499.3z"/>
</svg>
