<?xml version="1.0" encoding="utf-8"?>
<!-- Generator: Adobe Illustrator 27.7.0, SVG Export Plug-In . SVG Version: 6.00 Build 0)  -->
<svg version="1.1" id="Layer_1" xmlns="http://www.w3.org/2000/svg" xmlns:xlink="http://www.w3.org/1999/xlink" x="0px" y="0px"
	 viewBox="0 0 49.4 31.9" style="enable-background:new 0 0 49.4 31.9;" xml:space="preserve">
<style type="text/css">
	.st0{fill:;}
</style>
<g>
	<path class="st0" d="M45.4,0v4h-4V0h-4v4h-4V0h-4v4h-4V0h-4v7l4,3.9v12.4l0.3,0.4c2,2.8,4.9,5.5,9,7.8l0.7,0.4l0.7-0.4
		c4.2-2.3,7-5,9-7.8l0.3-0.4V10.9l4-3.9V0H45.4z M42.4,9.7v12.7c-1.6,2.1-3.8,4.2-7,6.1l-0.1-12.6l-9.4-8.6L25.7,7h19.4L42.4,9.7z"
		/>
	<g>
		<path class="st0" d="M11,0c4.3,7.3,11,14.6,11,21.4s-4,10.5-11,10.5S0,28.1,0,21.4S6.7,7.3,11,0z M12.7,15.1H9.4v4.1h-4v3.2h4v4.1
			h3.2v-4.1h4v-3.2h-4C12.7,19.2,12.7,15.1,12.7,15.1z"/>
	</g>
</g>
</svg>
