<?xml version="1.0" encoding="utf-8"?>
<!-- Generator: Adobe Illustrator 27.7.0, SVG Export Plug-In . SVG Version: 6.00 Build 0)  -->
<svg version="1.1" id="Layer_1" xmlns="http://www.w3.org/2000/svg" xmlns:xlink="http://www.w3.org/1999/xlink" x="0px" y="0px"
	 viewBox="0 0 702.8 666.7" style="enable-background:new 0 0 702.8 666.7;" xml:space="preserve">
<style type="text/css">
	.st0{fill:none;stroke:black;stroke-width:66.6667;stroke-linecap:round;stroke-linejoin:round;stroke-miterlimit:133.3333;}
</style>
<path class="st0" d="M51.4,33.3l600,600 M279.5,263.8c-17.4,18-28.1,42.5-28.1,69.5c0,55.2,44.8,100,100,100
	c27.4,0,52.3-11,70.3-28.9 M168.1,154.9C104.8,196.7,56.5,259.5,33.3,333.3c42.5,135.2,168.8,233.3,318.1,233.3
	c66.3,0,128.1-19.4,180-52.7 M318.1,101.6c11-1.1,22.1-1.6,33.3-1.6c149.3,0,275.6,98.1,318.1,233.3c-9.4,29.8-22.8,57.8-39.6,83.3"
	/>
</svg>
