<?xml version="1.0" encoding="utf-8"?>
<!-- Generator: Adobe Illustrator 27.7.0, SVG Export Plug-In . SVG Version: 6.00 Build 0)  -->
<svg version="1.1" id="Layer_1" xmlns="http://www.w3.org/2000/svg" xmlns:xlink="http://www.w3.org/1999/xlink" x="0px" y="0px"
	 viewBox="0 0 271.6 204.9" style="enable-background:new 0 0 271.6 204.9;" xml:space="preserve">
<style type="text/css">
	.st0{display:none;}
	.st1{display:inline;stroke:#000000;stroke-miterlimit:10;}
</style>
<g id="Layer_2_00000166664854033004501110000011191950625823838388_" class="st0">
	<rect x="50.4" y="38.6" class="st1" width="330.7" height="245.6"/>
</g>
<g id="Layer_1_00000104668684165426879490000015006054446566611107_">
	<path d="M115.2,92.1c-9.9-4-15.5-8.5-22.7-17.9c-2.5-3.3-5.2-6.3-6.1-6.6c-0.8-0.3-4-0.6-7.1-0.7C63.4,66.3,57,65.1,44.2,60
		C30,54.2,19.7,48.5,14.6,43.8c-5.5-5.3-13.6-12-14.3-12c-0.8,0,0,11.4,1.4,17.9c0.5,2.6,1.6,8.1,2.4,12.4
		c2.1,11.6,6,20.1,15.3,34.3c7.4,11.1,8.7,12.6,10.9,12.6c1.7,0,2.9,0.6,3.6,1.7c1.4,2.8,19.2,13.1,21.3,12.4
		c1.1-0.3,2.7,0.4,4.4,1.7c3.5,3,10.6,5.6,19.3,7.2c3.8,0.6,7.2,1.2,7.5,1.3c0.3,0,2.6-1.9,5.1-4.2c2.9-2.8,6.8-5.1,11.9-7.3
		c7.2-2.9,7.6-3,11-1.7l3.5,1.4l0.3,7.5c0.2,4.4-0.4,10.7-1.3,15.1c-0.8,4.2-1.8,9.3-2.2,11.3c-0.4,2-1.7,6-3.1,8.7
		c-1.3,2.8-2.4,5.7-2.4,6.5s-0.6,2-1.4,2.7c-2.4,2-6.9,10.9-6.9,13.9c0,1.9,0.8,3.6,2.6,5.2c1.5,1.4,2.8,3.2,3.2,4.1
		s3.2,2.8,6.4,4.4c5.1,2.3,7.5,2.8,17.7,3.6c10.1,0.7,13,0.6,19.3-0.8c12.4-2.7,19.9-8.6,21.2-16.9c0.5-2.8-0.1-4.4-3.1-9.6
		c-7.4-12.5-10.3-19-10.8-24.2c-0.6-6.4-2.7-15.4-4.1-18.2c-0.9-1.7-0.9-2.8-0.1-4.8c0.6-1.5,0.9-4,0.7-5.6
		c-0.3-2.8-0.1-3.1,3.8-4.2c3.8-1.1,4.6-1,11,1.4c5.1,1.8,8.3,3.8,12,7.3l5.1,4.7l8.4-1.7c8.7-1.7,15.1-4.1,19.7-7.4
		c2-1.4,3-1.7,4-0.9c0.9,0.7,1.6,0.6,2.7-0.6c0.8-0.8,4.2-3,7.6-4.8c3.4-1.7,7.5-4.6,9.2-6.3c1.7-1.7,4-2.9,5.2-2.9
		c1.7,0,3.7-2.2,10-11.7c9.1-13.7,10.3-15.8,13.3-24.5c2.8-8.6,6.9-31.8,5.4-31.8l-3.4,1.6c0-4.1-1.3-4-6.3,0.8
		c-11.2,10.8-21.5,17.9-31.4,21.6c-1.7,0.6-6.5,2.5-10.6,4c-11.7,4.3-15.6,5.2-23.2,5.3c-4,0.1-8.2,0.3-9.5,0.5s-3.4,0.4-4.8,0.4
		c-2,0.1-3.5,1.5-7.7,7.2c-2.9,4-6.3,8-7.5,9c-5,4-9.9,7.1-12.3,7.5l-0.3-6.8c-1.2-1.1,2-7,5.7-10.6c5.3-5.1,5.6-8.3,0.9-11.3
		c-1.7-1.2-3.2-2.4-3.2-2.8c0-1.1,5-4.1,9.7-5.8c3.5-1.2,6.2-3.2,11.3-8.5c3.6-3.9,6.6-7.6,6.6-8.5s-2.7-4.7-5.9-8.5
		c-3.3-4-8.7-10.7-12-14.9c-6.1-7.7-10.9-11.5-16.5-12.9c-2.8-0.6-12.3-4.1-17.6-6.5c-4-1.8-7.7-2.3-9.9-1.3
		c-3.3,1.5-5.5,4-15.3,16.5c-5.2,6.7-11.6,14.8-14,17.9C86,45.2,86,44.6,92.7,52.1c4.9,5.4,7.1,7.1,14.1,10.5
		c13.5,6.4,18.8,8.7,20.4,8.7c1.9,0,1.1-0.8-1.2-1.3c-3.1-0.6-8.5-3.6-9.1-5c-0.3-0.8,0-1.1,0.8-0.8c0.7,0.3,4.2,0.8,7.8,1.2
		c4.5,0.4,6.9,1.1,8,2.3c1.8,2,3.7,2.3,4.3,0.6c0.5-1.2,6.3-2.8,14.4-3.9l4.1-0.6l-2.3,1.8c-1.3,1-1.9,2.1-1.6,2.5
		c0.4,0.4,0.6,0.3,0.6-0.2c0-1.3,3.7-1.4,3.8-0.1c0.1,0.6,0.3,2.2,0.5,3.6c0.2,2.2-0.3,2.8-4.5,4.8c-3.9,1.8-6.3,2.3-12.6,2.3
		c-10.7,0.1-18.4-1.4-21.6-4.1c-3.1-2.7-3.3-2.8-2.4-0.2c0.6,1.5,2.5,2.6,7,4.1c5.7,1.9,7.4,2,16.9,1.5c11.9-0.6,15.5-1.7,18.3-5.5
		c1.7-2.3,1.9-2.4,2.6-0.9c1.3,3.6-5.8,9.4-12.3,10.1c-1.4,0.2-3,0.6-3.6,0.9c-1.9,1.2-15,1.2-15.7,0c-0.4-0.6-1.9-1.3-3.4-1.7
		c-2.4-0.5-2.6-0.5-1.3,0.6c0.8,0.6,1.3,1.7,1.1,2.3c-0.3,0.7,0.6,1.2,2.2,1.3c1.4,0.1,4.8,0.3,7.4,0.5s7.3-0.3,10.1-1
		c6.8-1.8,7.9-1.7,7.1,0.2c-0.4,0.9-0.7,2.8-0.9,4.4c-0.4,4.1-2.8,12.2-4.5,14.7c-0.8,1.2-1.5,3.3-1.5,4.6c0,1.4-0.4,2.2-0.9,1.8
		c-0.5-0.3-0.9-0.2-0.9,0.4c0,0.5,0.4,1.1,0.8,1.4c1.1,0.7,2.9-1.7,2.4-3.2c-0.3-0.7,0.6-3.2,1.7-5.6l2.2-4.3l0.6,7.4
		c0.6,7.4,0.2,9.7-1.4,7.2c-0.7-1.1-0.9-0.9-0.9,0.6c0,1.1,0.5,2.3,1,2.6c0.6,0.5,0.7,2,0.3,4.5c-0.4,2-0.6,4.5-0.6,5.4
		c0.1,1.4-0.2,1.5-1.2,0.6c-0.8-0.7-0.6,0.6,0.6,4.2c1.6,4.4,1.7,5.7,0.8,8.6c-2.5,8.4-16.3,20.6-24.7,22.1
		c-3.7,0.6-3.9,0.7-1.3,0.8c1.7,0,2.8,0.5,2.5,1c-0.9,1.5,2.4-0.1,8.3-4c6.5-4.3,10.6-7.9,10.6-9.5c0-0.6,0.6-1.7,1.6-2.3
		c0.8-0.7,2.2-2.6,3.2-4c1.7-2.8,2-2.3,1.7,2.5c-0.1,1.3,0.3,2.7,0.8,3c0.6,0.3,1,1.9,1,3.6c0,2.8,3.8,11,10.8,23.7
		c3.4,6.2,3.6,7.5,1.1,11.6c-2.2,3.6-9.9,8.7-12.2,8.1c-0.9-0.2-2.5,0.4-3.5,1.4c-1.4,1.4-3,1.7-7.9,1.7c-9.7,0-22.3-1.8-27.1-3.9
		c-4.6-1.9-10.8-8.5-10.8-11.3c0-2,3.5-8.5,6.2-11.4c1.1-1.2,2.2-3.5,2.5-5.1s1.4-4.3,2.3-6.2c1-1.8,2-4.9,2.3-6.8
		c0.4-1.9,0.9-4,1.4-4.5c0.5-0.6,1-2,1.2-3.3c0.2-1.7,1.7-2.9,5.8-5.1c3-1.7,7.3-4.4,9.3-6.3c5-4.2,13.6-15.3,12-15.3
		c-1.2,0-4,3.4-7.3,8.5c-0.8,1.3-4.3,4.3-7.8,6.6c-3.4,2.3-7.4,5.1-8.7,6.1c-2.9,2.3-3.5,1.7-2.7-3.2c0.5-2.5,1.1-3.6,2-3.4
		c1,0.3,1.1,0.1,0.2-0.8c-1.4-1.5-1.7-9.5-0.3-8.6c0.6,0.3,0.9,0.2,0.9-0.4c0-0.5-0.7-1.3-1.6-1.8c-1.4-0.7-1.5-1.4-0.6-4.6
		c0.6-2.1,0.7-3.8,0.5-3.8c-0.3,0-0.6-4.5-0.6-10c0-8.5,0.2-9.9,1.4-9.5c1,0.4,0.9-0.1-0.4-1.5c-1.9-2.2-1.5-2.6,1.4-1.1
		c0.9,0.6,1.7,0.6,1.7,0.3c0-0.5-0.9-1.2-1.9-1.7c-1.5-0.7-4.4-6.2-4.5-8.5c0-0.2,0.8,0,1.8,0.3c3.2,1,1.9-0.9-1.4-2.2
		c-2.8-0.9-6.3-4.7-4.5-4.7c0.3,0,0.2-0.6-0.3-1.2c-1.3-1.7-2.2-4.5-1.3-4c0.7,0.5,1.9-2.3,1.9-4.7c0-1.7-3.7-0.2-5.2,2.1
		c-1.8,2.9-0.7,6,5.1,13.8c3.9,5.1,4.5,6.4,3.7,7.9"/>
	<path d="M131.2,4.4c0,0.3,1.4,0.8,3,1.2s4.7,1.6,6.7,2.8c2.5,1.3,4.3,1.7,5.1,1.3c1.9-1.2,2.2-1.1,6.8,2.8c4.7,4,6,4.5,6,2.1
		c0-1.1,0.3-1.3,0.9-0.6c1.3,1.3,1.4,6.7,0.1,9.8c-1.3,3.2-1.4,9.6-0.1,6.6c0.5-1,0.8-2.9,0.8-4.3c0.1-1.4,0.6-2.8,1.1-3.1
		c1-0.6,11.3,8.8,10.5,9.6c-0.3,0.3,1.2,2.3,3.2,4.4c2,2.2,3.7,4.8,3.8,5.6c0,1.5,0.2,1.4,0.8-0.2c0.6-1.6,0.8-1.3,0.8,1.2
		c0.1,2.1-0.3,2.8-1,2.4c-0.6-0.4-0.7-0.3-0.4,0.4c0.4,0.6-0.1,1.9-1,3c-6.3,7.9-14.5,12-28,14.2c-13.3,2.1-13.6,2.2-13.6,3.7
		c0,1.9-1.4,1.7-2.8-0.5c-0.9-1.3-2.7-2-5.9-2.3c-9.1-0.9-15.7-2.4-20.5-4.7c-2.7-1.3-4.6-2.8-4.3-3.2c0.4-0.5-0.2-0.8-1.1-0.8
		c-2.5,0-6-2.8-5.4-4.1c0.3-0.7-0.3-1.7-1.1-2.5c-1.4-1.1-1.5-1-0.3,0.4c0.7,1,0.8,1.7,0.3,1.7c-0.9,0-2.9-5.4-2.9-7.7
		c0-1.2,6.5-10,8.5-11.4c0.9-0.6,1.7-1.7,1.7-2.2c0-0.6,1.1-2.3,2.6-4c1.4-1.7,3.8-4.5,5.2-6.4c5.1-6.4,5.4-6.6,6-3.6
		c0.7,4,1.8,1.4,2-4.7c0.1-2.8,0.6-5.4,1.1-5.7c0.5-0.4,2.1,0.8,3.7,2.6s4.8,4,7.1,4.8c2.3,0.9,6.5,2.9,9.3,4.7
		c4.9,2.9,8.1,4.5,8.1,3.9c0-0.5-7.6-5.8-11.1-7.7c-1.8-1-4.1-2.3-5.1-2.8c-1-0.6-2.8-1.4-4.2-1.9c-2.8-1-3.3-3.2-1.1-5.6
		c1.2-1.4,1.8-1.5,3.2-0.6C130.4,3.2,131.2,4.1,131.2,4.4z"/>
</g>
</svg>
